<svg id="レイヤー_1" data-name="レイヤー 1" xmlns="http://www.w3.org/2000/svg" viewBox="0 0 124.01 123.99"><path d="M64.75,12c1.34.17,2.69.31,4,.5A48.77,48.77,0,0,1,96,25.46a48.15,48.15,0,0,1,15.09,28c2.58,15.94-1.47,30.12-12.25,42.18a48.25,48.25,0,0,1-28.93,15.72c-1.71.28-3.44.45-5.17.66H59.1c-.3,0-.59-.12-.88-.16-1.6-.19-3.21-.29-4.79-.58a49.19,49.19,0,0,1-30-17.43,48.62,48.62,0,0,1-11-25.21c-.19-1.42-.33-2.85-.49-4.28V59.66c.06-.32.13-.65.16-1,.19-1.68.28-3.38.57-5A49.2,49.2,0,0,1,27.85,25.5a48.81,48.81,0,0,1,27.31-13c1.31-.18,2.62-.32,3.94-.49Zm-2.84,97.06A47.07,47.07,0,1,0,15,61.66,47,47,0,0,0,61.91,109.05Z"/><path d="M93.74,70.21V58.6H81.54c0-1.1,0-2.1,0-3.1a1.64,1.64,0,0,1,.61-1.44c1.26-1.12,2.48-2.29,3.74-3.47-1.62-1.51-3.19-3-4.79-4.45a1.65,1.65,0,0,1-.6-1.36c0-4.53,0-9.06,0-13.58,0-.83-.25-1-1-1-2.49.05-5,0-7.48,0-.82,0-1.9-.21-2.38.22s-.14,1.51-.16,2.31,0,1.56,0,2.54L61,27.45c-8.31,7.74-16.57,15.42-24.87,23.16,1.31,1.21,2.59,2.4,3.85,3.6.21.2.47.47.48.72,0,1.19,0,2.38,0,3.7H28.25v11.6H19.88a42.75,42.75,0,0,0,47.79,34.36c11.93-1.55,21.52-7.37,28.77-17a41.42,41.42,0,0,0,7.65-17.39Zm-57-9.5L34.37,63l-2.3-2.24Zm1.66,1.72V67l-2.24-2.27ZM30.4,67V62.45l2.2,2.29Zm4-.57,2.3,2.29H32.05ZM40.92,87H33.3V74.21h4c-.25,3.24-.49,6.45-.74,9.76,1.27-.08,2.42-.12,3.57-.24.61-.07.79.13.76.71C40.89,85.32,40.92,86.19,40.92,87Zm13.58-6.1a32.85,32.85,0,0,1-6.19,6.81,5.75,5.75,0,0,1-.66.39,2.86,2.86,0,0,1-.48-.32,35.24,35.24,0,0,1-5.45-6.9.89.89,0,0,1,.06-.79A30.3,30.3,0,0,1,47.85,74a.88.88,0,0,1,.82,0q2.94,3.1,5.8,6.28A.67.67,0,0,1,54.5,80.89Zm1.37-27.5H66.22V63.78H55.87ZM67,80.16a18.93,18.93,0,0,1-4.77,6.23,1.91,1.91,0,0,1-1.1.45c-1.63,0-3.26,0-5,0V74.33c2.15,0,4.24,0,6.33,0,.22,0,.48.27.66.47,1.26,1.4,2.49,2.82,3.75,4.22A.88.88,0,0,1,67,80.16ZM90,60.7,87.57,63,85.3,60.7Zm-2.23,5.75L90,68.71H85.44Zm-4.06-4.07L86,64.71c-.73.74-1.51,1.51-2.31,2.3ZM80.24,83.77c-1.53,1.32-3.12,2.55-4.7,3.8a.71.71,0,0,1-1.09-.06c-2-2.26-4-4.49-5.9-6.76a.79.79,0,0,1,0-.76,33.44,33.44,0,0,1,6.35-6.45.94.94,0,0,1,1.25-.06c1.37.93,2.75,1.84,4.27,2.85l-3.23,3c-.48-.63-1-1.24-1.58-2-1,1.08-1.75,2-2.5,2.85a.69.69,0,0,0,0,.64c.65.8,1.32,1.57,2,2.31a.76.76,0,0,0,.69.08,6.62,6.62,0,0,0,1-.71l-.77-1,2.71-2.37,3,2.8A14.23,14.23,0,0,1,80.24,83.77Zm10.24,3.34-2-.09-5-.21c-.44,0-.73-.1-.72-.65.07-3.75.11-7.49.2-11.24a.75.75,0,0,1,.51-.54c2-.17,4.09-.31,6.14-.4a.75.75,0,0,1,.55.47c.1.79.1,1.59.14,2.44H86.62v2.4l3.19-.17V82l-3.19-.15v2.1h3.86ZM91.59,67c-.78-.79-1.55-1.57-2.31-2.32l2.31-2.24Z"/><path d="M59.61,83.54a11.94,11.94,0,0,0,4-3.82l-4-2.73Z"/><path d="M48.16,77.51c-.82.93-1.59,1.79-2.32,2.68a.82.82,0,0,0-.06.73c.65,1,1.34,1.93,2,2.89l.44,0c.73-1,1.46-1.9,2.17-2.87a.71.71,0,0,0,.07-.6A7.51,7.51,0,0,0,48.16,77.51Z"/><path d="M42.75,2.89a3.1,3.1,0,0,1,2.58.25A3.79,3.79,0,0,1,47,5.35,3.79,3.79,0,0,1,47,8.15,3,3,0,0,1,45,9.86a3.1,3.1,0,0,1-2.58-.25,3.71,3.71,0,0,1-1.7-2.21,3.76,3.76,0,0,1,.06-2.79A3.1,3.1,0,0,1,42.75,2.89Zm.42,1.3a1.37,1.37,0,0,0-.94.94,2.85,2.85,0,0,0,.12,1.75,2.91,2.91,0,0,0,.93,1.48,1.45,1.45,0,0,0,2.26-.73,3,3,0,0,0-.11-1.76,2.91,2.91,0,0,0-.94-1.47A1.36,1.36,0,0,0,43.17,4.19Z"/><path d="M51,5.56l.22,1.18.59-.11a.81.81,0,0,1,.56,0,.65.65,0,0,1,.24.45.62.62,0,0,1-.07.52.76.76,0,0,1-.5.24l-2,.36a.79.79,0,0,1-.57-.05.63.63,0,0,1-.25-.46.65.65,0,0,1,.07-.49A.58.58,0,0,1,49.72,7l.1,0L49,2.69l-.1,0a.64.64,0,0,1-.48-.09.7.7,0,0,1-.24-.44.67.67,0,0,1,.08-.52.81.81,0,0,1,.51-.25L51.2,1a3.62,3.62,0,0,1,2.23.15,1.92,1.92,0,0,1,1,1.47A2.09,2.09,0,0,1,54,4.43a3.48,3.48,0,0,1-2,1Zm-.56-3.12.33,1.82.82-.15a1.91,1.91,0,0,0,1-.41.8.8,0,0,0,.22-.76.77.77,0,0,0-.47-.6,1.91,1.91,0,0,0-1.06,0Z"/><path d="M61.14,1.26l-2.72.12.06,1.49,1,0V2.76a.73.73,0,0,1,.12-.5.56.56,0,0,1,.44-.18.59.59,0,0,1,.44.13.47.47,0,0,1,.18.37.26.26,0,0,0,0,.07.62.62,0,0,1,0,.13l0,1.21a.86.86,0,0,1-.12.57.53.53,0,0,1-.45.19.54.54,0,0,1-.62-.6V4l-1,0,.07,1.75,2.73-.12,0-.69a.9.9,0,0,1,.12-.57.63.63,0,0,1,.48-.19.59.59,0,0,1,.49.15.9.9,0,0,1,.17.56l0,1.41a.55.55,0,0,1-.1.43A.81.81,0,0,1,62,7l-4.8.19A.8.8,0,0,1,56.67,7a.66.66,0,0,1-.19-.49A.72.72,0,0,1,56.62,6a.65.65,0,0,1,.46-.18h.1L57,1.49h-.1a.61.61,0,0,1-.47-.15.67.67,0,0,1-.18-.47.63.63,0,0,1,.15-.5A.8.8,0,0,1,57,.2L61.74,0a.77.77,0,0,1,.49.09c.09.07.13.21.14.43l.06,1.31a.83.83,0,0,1-.13.57.59.59,0,0,1-.46.2.62.62,0,0,1-.5-.16.89.89,0,0,1-.17-.56Z"/><path d="M68.77,5l.3-3.22-.32,0a.8.8,0,0,1-.54-.2A.65.65,0,0,1,68.09,1,.63.63,0,0,1,68.3.52a.79.79,0,0,1,.57-.11l1.66.16a.79.79,0,0,1,.53.2.68.68,0,0,1,.12.51.64.64,0,0,1-.2.46.63.63,0,0,1-.48.13h-.09l-.5,5.29a.66.66,0,0,1-.09.34s-.13.06-.27,0L69,7.48a.92.92,0,0,1-.39-.09.58.58,0,0,1-.18-.22l-2-4.5-.29,3.17.34,0a.79.79,0,0,1,.52.2.64.64,0,0,1,.12.5.64.64,0,0,1-.21.48.75.75,0,0,1-.55.1L64.62,7a.84.84,0,0,1-.53-.21A.61.61,0,0,1,64,6.28a.58.58,0,0,1,.69-.57h.09l.41-4.35h-.09a.64.64,0,0,1-.45-.21.65.65,0,0,1-.12-.49.64.64,0,0,1,.22-.48.78.78,0,0,1,.56-.1l1,.09a.77.77,0,0,1,.45.13,1.09,1.09,0,0,1,.24.39Z"/><path d="M85.92,5a1.17,1.17,0,0,1,.33-.19.64.64,0,0,1,.33,0,.52.52,0,0,1,.32.29.9.9,0,0,1-.07.53L86.29,7.1a.83.83,0,0,1-.32.46.69.69,0,0,1-.5,0,.62.62,0,0,1-.31-.25,1,1,0,0,1,0-.49,1.39,1.39,0,0,0-.17-.92,1.52,1.52,0,0,0-.77-.56,1.66,1.66,0,0,0-1.51.07,2.81,2.81,0,0,0-1.09,1.47,2.89,2.89,0,0,0-.18,1.83,1.67,1.67,0,0,0,1.08,1.07,2.88,2.88,0,0,0,1.41.11,2.89,2.89,0,0,1,1,0,.47.47,0,0,1,.29.32.73.73,0,0,1,0,.5c-.12.32-.52.52-1.2.58a4.35,4.35,0,0,1-2.07-.31,3.22,3.22,0,0,1-2-1.83A3.73,3.73,0,0,1,80,6.24a3.76,3.76,0,0,1,1.84-2.1,3.18,3.18,0,0,1,2.65-.09,3.61,3.61,0,0,1,.73.38A5.11,5.11,0,0,1,85.92,5Z"/><path d="M92,7.57a3.08,3.08,0,0,1,1.58,2,3.8,3.8,0,0,1-.46,2.75,3.8,3.8,0,0,1-2.09,1.86,3.24,3.24,0,0,1-4.15-2.3,3.72,3.72,0,0,1,.45-2.76,3.78,3.78,0,0,1,2.09-1.85A3.06,3.06,0,0,1,92,7.57Zm-.66,1.19a1.37,1.37,0,0,0-1.33,0A2.91,2.91,0,0,0,88.83,10a2.88,2.88,0,0,0-.44,1.7,1.35,1.35,0,0,0,.74,1.11,1.37,1.37,0,0,0,1.33,0,2.9,2.9,0,0,0,1.21-1.28,2.93,2.93,0,0,0,.44-1.69A1.42,1.42,0,0,0,91.36,8.76Z"/><path d="M97.75,13l-2.61,3.5,2.13,1.59.63-.83a.93.93,0,0,1,.45-.38.63.63,0,0,1,.49.15.61.61,0,0,1,.28.43.82.82,0,0,1-.22.55l-1.07,1.44c-.13.17-.24.26-.35.27A.92.92,0,0,1,97,19.5l-4.26-3.18a.78.78,0,0,1-.34-.45.8.8,0,0,1,.58-.79.76.76,0,0,1,.53.21l.41.31,2.62-3.5-.42-.31a.83.83,0,0,1-.34-.45.81.81,0,0,1,.6-.79.84.84,0,0,1,.53.21l2,1.49a.87.87,0,0,1,.35.45.66.66,0,0,1-.16.5.63.63,0,0,1-.43.29.81.81,0,0,1-.54-.2Z"/><path d="M104.08,18.31,101,21.42l1.9,1.87.73-.74a1,1,0,0,1,.5-.31.59.59,0,0,1,.46.22.6.6,0,0,1,.23.46.9.9,0,0,1-.29.51l-1.26,1.29a.54.54,0,0,1-.39.21.84.84,0,0,1-.42-.27l-3.79-3.73a.74.74,0,0,1-.28-.49.65.65,0,0,1,.23-.47.62.62,0,0,1,.46-.23.78.78,0,0,1,.49.28l.37.36L103,17.26l-.37-.36a.81.81,0,0,1-.28-.49.83.83,0,0,1,.7-.7.8.8,0,0,1,.5.28l1.78,1.75a.78.78,0,0,1,.28.49.62.62,0,0,1-.22.48.64.64,0,0,1-.47.23.83.83,0,0,1-.5-.28Z"/><path d="M108.37,30l.06.08a.67.67,0,0,1,.17.47.6.6,0,0,1-.28.42.62.62,0,0,1-.5.17.9.9,0,0,1-.47-.36l-1.07-1.39a.88.88,0,0,1-.24-.55.63.63,0,0,1,.3-.44.59.59,0,0,1,.48-.16.86.86,0,0,1,.47.36l.13.16.39-.61-1.55-2-.69.22.12.16a.82.82,0,0,1,.23.55.6.6,0,0,1-.27.43.64.64,0,0,1-.5.17.86.86,0,0,1-.47-.36l-.93-1.2a.87.87,0,0,1-.23-.55.67.67,0,0,1,.29-.44.68.68,0,0,1,.48-.15.64.64,0,0,1,.42.28l.06.08,4.42-1.43-.29-.37a.89.89,0,0,1-.23-.55.65.65,0,0,1,.29-.44.62.62,0,0,1,.5-.16.82.82,0,0,1,.47.35l1.34,1.74a.76.76,0,0,1,0,.93h0ZM110,24.84l-2.47.84,1,1.35Z"/><path d="M113.89,34.48a1.92,1.92,0,0,1-.09,1.14,1.63,1.63,0,0,1-.75.77,1.9,1.9,0,0,1-1,.27,2.19,2.19,0,0,1-1-.28,2.29,2.29,0,0,1-.51-.43,4.91,4.91,0,0,1-.56-.82l-.25-.43-1.28-2.22a.89.89,0,0,1-.14-.56.82.82,0,0,1,.84-.49.64.64,0,0,1,.37.33l0,.08,3.79-2.18,0-.08a.57.57,0,0,1,.25-.87.67.67,0,0,1,.51-.1.82.82,0,0,1,.41.4l1.34,2.34a3.07,3.07,0,0,1,.52,1.87,1.86,1.86,0,0,1-1.69,1.49A1.56,1.56,0,0,1,113.89,34.48Zm-2-2.26-1.55.89.44.76a3,3,0,0,0,.83,1,.71.71,0,0,0,.78,0,.76.76,0,0,0,.42-.66A2.71,2.71,0,0,0,112.3,33Zm2.3-1.32-1.28.73.39.69a2.14,2.14,0,0,0,.66.79.58.58,0,0,0,.64,0,.6.6,0,0,0,.35-.5,1.61,1.61,0,0,0-.28-.84Z"/><path d="M119.62,38.68a3,3,0,0,1-.07,2.58,3.75,3.75,0,0,1-2.08,1.85,3.8,3.8,0,0,1-2.8.14,3.09,3.09,0,0,1-1.84-1.82,3,3,0,0,1,.07-2.59A3.76,3.76,0,0,1,115,37a3.82,3.82,0,0,1,2.79-.13A3.07,3.07,0,0,1,119.62,38.68Zm-1.26.51a1.37,1.37,0,0,0-1-.87,2.85,2.85,0,0,0-1.73.23,2.9,2.9,0,0,0-1.41,1,1.35,1.35,0,0,0-.13,1.33,1.37,1.37,0,0,0,1,.87,2.87,2.87,0,0,0,1.74-.23,3,3,0,0,0,1.41-1A1.37,1.37,0,0,0,118.36,39.19Z"/><path d="M118.79,49.13a1,1,0,0,1-.26.38l0,.05-1.23,1.3,0,.06,0,.11a.8.8,0,0,1,0,.54.61.61,0,0,1-.42.28.63.63,0,0,1-.52,0,.83.83,0,0,1-.29-.52l-.18-.7a.71.71,0,0,1,.19-.69v0L117.84,48a.65.65,0,0,0,.15-.23.45.45,0,0,0,0-.23l-.14-.54-1.5.38,0,.09a.66.66,0,0,1,0,.51.65.65,0,0,1-.42.27.68.68,0,0,1-.52,0,.8.8,0,0,1-.29-.51l-.37-1.47a.86.86,0,0,1,0-.58.79.79,0,0,1,.94-.25.65.65,0,0,1,.27.42l0,.1,4.24-1.07,0-.1a.58.58,0,0,1,.05-.49.62.62,0,0,1,.42-.28.6.6,0,0,1,.52,0,.82.82,0,0,1,.29.5l.66,2.62a3.08,3.08,0,0,1,0,1.94,1.68,1.68,0,0,1-1.23,1,1.79,1.79,0,0,1-1.19-.07A2,2,0,0,1,118.79,49.13Zm1.83-2.94-1.61.4.19.77a2,2,0,0,0,.44,1,.7.7,0,0,0,.69.13.75.75,0,0,0,.55-.42,1.47,1.47,0,0,0,0-.88Z"/><path d="M118.27,58.66v.1a.71.71,0,0,1-.11.5.64.64,0,0,1-.45.21.65.65,0,0,1-.52-.11.91.91,0,0,1-.21-.55l-.19-1.76a.89.89,0,0,1,.08-.58.65.65,0,0,1,.48-.23.63.63,0,0,1,.5.12.86.86,0,0,1,.21.55l0,.21.66-.32-.28-2.51-.71-.18,0,.2a.93.93,0,0,1-.08.59.61.61,0,0,1-.46.22.65.65,0,0,1-.52-.11.91.91,0,0,1-.21-.55L116.34,53a.82.82,0,0,1,.09-.58.78.78,0,0,1,1-.12.69.69,0,0,1,.22.46v.1l4.52,1.08-.06-.46a.86.86,0,0,1,.09-.59.64.64,0,0,1,.47-.22.65.65,0,0,1,.52.11.91.91,0,0,1,.21.55l.24,2.19a.75.75,0,0,1-.48.79h0Zm4-3.53-2.55-.57.19,1.69Z"/><path d="M122.6,65.49l0-1.23-4.37-.11,0,1a.83.83,0,0,1-.17.56.83.83,0,0,1-1,0,.84.84,0,0,1-.14-.56l.09-3.48a.85.85,0,0,1,.16-.56.65.65,0,0,1,.51-.15.6.6,0,0,1,.49.18.84.84,0,0,1,.13.56l0,1,4.37.11,0-1.22-1.19-.07h-.15a.6.6,0,0,1-.43-.17.59.59,0,0,1-.15-.43.66.66,0,0,1,.18-.48.73.73,0,0,1,.53-.14h.05l1.75.11c.35,0,.56.07.62.15a.9.9,0,0,1,.1.52l-.13,5a.79.79,0,0,1-.12.51c-.07.08-.28.12-.63.13l-1.75,0h0a.73.73,0,0,1-.52-.15.63.63,0,0,1-.16-.48.62.62,0,0,1,.17-.45,1,1,0,0,1,.59-.14Z"/><path d="M121.76,72.49l-4.32-.7-.16,1a.91.91,0,0,1-.23.54.6.6,0,0,1-.51.09.61.61,0,0,1-.46-.25.89.89,0,0,1-.06-.59l.55-3.43a.91.91,0,0,1,.25-.54.59.59,0,0,1,.51-.09.62.62,0,0,1,.46.24.9.9,0,0,1,0,.59l-.16,1L122,71l.16-1a.85.85,0,0,1,.24-.54.6.6,0,0,1,.51-.09.63.63,0,0,1,.46.25.88.88,0,0,1,0,.59l-.55,3.43a.91.91,0,0,1-.24.55.63.63,0,0,1-.51.08.59.59,0,0,1-.46-.24.89.89,0,0,1-.06-.59Z"/><path d="M121.42,80.24a3.07,3.07,0,0,1-1.68,2,4.2,4.2,0,0,1-5-1.54,3.09,3.09,0,0,1-.28-2.58,3.05,3.05,0,0,1,1.68-2,4.18,4.18,0,0,1,5,1.53A3.06,3.06,0,0,1,121.42,80.24Zm-1.3-.4a1.37,1.37,0,0,0-.23-1.31,2.86,2.86,0,0,0-1.49-.91,2.92,2.92,0,0,0-1.76-.08,1.35,1.35,0,0,0-.93.95,1.37,1.37,0,0,0,.23,1.31,3,3,0,0,0,1.5.92,2.89,2.89,0,0,0,1.75.08A1.36,1.36,0,0,0,120.12,79.84Z"/><path d="M113.53,87.41l2.93,1.36.13-.29A.84.84,0,0,1,117,88a.83.83,0,0,1,.9.42.9.9,0,0,1-.09.57l-.71,1.51a.77.77,0,0,1-.37.43.66.66,0,0,1-.52,0,.71.71,0,0,1-.37-.35.62.62,0,0,1,0-.49l0-.09-4.82-2.24c-.17-.08-.27-.15-.29-.2a.35.35,0,0,1,0-.27l.25-.53a.88.88,0,0,1,.22-.33.46.46,0,0,1,.27-.1l4.91-.4-2.88-1.34-.15.31a.8.8,0,0,1-.36.43.6.6,0,0,1-.51-.06.64.64,0,0,1-.38-.36.73.73,0,0,1,.09-.55l.71-1.53a.81.81,0,0,1,.37-.43.62.62,0,0,1,.52,0,.64.64,0,0,1,.36.34.61.61,0,0,1,0,.5l0,.08,4,1.84,0-.08a.59.59,0,0,1,.34-.35.69.69,0,0,1,.5,0,.66.66,0,0,1,.38.37.75.75,0,0,1-.09.56l-.41.87a.81.81,0,0,1-.28.39,1,1,0,0,1-.44.09Z"/><path d="M108.72,100.69l-1-.88-1.24,1.46,1,.87.06-.07a.57.57,0,0,1,.91-.07.61.61,0,0,1,.27.45.84.84,0,0,1-.26.53l-1,1.15a.83.83,0,0,1-.48.33.63.63,0,0,1-.49-.19.67.67,0,0,1-.26-.44.64.64,0,0,1,.18-.46l.07-.08-3.33-2.84-.06.07a.65.65,0,0,1-.43.26.59.59,0,0,1-.47-.18.69.69,0,0,1-.27-.45.94.94,0,0,1,.26-.54l1-1.14a.86.86,0,0,1,.49-.34.64.64,0,0,1,.49.19.63.63,0,0,1,.25.44.65.65,0,0,1-.19.47l-.06.07,1.31,1.12L106.72,99l-1.32-1.13-.06.08a.57.57,0,0,1-.9.08.65.65,0,0,1-.27-.46.89.89,0,0,1,.26-.53l1-1.15a.91.91,0,0,1,.49-.34.66.66,0,0,1,.49.2.61.61,0,0,1,.25.43.65.65,0,0,1-.19.47l-.06.08,3.32,2.84.06-.08a.67.67,0,0,1,.43-.25.64.64,0,0,1,.47.19.61.61,0,0,1,.27.45.82.82,0,0,1-.25.53l-1,1.15a.82.82,0,0,1-.49.33.79.79,0,0,1-.75-.63.7.7,0,0,1,.19-.47Z"/><path d="M103.22,106.51l-2-2.29a1.82,1.82,0,0,0-1-.67,1.47,1.47,0,0,0-1.42,1.26,1.81,1.81,0,0,0,.56,1l2,2.29.07-.06a.64.64,0,0,1,.47-.19.65.65,0,0,1,.44.25.62.62,0,0,1,.2.48.78.78,0,0,1-.32.49l-1.09,1a.77.77,0,0,1-.52.26.61.61,0,0,1-.46-.26.56.56,0,0,1,0-.9l.07-.06-2-2.28a3,3,0,0,1-1-2A2.8,2.8,0,0,1,98.4,103a2.92,2.92,0,0,1,2-.92,3,3,0,0,1,1.9,1.18l2,2.27.07-.07a.65.65,0,0,1,.47-.2.69.69,0,0,1,.44.25.66.66,0,0,1,.2.49.83.83,0,0,1-.32.49l-1.13,1a.87.87,0,0,1-.53.26.63.63,0,0,1-.46-.25.58.58,0,0,1,.06-.92Z"/><path d="M93,111.85a2,2,0,0,1-1.14,0,1.81,1.81,0,0,1-.83-.7,1.92,1.92,0,0,1-.32-1,2,2,0,0,1,.21-1,2,2,0,0,1,.39-.55,4.7,4.7,0,0,1,.78-.61l.41-.27,2.13-1.43a.73.73,0,0,1,.54-.18.62.62,0,0,1,.42.32.65.65,0,0,1,.13.48.64.64,0,0,1-.3.39l-.08.06L97.81,111l.09-.05a.6.6,0,0,1,.48-.12.64.64,0,0,1,.4.31.63.63,0,0,1,.13.5.82.82,0,0,1-.37.44l-2.24,1.5a3.13,3.13,0,0,1-1.82.65,1.83,1.83,0,0,1-1.61-1.59A1.55,1.55,0,0,1,93,111.85Zm2.12-2.21-1-1.48-.73.49a3.07,3.07,0,0,0-1,.9.7.7,0,0,0,.06.78.71.71,0,0,0,.69.37,2.8,2.8,0,0,0,1.17-.53Zm1.48,2.21-.83-1.23-.65.44a2.23,2.23,0,0,0-.75.71.61.61,0,0,0,.07.64.63.63,0,0,0,.53.32,1.72,1.72,0,0,0,.82-.34Z"/><path d="M81.39,121.05a3,3,0,0,1-2.57-.24,4.19,4.19,0,0,1-1.65-5,3.26,3.26,0,0,1,4.52-1.48,3.84,3.84,0,0,1,1.71,2.21,3.76,3.76,0,0,1-.07,2.79A3,3,0,0,1,81.39,121.05ZM81,119.76a1.35,1.35,0,0,0,.93-1,3.49,3.49,0,0,0-1.06-3.22,1.38,1.38,0,0,0-1.31-.22,1.4,1.4,0,0,0-.94.95,3.57,3.57,0,0,0,1,3.23A1.38,1.38,0,0,0,81,119.76Z"/><path d="M73.13,118.41l-.21-1.19-.6.11a.79.79,0,0,1-.55,0,.62.62,0,0,1-.25-.45.66.66,0,0,1,.07-.52.81.81,0,0,1,.51-.25l2-.36a.79.79,0,0,1,.57.05.67.67,0,0,1,.26.46.65.65,0,0,1-.08.49.56.56,0,0,1-.42.24l-.1,0,.78,4.3.1,0a.62.62,0,0,1,.48.08.69.69,0,0,1,.25.45.64.64,0,0,1-.08.51.78.78,0,0,1-.52.25L73,123a3.54,3.54,0,0,1-2.23-.16,1.9,1.9,0,0,1-1-1.46,2.09,2.09,0,0,1,.42-1.82,3.55,3.55,0,0,1,2-1Zm.57,3.12-.33-1.83-.82.15a1.9,1.9,0,0,0-1,.42.8.8,0,0,0-.22.75.75.75,0,0,0,.48.6,1.78,1.78,0,0,0,1,0Z"/><path d="M63,122.72l2.72-.12-.06-1.49-1,0v.07a.68.68,0,0,1-.13.5.55.55,0,0,1-.43.19.68.68,0,0,1-.44-.13.46.46,0,0,1-.18-.37.54.54,0,0,1,0-.08.57.57,0,0,1,0-.13L63.38,120a.9.9,0,0,1,.12-.57.59.59,0,0,1,.45-.19.57.57,0,0,1,.45.14.65.65,0,0,1,.18.46v.11l1,0-.07-1.75-2.73.12,0,.7a.84.84,0,0,1-.12.57.65.65,0,0,1-.48.19.6.6,0,0,1-.49-.15.87.87,0,0,1-.16-.56l-.07-1.41a.59.59,0,0,1,.11-.43.81.81,0,0,1,.48-.13l4.79-.21a.84.84,0,0,1,.56.13.82.82,0,0,1,.06,1,.67.67,0,0,1-.46.18H67l.19,4.36h.1a.61.61,0,0,1,.47.15.66.66,0,0,1,.18.47.64.64,0,0,1-.15.5.79.79,0,0,1-.54.18l-4.8.21a.77.77,0,0,1-.49-.09.6.6,0,0,1-.14-.43l-.06-1.31a.88.88,0,0,1,.12-.57.61.61,0,0,1,.47-.2.6.6,0,0,1,.5.16.89.89,0,0,1,.17.56Z"/><path d="M55.37,119.06l-.29,3.21.32,0a.85.85,0,0,1,.54.2.66.66,0,0,1,.12.51.66.66,0,0,1-.21.48.79.79,0,0,1-.57.1l-1.65-.15a.8.8,0,0,1-.54-.2.68.68,0,0,1-.12-.51.64.64,0,0,1,.2-.46.61.61,0,0,1,.47-.13h.1l.49-5.3a.55.55,0,0,1,.09-.34s.13-.05.27,0l.58,0a.94.94,0,0,1,.39.1.4.4,0,0,1,.17.22l2,4.48.29-3.16-.34,0a.79.79,0,0,1-.53-.19.63.63,0,0,1-.12-.5.68.68,0,0,1,.22-.48.75.75,0,0,1,.55-.1l1.67.15a.8.8,0,0,1,.54.2.65.65,0,0,1,.12.51.56.56,0,0,1-.68.58H59.4l-.4,4.35h.09a.69.69,0,0,1,.35,1.18.83.83,0,0,1-.56.1l-1-.09a.81.81,0,0,1-.46-.13,1.09,1.09,0,0,1-.24-.39Z"/><path d="M38.24,119a.91.91,0,0,1-.34.19.61.61,0,0,1-.64-.31.82.82,0,0,1,.07-.53l.53-1.43a.84.84,0,0,1,.32-.46.6.6,0,0,1,.5,0,.52.52,0,0,1,.31.24,1,1,0,0,1,0,.49,1.46,1.46,0,0,0,.17.92,1.55,1.55,0,0,0,.78.56,1.66,1.66,0,0,0,1.51-.08,3.43,3.43,0,0,0,1.25-3.3,1.65,1.65,0,0,0-1.07-1.07,2.94,2.94,0,0,0-1.42-.1,2.89,2.89,0,0,1-1,0,.46.46,0,0,1-.28-.32.67.67,0,0,1,0-.5c.13-.32.52-.52,1.2-.59a4.61,4.61,0,0,1,2.07.31,3.21,3.21,0,0,1,2,1.83,4.12,4.12,0,0,1-1.89,4.92,3.18,3.18,0,0,1-2.65.1,3.61,3.61,0,0,1-.73-.38A4.48,4.48,0,0,1,38.24,119Z"/><path d="M32.13,116.5a3.05,3.05,0,0,1-1.58-2A3.7,3.7,0,0,1,31,111.7a3.77,3.77,0,0,1,2.08-1.87,3.26,3.26,0,0,1,4.16,2.3,4.16,4.16,0,0,1-2.53,4.61A3,3,0,0,1,32.13,116.5Zm.66-1.19a1.37,1.37,0,0,0,1.33,0,2.84,2.84,0,0,0,1.19-1.27,2.88,2.88,0,0,0,.44-1.7,1.37,1.37,0,0,0-.74-1.11,1.42,1.42,0,0,0-1.34,0,3.58,3.58,0,0,0-1.64,3A1.4,1.4,0,0,0,32.79,115.31Z"/><path d="M26.38,111.1,29,107.59,26.85,106l-.62.84a.91.91,0,0,1-.46.37.57.57,0,0,1-.48-.15.59.59,0,0,1-.29-.43.83.83,0,0,1,.22-.55l1.07-1.44c.12-.17.24-.26.35-.26a.81.81,0,0,1,.46.2l4.26,3.17a.77.77,0,0,1,.35.45.67.67,0,0,1-.16.5.64.64,0,0,1-.42.29.76.76,0,0,1-.53-.21l-.42-.3-2.6,3.5.41.31a.77.77,0,0,1,.35.45.64.64,0,0,1-.16.49.68.68,0,0,1-.44.3.84.84,0,0,1-.53-.21l-2-1.48a.82.82,0,0,1-.35-.45.64.64,0,0,1,.16-.51.59.59,0,0,1,.43-.29.84.84,0,0,1,.53.21Z"/><path d="M20,105.79l3.05-3.12-1.9-1.87-.73.75a1,1,0,0,1-.51.31.74.74,0,0,1-.68-.68.85.85,0,0,1,.29-.51l1.26-1.29a.51.51,0,0,1,.38-.21.76.76,0,0,1,.43.26l3.79,3.72a.78.78,0,0,1,.29.49.83.83,0,0,1-.69.71.84.84,0,0,1-.49-.28l-.37-.36-3.06,3.12.37.36a.81.81,0,0,1,.28.49.66.66,0,0,1-.22.47.64.64,0,0,1-.48.23.76.76,0,0,1-.5-.27l-1.78-1.75a.78.78,0,0,1-.28-.49.62.62,0,0,1,.22-.47.63.63,0,0,1,.47-.24.83.83,0,0,1,.5.28Z"/><path d="M15.72,94.16l-.06-.08a.56.56,0,0,1,.1-.89.65.65,0,0,1,.5-.17.86.86,0,0,1,.47.36l1.09,1.39a.87.87,0,0,1,.23.54.66.66,0,0,1-.29.45.64.64,0,0,1-.49.16.9.9,0,0,1-.47-.36l-.12-.17-.4.61,1.56,2,.69-.22-.13-.16a.87.87,0,0,1-.23-.54.63.63,0,0,1,.28-.44.62.62,0,0,1,.5-.16.79.79,0,0,1,.47.35l.93,1.2a.87.87,0,0,1,.23.54.63.63,0,0,1-.29.44.61.61,0,0,1-.47.16.64.64,0,0,1-.43-.28l-.06-.08-4.41,1.45.28.37a.89.89,0,0,1,.24.54.65.65,0,0,1-.29.44.64.64,0,0,1-.5.17.9.9,0,0,1-.47-.36l-1.35-1.74a.75.75,0,0,1,0-.92h0Zm-1.57,5.11,2.48-.85-1-1.34Z"/><path d="M10.18,89.62a2,2,0,0,1,.08-1.13,1.75,1.75,0,0,1,.75-.78,1.82,1.82,0,0,1,1-.26,2,2,0,0,1,1,.27,2.09,2.09,0,0,1,.52.43,5.6,5.6,0,0,1,.56.82l.24.42,1.29,2.23a.8.8,0,0,1,.14.55.66.66,0,0,1-.35.4.62.62,0,0,1-.48.09.61.61,0,0,1-.38-.32l0-.09-3.78,2.19.05.09a.63.63,0,0,1,.09.48.62.62,0,0,1-.34.38.59.59,0,0,1-.51.1.81.81,0,0,1-.41-.4L8.22,92.76a3.12,3.12,0,0,1-.52-1.87,1.61,1.61,0,0,1,.89-1.25,1.64,1.64,0,0,1,.8-.24A1.55,1.55,0,0,1,10.18,89.62Zm-.24,3.59,1.28-.74-.4-.68a2.19,2.19,0,0,0-.66-.8.71.71,0,0,0-1,.54,1.64,1.64,0,0,0,.28.84Zm2.3-1.33L13.78,91l-.44-.76a3.15,3.15,0,0,0-.83-1,.73.73,0,0,0-.79,0,.71.71,0,0,0-.41.66,2.64,2.64,0,0,0,.46,1.2Z"/><path d="M4.44,85.44a3.06,3.06,0,0,1,.06-2.58A3.73,3.73,0,0,1,6.58,81a3.83,3.83,0,0,1,2.79-.14,3.26,3.26,0,0,1,1.79,4.41,3.76,3.76,0,0,1-2.08,1.86,3.77,3.77,0,0,1-2.79.13A3,3,0,0,1,4.44,85.44Zm1.26-.51a1.37,1.37,0,0,0,1,.87,2.94,2.94,0,0,0,1.73-.24,2.9,2.9,0,0,0,1.41-1A1.46,1.46,0,0,0,9,82.32a2.81,2.81,0,0,0-1.74.24,2.9,2.9,0,0,0-1.41,1A1.37,1.37,0,0,0,5.7,84.93Z"/><path d="M5.25,75a1,1,0,0,1,.25-.38l0,0,1.23-1.3,0-.06,0-.11a.8.8,0,0,1,0-.54.62.62,0,0,1,.42-.29.63.63,0,0,1,.52,0,.83.83,0,0,1,.29.52l.18.69a.73.73,0,0,1-.18.69v0L6.19,76.17a.62.62,0,0,0-.14.23.36.36,0,0,0,0,.23l.14.53,1.5-.38,0-.09a.64.64,0,0,1,0-.5.65.65,0,0,1,.42-.27.64.64,0,0,1,.52,0,.88.88,0,0,1,.29.51l.37,1.47a.8.8,0,0,1,0,.58.62.62,0,0,1-.44.29.62.62,0,0,1-.49,0,.62.62,0,0,1-.28-.42l0-.09L3.81,79.33l0,.09a.58.58,0,0,1-.47.77.6.6,0,0,1-.52,0,.8.8,0,0,1-.29-.5L1.89,77a3.08,3.08,0,0,1,0-1.94,1.66,1.66,0,0,1,1.22-1,1.92,1.92,0,0,1,1.19.07A2.07,2.07,0,0,1,5.25,75Zm-1.83,3L5,77.53l-.2-.77a2.05,2.05,0,0,0-.43-1,.7.7,0,0,0-.69-.12.72.72,0,0,0-.55.41,1.47,1.47,0,0,0,0,.88Z"/><path d="M5.75,65.46v-.1a.66.66,0,0,1,.1-.5.64.64,0,0,1,.45-.21.65.65,0,0,1,.52.11.91.91,0,0,1,.21.55l.2,1.76a.89.89,0,0,1-.08.58.65.65,0,0,1-.48.23.59.59,0,0,1-.5-.12A.86.86,0,0,1,6,67.21l0-.2-.65.31.28,2.52.71.17,0-.2a.93.93,0,0,1,.08-.59A.61.61,0,0,1,6.78,69a.65.65,0,0,1,.52.11.91.91,0,0,1,.21.55l.17,1.5a.85.85,0,0,1-.08.59.65.65,0,0,1-.48.23.69.69,0,0,1-.49-.11.69.69,0,0,1-.21-.46v-.1L1.89,70.24l.05.47a.84.84,0,0,1-.09.58.61.61,0,0,1-.47.23.66.66,0,0,1-.51-.12.86.86,0,0,1-.22-.55L.41,68.67a.75.75,0,0,1,.47-.79h0ZM1.75,69l2.55.57-.19-1.69Z"/><path d="M1.4,58.65l0,1.22,4.37.1,0-1a.87.87,0,0,1,.16-.56.63.63,0,0,1,.5-.16.59.59,0,0,1,.49.18.79.79,0,0,1,.14.56L7,62.49a.83.83,0,0,1-.17.56.65.65,0,0,1-.5.16A.67.67,0,0,1,5.82,63a.86.86,0,0,1-.14-.56l0-1-4.37-.1,0,1.23,1.19.06h.14a.63.63,0,0,1,.44.17.59.59,0,0,1,.15.43.66.66,0,0,1-.18.48.78.78,0,0,1-.53.15h0l-1.75-.1c-.35,0-.56-.07-.63-.16A1,1,0,0,1,0,63.12l.11-5a.89.89,0,0,1,.12-.51c.07-.08.28-.13.63-.13l1.75,0h.05a.76.76,0,0,1,.53.16.56.56,0,0,1,.15.47.55.55,0,0,1-.17.45.93.93,0,0,1-.58.14Z"/><path d="M2.22,51.64l4.32.69.16-1a.91.91,0,0,1,.23-.54.63.63,0,0,1,.51-.1A.62.62,0,0,1,7.9,51a.86.86,0,0,1,.06.58L7.42,55a.91.91,0,0,1-.25.54.59.59,0,0,1-.51.09.62.62,0,0,1-.46-.24.9.9,0,0,1,0-.59l.15-1L2,53.14l-.16,1a.85.85,0,0,1-.24.54.6.6,0,0,1-.51.09.59.59,0,0,1-.46-.24.89.89,0,0,1-.06-.59l.55-3.44a.83.83,0,0,1,.24-.55.62.62,0,0,1,.51-.08.61.61,0,0,1,.46.24.89.89,0,0,1,.06.59Z"/><path d="M2.54,43.89a3,3,0,0,1,1.68-2A3.75,3.75,0,0,1,7,41.79a3.74,3.74,0,0,1,2.25,1.65A3.26,3.26,0,0,1,7.87,48a3.75,3.75,0,0,1-2.79.13,3.77,3.77,0,0,1-2.25-1.66A3.08,3.08,0,0,1,2.54,43.89Zm1.3.39a1.43,1.43,0,0,0,.24,1.32,2.92,2.92,0,0,0,1.49.9,2.92,2.92,0,0,0,1.76.08,1.41,1.41,0,0,0,.93-.95A1.37,1.37,0,0,0,8,44.31a2.9,2.9,0,0,0-1.5-.91,2.88,2.88,0,0,0-1.75-.08A1.4,1.4,0,0,0,3.84,44.28Z"/><path d="M10.41,36.71,7.48,35.36l-.14.29a.76.76,0,0,1-.37.44A.63.63,0,0,1,6.46,36a.64.64,0,0,1-.38-.36.78.78,0,0,1,.09-.57l.7-1.51a.8.8,0,0,1,.37-.44.62.62,0,0,1,.52.06.61.61,0,0,1,.36.34.57.57,0,0,1,0,.49l0,.09,4.83,2.23c.17.08.26.14.29.2s0,.14-.05.27l-.24.53a1,1,0,0,1-.22.34.54.54,0,0,1-.27.09l-4.91.41,2.89,1.34.14-.31a.85.85,0,0,1,.36-.43.63.63,0,0,1,.51,0,.7.7,0,0,1,.39.36.86.86,0,0,1-.09.56L11,41.3a.8.8,0,0,1-.37.44.66.66,0,0,1-.52-.05.64.64,0,0,1-.36-.34.6.6,0,0,1,0-.5l0-.08-4-1.84,0,.09a.6.6,0,0,1-.35.35.65.65,0,0,1-.5,0A.66.66,0,0,1,4.56,39a.87.87,0,0,1,.09-.56l.41-.87a.81.81,0,0,1,.27-.39A1.1,1.1,0,0,1,5.78,37Z"/><path d="M15.19,23.41l1,.87,1.24-1.46-1-.87-.07.07a.63.63,0,0,1-.43.26.65.65,0,0,1-.48-.18.63.63,0,0,1-.26-.46.82.82,0,0,1,.25-.53l1-1.15a.83.83,0,0,1,.48-.33.65.65,0,0,1,.57,1.09l-.06.08,3.32,2.83.07-.07a.63.63,0,0,1,.43-.26.6.6,0,0,1,.47.18.69.69,0,0,1,.27.45.94.94,0,0,1-.26.54l-1,1.15a.93.93,0,0,1-.49.34.66.66,0,0,1-.49-.2.61.61,0,0,1-.25-.43.68.68,0,0,1,.19-.47l.06-.08-1.31-1.12L17.2,25.12l1.32,1.12.06-.07a.65.65,0,0,1,.44-.26.57.57,0,0,1,.46.18.61.61,0,0,1,.27.45.87.87,0,0,1-.25.53l-1,1.16a1,1,0,0,1-.49.34.66.66,0,0,1-.49-.2.61.61,0,0,1-.25-.43.65.65,0,0,1,.19-.47l.06-.08-3.33-2.83-.06.07a.65.65,0,0,1-.43.26.68.68,0,0,1-.47-.19.61.61,0,0,1-.27-.45.77.77,0,0,1,.25-.53l1-1.15a.91.91,0,0,1,.48-.34.77.77,0,0,1,.75.63.66.66,0,0,1-.19.48Z"/><path d="M20.69,17.57l2,2.28a1.85,1.85,0,0,0,1,.68,1.17,1.17,0,0,0,.94-.38,1.12,1.12,0,0,0,.47-.89,1.78,1.78,0,0,0-.55-1.05l-2-2.28-.07.06a.57.57,0,0,1-.9-.06.6.6,0,0,1-.21-.48.83.83,0,0,1,.31-.49l1.1-1a.85.85,0,0,1,.52-.26.63.63,0,0,1,.45.26.67.67,0,0,1,.21.47.61.61,0,0,1-.25.43l-.07.07,2,2.27a3,3,0,0,1,.94,2,2.74,2.74,0,0,1-1.08,1.86,2.93,2.93,0,0,1-2,.93,3,3,0,0,1-1.91-1.18l-2-2.26-.07.06a.67.67,0,0,1-.47.2.63.63,0,0,1-.44-.25.64.64,0,0,1-.21-.48.87.87,0,0,1,.33-.5l1.12-1a.87.87,0,0,1,.53-.26.63.63,0,0,1,.46.25.67.67,0,0,1,.2.47.69.69,0,0,1-.25.45Z"/><path d="M30.84,12.22a2,2,0,0,1,1.13,0,1.64,1.64,0,0,1,.83.69,1.91,1.91,0,0,1,.33.95,2,2,0,0,1-.21,1,1.85,1.85,0,0,1-.39.55,5,5,0,0,1-.77.62l-.41.27-2.13,1.44a.82.82,0,0,1-.54.18.65.65,0,0,1-.42-.32.56.56,0,0,1,.17-.87l.08-.06-2.45-3.62-.08,0a.61.61,0,0,1-.48.13.64.64,0,0,1-.4-.31.67.67,0,0,1-.14-.51.84.84,0,0,1,.37-.43l2.24-1.51a3.07,3.07,0,0,1,1.82-.65,1.62,1.62,0,0,1,1.32.8,1.66,1.66,0,0,1,.29.78A1.53,1.53,0,0,1,30.84,12.22Zm-3.6,0,.82,1.23.66-.45a2.14,2.14,0,0,0,.75-.71.61.61,0,0,0-.08-.64.62.62,0,0,0-.53-.31,1.66,1.66,0,0,0-.82.34Zm1.48,2.2,1,1.48.73-.49a3,3,0,0,0,1-.9.7.7,0,0,0-.06-.78.71.71,0,0,0-.69-.37,2.73,2.73,0,0,0-1.17.54Z"/></svg>