<svg width="152" height="44" viewBox="0 0 152 44" fill="none" xmlns="http://www.w3.org/2000/svg">
<path fill-rule="evenodd" clip-rule="evenodd" d="M40.7389 25.4339L37.1886 12.0737C37.105 11.8216 36.938 11.6116 36.6456 11.5276C35.3507 11.1074 33.5964 10.4352 31.8004 9.55293C29.2107 8.25053 26.8716 6.44396 25.9527 5.68772C25.7021 5.47766 25.368 5.43564 25.0756 5.6037L11.4171 12.4518C11.25 12.5359 11.1247 12.6619 11.0412 12.83V12.872L5.61123 25.686C5.27708 26.5683 5.56947 27.5766 6.36308 28.1648L19.8127 37.7438C20.5645 38.2899 21.3999 38.5 22.277 38.5C22.653 38.5 23.0707 38.416 23.4466 38.332C23.4883 38.332 23.5301 38.2899 23.5301 38.2899C23.6972 38.2479 23.8225 38.2059 23.9896 38.1219C24.0301 38.1015 24.0731 38.0811 24.1174 38.0601L24.1174 38.0601C24.2556 37.9946 24.406 37.9232 24.5326 37.8278L39.82 27.5766C40.5301 27.0724 40.8642 26.2742 40.7389 25.4339ZM29.7537 23.3753L29.503 25.8961L30.6726 25.1398L30.422 27.7447L29.2942 28.5009L28.8765 32.6182L27.5399 33.5425L27.9576 29.4252L26.6628 30.2654L26.2451 34.4248L24.8667 35.349L25.2844 31.1897L24.1566 31.946L24.4072 29.2991L25.5768 28.5429L25.8274 25.9801L24.6578 26.7363L24.9085 24.1315L26.0362 23.4173L26.4121 19.4681L27.7905 18.5858L27.4146 22.535L28.7094 21.6948L29.0854 17.7875L30.422 16.9473L30.046 20.8545L31.1738 20.1403L30.9232 22.7031L29.7537 23.3753ZM26.7463 28.0388L28.25 27.0304L28.5424 23.8374L27.0387 24.8037L26.7463 28.0388ZM109.736 16.4728C109.559 16.5778 109.395 16.7352 109.242 16.9452C108.704 16.606 108.122 16.3557 107.496 16.1942C106.878 16.0246 106.212 15.9398 105.497 15.9398C104.309 15.9398 103.185 16.2427 102.125 16.8483C101.066 17.4539 100.235 18.318 99.6326 19.4404C99.0385 20.5548 98.7415 21.758 98.7415 23.05V24.7337C98.7415 25.9692 99.0746 27.1118 99.741 28.1616C100.407 29.2033 101.214 29.9664 102.161 30.4509C103.334 31.0565 104.65 31.3593 106.111 31.3593C107.364 31.3593 108.508 31.1413 109.543 30.7053C110.314 30.3822 110.944 29.9381 111.434 29.3729C111.771 28.9852 111.94 28.6219 111.94 28.2827C111.94 27.9436 111.815 27.6488 111.567 27.3985C111.318 27.1481 111.029 27.023 110.699 27.023C110.515 27.023 110.35 27.0634 110.206 27.1441C110.061 27.2168 109.861 27.3823 109.604 27.6407C109.186 28.0687 108.793 28.3554 108.423 28.5007C107.789 28.7511 107.015 28.8762 106.099 28.8762C104.566 28.8762 103.366 28.4765 102.499 27.6771C101.64 26.8776 101.21 25.8804 101.21 24.6852V23.0742C101.21 22.0729 101.447 21.2089 101.921 20.4821C102.394 19.7553 102.94 19.2305 103.558 18.9075C104.177 18.5844 104.855 18.4229 105.594 18.4229C106.188 18.4229 106.778 18.532 107.364 18.75C107.958 18.968 108.419 19.2587 108.749 19.6221C108.917 19.8078 109.03 20.0703 109.086 20.4094C109.182 20.9182 109.331 21.2654 109.531 21.4511C109.732 21.6369 109.997 21.7297 110.326 21.7297C110.687 21.7297 110.98 21.6046 111.205 21.3542C111.438 21.0958 111.554 20.6678 111.554 20.0703V17.9627C111.554 17.3651 111.438 16.9412 111.205 16.6908C110.98 16.4405 110.687 16.3153 110.326 16.3153C110.117 16.3153 109.921 16.3678 109.736 16.4728ZM52.0351 26.9988H58.0321L58.6222 28.5128H58.0201C57.426 28.5128 57.0005 28.6299 56.7436 28.8641C56.4947 29.0902 56.3703 29.385 56.3703 29.7483C56.3703 30.1198 56.4947 30.4226 56.7436 30.6568C57.0005 30.8829 57.426 30.996 58.0201 30.996H61.3438C61.9379 30.996 62.3593 30.8829 62.6082 30.6568C62.8571 30.4226 62.9815 30.1238 62.9815 29.7605C62.9815 29.3244 62.7969 28.9731 62.4276 28.7067C62.2429 28.5774 61.8616 28.5128 61.2836 28.5128L56.3703 16.3153L51.0355 16.3032C50.4415 16.3032 50.016 16.4203 49.7591 16.6545C49.5102 16.8806 49.3857 17.1794 49.3857 17.5508C49.3857 17.9223 49.5102 18.2251 49.7591 18.4593C50.016 18.6854 50.4415 18.7984 51.0355 18.7984H52.6492L48.7716 28.5128C48.1614 28.4967 47.7239 28.6057 47.459 28.8399C47.194 29.0741 47.0616 29.3769 47.0616 29.7483C47.0616 30.1198 47.19 30.4226 47.4469 30.6568C47.6958 30.8829 48.1173 30.996 48.7114 30.996H52.0351C52.6292 30.996 53.0506 30.8829 53.2995 30.6568C53.5564 30.4226 53.6849 30.1238 53.6849 29.7605C53.6849 29.389 53.5564 29.0902 53.2995 28.8641C53.0506 28.6299 52.6292 28.5128 52.0351 28.5128H51.4329L52.0351 26.9988ZM55.0216 19.5979L57.0085 24.5156H53.0225L55.0216 19.5979ZM68.7118 28.5128V21.003L75.0581 30.996H77.5026V18.7984C78.0165 18.7984 78.3978 18.6813 78.6467 18.4472C78.8955 18.213 79.02 17.9142 79.02 17.5508C79.02 17.1794 78.8915 16.8806 78.6346 16.6545C78.3858 16.4284 77.9643 16.3153 77.3702 16.3153L74.1308 16.3032C73.5367 16.3032 73.1112 16.4203 72.8543 16.6545C72.6054 16.8806 72.481 17.1794 72.481 17.5508C72.481 17.9223 72.6054 18.2251 72.8543 18.4593C73.1112 18.6854 73.5367 18.7984 74.1308 18.7984H75.0219V26.272L68.7118 16.3153L65.8577 16.3032C65.2636 16.3032 64.8381 16.4203 64.5812 16.6545C64.3324 16.8806 64.2079 17.1794 64.2079 17.5508C64.2079 17.9223 64.3324 18.2251 64.5812 18.4593C64.8381 18.6854 65.2636 18.7984 65.8577 18.7984H66.2431V28.5128C65.7212 28.5128 65.3359 28.6299 65.087 28.8641C64.8381 29.0983 64.7137 29.393 64.7137 29.7483C64.7137 30.1198 64.8381 30.4226 65.087 30.6568C65.3439 30.8829 65.7694 30.996 66.3635 30.996H69.6029C70.197 30.996 70.6185 30.8829 70.8673 30.6568C71.1242 30.4226 71.2527 30.1238 71.2527 29.7605C71.2527 29.389 71.1242 29.0902 70.8673 28.8641C70.6185 28.6299 70.197 28.5128 69.6029 28.5128H68.7118ZM89.8321 24.8306V28.5128H91.4939C92.088 28.5128 92.5095 28.6299 92.7583 28.8641C93.0153 29.0902 93.1437 29.389 93.1437 29.7605C93.1437 30.1238 93.0153 30.4226 92.7583 30.6568C92.5095 30.8829 92.088 30.996 91.4939 30.996H85.7015C85.1155 30.996 84.694 30.8829 84.4371 30.6568C84.1882 30.4226 84.0638 30.1198 84.0638 29.7483C84.0638 29.385 84.1882 29.0902 84.4371 28.8641C84.694 28.6299 85.1155 28.5128 85.7015 28.5128H87.3634V24.8306L83.281 18.7984C82.7351 18.7984 82.3337 18.6813 82.0768 18.4472C81.8279 18.213 81.7035 17.9142 81.7035 17.5508C81.7035 17.1794 81.8279 16.8806 82.0768 16.6545C82.3337 16.4203 82.7592 16.3032 83.3533 16.3032L85.5932 16.3153C86.1873 16.3153 86.6087 16.4284 86.8576 16.6545C87.1145 16.8806 87.243 17.1794 87.243 17.5508C87.243 18.108 86.9178 18.5239 86.2675 18.7984L88.6037 22.2627L90.8918 18.7984C90.5305 18.6612 90.2736 18.4875 90.1211 18.2776C89.9685 18.0676 89.8923 17.8254 89.8923 17.5508C89.8923 17.1794 90.0167 16.8806 90.2656 16.6545C90.5225 16.4284 90.948 16.3113 91.5421 16.3032L93.8662 16.3153C94.4603 16.3153 94.8818 16.4284 95.1307 16.6545C95.3876 16.8806 95.516 17.1794 95.516 17.5508C95.516 17.9223 95.3876 18.2251 95.1307 18.4593C94.8738 18.6854 94.4563 18.7984 93.8783 18.7984L89.8321 24.8306ZM125.172 26.9988H119.175L118.573 28.5128H119.175C119.769 28.5128 120.191 28.6299 120.44 28.8641C120.697 29.0902 120.825 29.389 120.825 29.7605C120.825 30.1238 120.697 30.4226 120.44 30.6568C120.191 30.8829 119.769 30.996 119.175 30.996H115.852C115.258 30.996 114.836 30.8829 114.587 30.6568C114.33 30.4226 114.202 30.1198 114.202 29.7483C114.202 29.3769 114.334 29.0741 114.599 28.8399C114.864 28.6057 115.302 28.4967 115.912 28.5128L119.79 18.7984H118.176C117.582 18.7984 117.156 18.6854 116.899 18.4593C116.65 18.2251 116.526 17.9223 116.526 17.5508C116.526 17.1794 116.65 16.8806 116.899 16.6545C117.156 16.4203 117.582 16.3032 118.176 16.3032L123.511 16.3153L128.424 28.5128C129.002 28.5128 129.383 28.5774 129.568 28.7067C129.937 28.9731 130.122 29.3244 130.122 29.7605C130.122 30.1238 129.997 30.4226 129.749 30.6568C129.5 30.8829 129.078 30.996 128.484 30.996H125.16C124.566 30.996 124.141 30.8829 123.884 30.6568C123.635 30.4226 123.511 30.1198 123.511 29.7483C123.511 29.385 123.635 29.0902 123.884 28.8641C124.141 28.6299 124.566 28.5128 125.16 28.5128H125.763L125.172 26.9988ZM124.149 24.5156L122.162 19.5979L120.163 24.5156H124.149ZM137.514 28.5128V25.9571H139.85C140.846 25.9571 141.644 25.84 142.247 25.6058C142.857 25.3635 143.451 25.0082 144.029 24.5399C144.615 24.0634 145.032 23.583 145.281 23.0985C145.61 22.4524 145.775 21.7661 145.775 21.0393C145.775 19.723 145.285 18.6087 144.306 17.6962C143.334 16.7756 142.014 16.3153 140.344 16.3153L134.66 16.3032C134.066 16.3032 133.64 16.4203 133.383 16.6545C133.134 16.8806 133.01 17.1794 133.01 17.5508C133.01 17.9223 133.134 18.2251 133.383 18.4593C133.64 18.6854 134.066 18.7984 134.66 18.7984H135.045V28.5128H134.66C134.074 28.5128 133.652 28.6299 133.395 28.8641C133.139 29.0902 133.01 29.385 133.01 29.7483C133.01 30.1198 133.134 30.4226 133.383 30.6568C133.64 30.8829 134.066 30.996 134.66 30.996H140.007C140.601 30.996 141.022 30.8829 141.271 30.6568C141.528 30.4226 141.656 30.1238 141.656 29.7605C141.656 29.389 141.528 29.0902 141.271 28.8641C141.022 28.6299 140.601 28.5128 140.007 28.5128H137.514ZM139.802 23.474H137.514V18.7984H140.356C141.303 18.7984 142.03 19.0165 142.536 19.4525C143.049 19.8886 143.306 20.3973 143.306 20.9787C143.306 21.6651 142.989 22.2546 142.355 22.7472C141.729 23.2317 140.878 23.474 139.802 23.474Z" fill="black"/>
</svg>
