<svg width="197" height="61" viewBox="0 0 197 61" fill="none" xmlns="http://www.w3.org/2000/svg">
<path d="M2 6C2 3.79086 3.79086 2 6 2H180.92C181.305 2 181.687 2.05551 182.056 2.16481L192.136 5.15151C193.835 5.65477 195 7.21524 195 8.9867V55C195 57.2091 193.209 59 191 59H14.9005C13.6979 59 12.5592 58.459 11.7995 57.5267L2.89906 46.6034C2.31755 45.8897 2 44.9973 2 44.0767V6Z" fill="white"/>
<rect x="2" y="2" width="180" height="44" rx="4" stroke="black" stroke-width="3"/>
<path fill-rule="evenodd" clip-rule="evenodd" d="M2 42V44.0767C2 44.9973 2.31755 45.8897 2.89906 46.6034L11.7995 57.5267C12.5592 58.459 13.6979 59 14.9005 59H191C193.209 59 195 57.2091 195 55V53.9716C193.516 55.1401 191.245 55.2451 189.672 53.6716L183.172 47.1716C182.421 46.4214 181.404 46 180.343 46H6C3.79086 46 2 44.2091 2 42Z" fill="black"/>
<path d="M2.89906 46.6034L2.12382 47.2351L2.12383 47.2351L2.89906 46.6034ZM11.7995 57.5267L12.5748 56.895L11.7995 57.5267ZM195 53.9716H196V51.9112L194.381 53.186L195 53.9716ZM183.172 47.1716L182.464 47.8787V47.8787L183.172 47.1716ZM3 44.0767V42H1V44.0767H3ZM3.6743 45.9717C3.23816 45.4365 3 44.7671 3 44.0767H1C1 45.2274 1.39693 46.343 2.12382 47.2351L3.6743 45.9717ZM12.5748 56.895L3.6743 45.9717L2.12383 47.2351L11.0243 58.1584L12.5748 56.895ZM14.9005 58C13.9985 58 13.1445 57.5942 12.5748 56.895L11.0243 58.1584C11.9738 59.3237 13.3973 60 14.9005 60V58ZM191 58H14.9005V60H191V58ZM194 55C194 56.6569 192.657 58 191 58V60C193.761 60 196 57.7614 196 55H194ZM194 53.9716V55H196V53.9716H194ZM194.381 53.186C193.248 54.0787 191.553 54.1383 190.379 52.9645L188.964 54.3787C190.938 56.3519 193.785 56.2016 195.619 54.7572L194.381 53.186ZM190.379 52.9645L183.879 46.4645L182.464 47.8787L188.964 54.3787L190.379 52.9645ZM183.879 46.4645C182.941 45.5268 181.669 45 180.343 45V47C181.139 47 181.902 47.3161 182.464 47.8787L183.879 46.4645ZM180.343 45H6V47H180.343V45ZM6 45C4.34315 45 3 43.6569 3 42H1C1 44.7614 3.23858 47 6 47V45Z" fill="black"/>
<path d="M2 6C2 3.79086 3.79086 2 6 2H180.92C181.305 2 181.687 2.05551 182.056 2.16481L192.136 5.15151C193.835 5.65477 195 7.21524 195 8.9867V55C195 57.2091 193.209 59 191 59H14.9005C13.6979 59 12.5592 58.459 11.7995 57.5267L2.89906 46.6034C2.31755 45.8897 2 44.9973 2 44.0767V6Z" stroke="black" stroke-width="3"/>
<path d="M54.0271 18.89H50.0451L51.9591 13.94L49.4731 12.972L47.2071 18.89H42.7851L44.6991 13.94L42.2131 12.972L39.9471 18.89H34.9311V21.09H39.0891L37.3951 25.49H32.5771V27.69H36.5591L34.7771 32.31L37.2631 33.278L39.4191 27.69H43.8191L42.0371 32.31L44.5231 33.278L46.6791 27.69H51.6731V25.49H47.5151L49.2091 21.09H54.0271V18.89ZM40.2551 25.49L41.9491 21.09H46.3491L44.6551 25.49H40.2551ZM56.6723 22.234C56.6723 26.766 59.6643 30.22 64.5923 30.22C69.4983 30.22 72.4903 26.766 72.4903 22.234C72.4903 17.724 69.4983 14.27 64.5923 14.27C59.6643 14.27 56.6723 17.724 56.6723 22.234ZM60.1923 22.234C60.1923 19.264 61.6663 17.35 64.5923 17.35C67.5183 17.35 68.9703 19.264 68.9703 22.234C68.9703 25.226 67.5183 27.14 64.5923 27.14C61.6663 27.14 60.1923 25.226 60.1923 22.234ZM86.324 26.92H85.334L81.418 14.49H74.488V30H78.008V17.57H78.998L82.914 30H89.844V14.49H86.324V26.92ZM103.128 30V26.92H95.5822V23.774H102.028V20.694H95.5822V17.57H103.128V14.49H92.0622V30H103.128ZM104.002 22.234C104.002 26.766 107.038 30.22 111.966 30.22C116.3 30.22 119.16 27.844 119.622 23.994H116.102C115.75 26.04 114.122 27.14 112.01 27.14C109.304 27.14 107.522 25.446 107.522 22.234C107.522 19.044 109.304 17.35 112.01 17.35C114.122 17.35 115.75 18.428 116.102 20.474H119.622C119.16 16.646 116.3 14.27 111.966 14.27C107.038 14.27 104.002 17.724 104.002 22.234ZM136.056 30L130.798 14.49H125.078L119.842 30H123.406L124.682 26.128H131.216L132.492 30H136.056ZM127.498 17.57H128.378L130.182 23.048H125.694L127.498 17.57ZM143.175 14.49H137.609V30H141.129V25.38H143.175C147.091 25.38 150.083 24.632 150.083 19.924C150.083 15.238 147.091 14.49 143.175 14.49ZM141.129 22.3V17.57H143.395C145.485 17.57 146.563 17.79 146.563 19.924C146.563 22.08 145.485 22.3 143.395 22.3H141.129Z" fill="black"/>
<circle cx="186" cy="7" r="1" fill="black"/>
<circle cx="186" cy="11" r="1" fill="black"/>
<circle cx="186" cy="15" r="1" fill="black"/>
<circle cx="186" cy="19" r="1" fill="black"/>
<circle cx="186" cy="23" r="1" fill="black"/>
<circle cx="186" cy="27" r="1" fill="black"/>
<circle cx="186" cy="31" r="1" fill="black"/>
<circle cx="186" cy="35" r="1" fill="black"/>
<circle cx="186" cy="39" r="1" fill="black"/>
<circle cx="186" cy="43" r="1" fill="black"/>
<circle cx="186" cy="47" r="1" fill="black"/>
<circle cx="186" cy="51" r="1" fill="black"/>
<circle cx="190" cy="7" r="1" fill="black"/>
<circle cx="190" cy="11" r="1" fill="black"/>
<circle cx="190" cy="15" r="1" fill="black"/>
<circle cx="190" cy="19" r="1" fill="black"/>
<circle cx="190" cy="23" r="1" fill="black"/>
<circle cx="190" cy="27" r="1" fill="black"/>
<circle cx="190" cy="31" r="1" fill="black"/>
<circle cx="190" cy="35" r="1" fill="black"/>
<circle cx="190" cy="39" r="1" fill="black"/>
<circle cx="190" cy="43" r="1" fill="black"/>
<circle cx="190" cy="47" r="1" fill="black"/>
<circle cx="190" cy="51" r="1" fill="black"/>
<circle cx="194" cy="7" r="1" fill="black"/>
<circle cx="194" cy="11" r="1" fill="black"/>
<circle cx="194" cy="15" r="1" fill="black"/>
<circle cx="194" cy="19" r="1" fill="black"/>
<circle cx="194" cy="23" r="1" fill="black"/>
<circle cx="194" cy="27" r="1" fill="black"/>
<circle cx="194" cy="31" r="1" fill="black"/>
<circle cx="194" cy="35" r="1" fill="black"/>
<circle cx="194" cy="39" r="1" fill="black"/>
<circle cx="194" cy="43" r="1" fill="black"/>
<circle cx="194" cy="47" r="1" fill="black"/>
<circle cx="194" cy="51" r="1" fill="black"/>
</svg>
