<svg width="407" height="118" viewBox="0 0 407 118" fill="none" xmlns="http://www.w3.org/2000/svg">
<path fill-rule="evenodd" clip-rule="evenodd" d="M109.625 68.2091L100.071 32.3795C99.8463 31.7035 99.3967 31.1401 98.6099 30.9148C95.1257 29.7881 90.405 27.9853 85.5719 25.6192C78.6034 22.1264 72.3092 17.2815 69.8364 15.2534C69.1621 14.6901 68.2629 14.5774 67.4761 15.0281L30.7225 33.3936C30.2729 33.6189 29.9357 33.9569 29.7109 34.4076V34.5203L15.0994 68.8852C14.2002 71.2513 14.987 73.9554 17.1225 75.5328L53.3142 101.222C55.3373 102.687 57.5852 103.25 59.9456 103.25C60.9571 103.25 62.0811 103.025 63.0927 102.799C63.2051 102.799 63.3174 102.687 63.3174 102.687C63.767 102.574 64.1042 102.461 64.5538 102.236C64.6629 102.181 64.7786 102.127 64.8977 102.07C65.2695 101.895 65.6745 101.703 66.015 101.447L107.152 73.9554C109.063 72.6033 109.962 70.4626 109.625 68.2091ZM80.0644 62.6883L79.39 69.4486L82.5371 67.4205L81.8628 74.4062L78.8281 76.4343L77.7041 87.4761L74.1074 89.9549L75.2314 78.9131L71.7471 81.1665L70.6231 92.321L66.914 94.7998L68.038 83.6453L65.0033 85.6734L65.6777 78.575L68.8248 76.547L69.4992 69.674L66.3521 71.7021L67.0264 64.7164L70.0611 62.801L71.0727 52.2099L74.7818 49.8438L73.7702 60.4349L77.2545 58.1815L78.2661 47.703L81.8628 45.4496L80.8512 55.928L83.8859 54.0126L83.2115 60.8856L80.0644 62.6883ZM71.9719 75.1949L76.0182 72.4908L76.8049 63.9277L72.7587 66.5192L71.9719 75.1949ZM295.29 44.177C294.815 44.4585 294.372 44.8808 293.961 45.4439C292.514 44.5343 290.948 43.863 289.263 43.4299C287.599 42.9751 285.806 42.7477 283.883 42.7477C280.686 42.7477 277.662 43.5598 274.81 45.184C271.958 46.8082 269.723 49.1254 268.102 52.1356C266.504 55.1242 265.704 58.3509 265.704 61.8159V66.3312C265.704 69.6446 266.601 72.7089 268.394 75.5242C270.187 78.3178 272.358 80.3643 274.907 81.6637C278.061 83.2879 281.604 84.1 285.536 84.1C288.906 84.1 291.985 83.5153 294.771 82.3459C296.845 81.4796 298.541 80.2885 299.859 78.7726C300.766 77.7331 301.22 76.7586 301.22 75.849C301.22 74.9395 300.885 74.149 300.215 73.4777C299.546 72.8064 298.768 72.4707 297.882 72.4707C297.385 72.4707 296.943 72.579 296.554 72.7955C296.165 72.9904 295.625 73.4344 294.933 74.1274C293.81 75.2752 292.752 76.0439 291.758 76.4338C290.051 77.1051 287.966 77.4408 285.504 77.4408C281.377 77.4408 278.148 76.3688 275.815 74.2248C273.503 72.0809 272.347 69.4064 272.347 66.2013V61.8809C272.347 59.1955 272.985 56.8783 274.259 54.9293C275.534 52.9802 277.003 51.5726 278.666 50.7063C280.33 49.8401 282.155 49.4069 284.143 49.4069C285.741 49.4069 287.329 49.6993 288.906 50.284C290.505 50.8687 291.747 51.6484 292.633 52.6229C293.086 53.121 293.389 53.8248 293.54 54.7343C293.799 56.0987 294.199 57.0299 294.739 57.528C295.279 58.0261 295.992 58.2751 296.878 58.2751C297.85 58.2751 298.638 57.9394 299.243 57.2681C299.87 56.5751 300.183 55.4273 300.183 53.8248V48.1726C300.183 46.57 299.87 45.4331 299.243 44.7617C298.638 44.0904 297.85 43.7547 296.878 43.7547C296.316 43.7547 295.787 43.8955 295.29 44.177ZM140.022 72.4057H156.159L157.747 76.4662H156.127C154.528 76.4662 153.383 76.7803 152.692 77.4083C152.022 78.0146 151.687 78.8051 151.687 79.7796C151.687 80.7758 152.022 81.5879 152.692 82.2159C153.383 82.8223 154.528 83.1255 156.127 83.1255H165.071C166.669 83.1255 167.803 82.8223 168.473 82.2159C169.143 81.5879 169.478 80.7866 169.478 79.8121C169.478 78.6427 168.981 77.7006 167.987 76.986C167.49 76.6395 166.464 76.4662 164.909 76.4662L151.687 43.7547L137.332 43.7222C135.733 43.7222 134.588 44.0362 133.897 44.6643C133.227 45.2706 132.893 46.0719 132.893 47.0681C132.893 48.0643 133.227 48.8764 133.897 49.5044C134.588 50.1108 135.733 50.414 137.332 50.414H141.674L131.24 76.4662C129.598 76.4229 128.421 76.7153 127.708 77.3433C126.995 77.9713 126.639 78.7834 126.639 79.7796C126.639 80.7758 126.984 81.5879 127.675 82.2159C128.345 82.8223 129.479 83.1255 131.078 83.1255H140.022C141.62 83.1255 142.754 82.8223 143.424 82.2159C144.115 81.5879 144.461 80.7866 144.461 79.8121C144.461 78.8159 144.115 78.0146 143.424 77.4083C142.754 76.7803 141.62 76.4662 140.022 76.4662H138.401L140.022 72.4057ZM148.058 52.5579L153.405 65.7465H142.679L148.058 52.5579ZM184.897 76.4662V56.3261L201.974 83.1255H208.553V50.414C209.935 50.414 210.961 50.0999 211.631 49.4719C212.301 48.8439 212.636 48.0426 212.636 47.0681C212.636 46.0719 212.29 45.2706 211.599 44.6643C210.929 44.0579 209.795 43.7547 208.196 43.7547L199.479 43.7222C197.881 43.7222 196.736 44.0362 196.044 44.6643C195.375 45.2706 195.04 46.0719 195.04 47.0681C195.04 48.0643 195.375 48.8764 196.044 49.5044C196.736 50.1108 197.881 50.414 199.479 50.414H201.877V70.4567L184.897 43.7547L177.217 43.7222C175.619 43.7222 174.474 44.0362 173.782 44.6643C173.113 45.2706 172.778 46.0719 172.778 47.0681C172.778 48.0643 173.113 48.8764 173.782 49.5044C174.474 50.1108 175.619 50.414 177.217 50.414H178.254V76.4662C176.85 76.4662 175.813 76.7803 175.143 77.4083C174.474 78.0363 174.139 78.8268 174.139 79.7796C174.139 80.7758 174.474 81.5879 175.143 82.2159C175.835 82.8223 176.98 83.1255 178.578 83.1255H187.295C188.894 83.1255 190.028 82.8223 190.698 82.2159C191.389 81.5879 191.735 80.7866 191.735 79.8121C191.735 78.8159 191.389 78.0146 190.698 77.4083C190.028 76.7803 188.894 76.4662 187.295 76.4662H184.897ZM241.73 66.5911V76.4662H246.202C247.8 76.4662 248.935 76.7803 249.604 77.4083C250.296 78.0146 250.641 78.8159 250.641 79.8121C250.641 80.7866 250.296 81.5879 249.604 82.2159C248.935 82.8223 247.8 83.1255 246.202 83.1255H230.615C229.038 83.1255 227.904 82.8223 227.213 82.2159C226.543 81.5879 226.208 80.7758 226.208 79.7796C226.208 78.8051 226.543 78.0146 227.213 77.4083C227.904 76.7803 229.038 76.4662 230.615 76.4662H235.087V66.5911L224.102 50.414C222.633 50.414 221.553 50.0999 220.861 49.4719C220.192 48.8439 219.857 48.0426 219.857 47.0681C219.857 46.0719 220.192 45.2706 220.861 44.6643C221.553 44.0362 222.698 43.7222 224.296 43.7222L230.324 43.7547C231.922 43.7547 233.056 44.0579 233.726 44.6643C234.417 45.2706 234.763 46.0719 234.763 47.0681C234.763 48.5624 233.888 49.6777 232.138 50.414L238.425 59.7044L244.582 50.414C243.609 50.0458 242.918 49.5802 242.508 49.0171C242.097 48.4541 241.892 47.8044 241.892 47.0681C241.892 46.0719 242.227 45.2706 242.897 44.6643C243.588 44.0579 244.733 43.7439 246.331 43.7222L252.586 43.7547C254.184 43.7547 255.318 44.0579 255.988 44.6643C256.679 45.2706 257.025 46.0719 257.025 47.0681C257.025 48.0643 256.679 48.8764 255.988 49.5044C255.297 50.1108 254.173 50.414 252.618 50.414L241.73 66.5911ZM336.828 72.4057H320.69L319.07 76.4662H320.69C322.289 76.4662 323.423 76.7803 324.093 77.4083C324.784 78.0146 325.13 78.8159 325.13 79.8121C325.13 80.7866 324.784 81.5879 324.093 82.2159C323.423 82.8223 322.289 83.1255 320.69 83.1255H311.746C310.148 83.1255 309.014 82.8223 308.344 82.2159C307.653 81.5879 307.307 80.7758 307.307 79.7796C307.307 78.7834 307.663 77.9713 308.376 77.3433C309.089 76.7153 310.267 76.4229 311.908 76.4662L322.343 50.414H318.001C316.402 50.414 315.257 50.1108 314.566 49.5044C313.896 48.8764 313.561 48.0643 313.561 47.0681C313.561 46.0719 313.896 45.2706 314.566 44.6643C315.257 44.0362 316.402 43.7222 318.001 43.7222L332.356 43.7547L345.577 76.4662C347.132 76.4662 348.159 76.6395 348.655 76.986C349.649 77.7006 350.146 78.6427 350.146 79.8121C350.146 80.7866 349.811 81.5879 349.142 82.2159C348.472 82.8223 347.338 83.1255 345.739 83.1255H336.795C335.197 83.1255 334.052 82.8223 333.36 82.2159C332.691 81.5879 332.356 80.7758 332.356 79.7796C332.356 78.8051 332.691 78.0146 333.36 77.4083C334.052 76.7803 335.197 76.4662 336.795 76.4662H338.416L336.828 72.4057ZM334.073 65.7465L328.727 52.5579L323.347 65.7465H334.073ZM370.037 76.4662V69.6121H376.324C379.003 69.6121 381.152 69.2981 382.773 68.67C384.414 68.0204 386.013 67.0675 387.568 65.8114C389.145 64.5337 390.269 63.2452 390.939 61.9458C391.824 60.2133 392.267 58.3726 392.267 56.4235C392.267 52.8936 390.949 49.905 388.314 47.4579C385.7 44.9891 382.146 43.7547 377.653 43.7547L362.358 43.7222C360.759 43.7222 359.614 44.0362 358.923 44.6643C358.253 45.2706 357.918 46.0719 357.918 47.0681C357.918 48.0643 358.253 48.8764 358.923 49.5044C359.614 50.1108 360.759 50.414 362.358 50.414H363.394V76.4662H362.358C360.78 76.4662 359.646 76.7803 358.955 77.4083C358.264 78.0146 357.918 78.8051 357.918 79.7796C357.918 80.7758 358.253 81.5879 358.923 82.2159C359.614 82.8223 360.759 83.1255 362.358 83.1255H376.745C378.344 83.1255 379.478 82.8223 380.148 82.2159C380.839 81.5879 381.185 80.7866 381.185 79.8121C381.185 78.8159 380.839 78.0146 380.148 77.4083C379.478 76.7803 378.344 76.4662 376.745 76.4662H370.037ZM376.194 62.9528H370.037V50.414H377.685C380.234 50.414 382.189 50.9987 383.55 52.1681C384.933 53.3375 385.624 54.7019 385.624 56.2611C385.624 58.1019 384.771 59.6828 383.064 61.0038C381.379 62.3032 379.089 62.9528 376.194 62.9528Z" fill="white"/>
</svg>
