<svg width="32" height="32" viewBox="0 0 32 32" fill="none" xmlns="http://www.w3.org/2000/svg">
<path fill-rule="evenodd" clip-rule="evenodd" d="M26.7266 8.21727L29.5521 18.788C29.6518 19.4528 29.3859 20.0844 28.8208 20.4833L16.6545 28.5942C16.5538 28.6697 16.434 28.7262 16.324 28.778C16.2888 28.7946 16.2546 28.8108 16.2223 28.8269C16.0894 28.8934 15.9896 28.9266 15.8567 28.9599C15.8567 28.9599 15.8234 28.9931 15.7902 28.9931C15.491 29.0596 15.1586 29.1261 14.8594 29.1261C14.1614 29.1261 13.4965 28.9599 12.8982 28.5277L2.19448 20.9487C1.56289 20.4833 1.33021 19.6855 1.59614 18.9875L5.91751 8.84885V8.81561C5.98399 8.68264 6.08372 8.58292 6.21668 8.51644L17.0866 3.0981C17.3193 2.96513 17.5852 2.99837 17.7847 3.16458C18.516 3.76292 20.3775 5.1923 22.4385 6.22278C23.8678 6.92085 25.264 7.45271 26.2945 7.78513C26.5271 7.85161 26.6601 8.01782 26.7266 8.21727ZM20.6102 19.1537L20.8096 17.1592L21.7404 16.6273L21.9398 14.5996L21.0423 15.1647L21.3415 12.0732L20.2778 12.7381L19.9786 15.8295L18.9481 16.4943L19.2473 13.3697L18.1503 14.0677L17.8511 17.1924L16.9536 17.7575L16.7542 19.8185L17.6849 19.2201L17.4855 21.2479L16.5547 21.8462L16.3553 23.9404L17.2528 23.3421L16.9204 26.633L18.0173 25.9017L18.3498 22.6108L19.3802 21.9459L19.0478 25.2036L20.1115 24.4723L20.444 21.2146L21.3415 20.6163L21.5409 18.5553L20.6102 19.1537ZM19.6129 20.0512L18.4162 20.849L18.6489 18.2894L19.8456 17.5248L19.6129 20.0512Z" fill="black"/>
</svg>
