<svg id="レイヤー_1" data-name="レイヤー 1" xmlns="http://www.w3.org/2000/svg" viewBox="0 0 17.64 18"><defs><style>.cls-1{fill:#4285f4;}.cls-1,.cls-2,.cls-3,.cls-4{fill-rule:evenodd;}.cls-2{fill:#34a853;}.cls-3{fill:#fbbc05;}.cls-4{fill:#ea4335;}.cls-5{fill:none;}</style></defs><g id="Google-Button"><g id="btn_google_dark_normal" data-name="btn google dark normal"><g id="logo_googleg_48dp" data-name="logo googleg 48dp"><path id="Shape" class="cls-1" d="M17.64,9.2a11,11,0,0,0-.16-1.84H9v3.49h4.84a4.12,4.12,0,0,1-1.79,2.71v2.26H15A8.78,8.78,0,0,0,17.64,9.2Z"/><path id="Shape-2" data-name="Shape" class="cls-2" d="M9,18a8.62,8.62,0,0,0,6-2.18l-2.91-2.26A5.43,5.43,0,0,1,9,14.42a5.37,5.37,0,0,1-5-3.71H1V13a9,9,0,0,0,8,5Z"/><path id="Shape-3" data-name="Shape" class="cls-3" d="M4,10.71A5.36,5.36,0,0,1,4,7.29V5H1A9,9,0,0,0,1,13l3-2.33Z"/><path id="Shape-4" data-name="Shape" class="cls-4" d="M9,3.58a4.83,4.83,0,0,1,3.44,1.35L15,2.34A8.65,8.65,0,0,0,9,0,9,9,0,0,0,1,5L4,7.29A5.37,5.37,0,0,1,9,3.58Z"/><path id="Shape-5" data-name="Shape" class="cls-5" d="M0,0H18V18H0Z"/></g></g></g></svg>