<svg width="37" height="48" viewBox="0 0 37 48" fill="none" xmlns="http://www.w3.org/2000/svg">
<path d="M1.62127 8.48507C1.30569 7.22278 2.26041 6 3.56155 6H29.4384C30.3562 6 31.1561 6.62459 31.3787 7.51493L35.9403 25.7611C35.9799 25.9198 36 26.0827 36 26.2462V45C36 46.1046 35.1046 47 34 47H8C6.89543 47 6 46.1046 6 45V26.2462C6 26.0827 5.97995 25.9198 5.94029 25.7611L1.62127 8.48507Z" fill="white" stroke="#333333" stroke-width="2"/>
<path d="M36 26L31 6L36 1V26Z" fill="white" stroke="#333333" stroke-width="2" stroke-linejoin="round"/>
<path d="M3 6H31L36 1H8.82843C8.29799 1 7.78929 1.21071 7.41421 1.58579L3 6Z" fill="white" stroke="#333333" stroke-width="2" stroke-linejoin="round"/>
<path d="M14.1469 36.0469V38.3984H18.2328V37.5312C18.2328 37.1458 18.3057 36.8724 18.4516 36.7109C18.6026 36.5443 18.7979 36.4609 19.0375 36.4609C19.2719 36.4609 19.462 36.5443 19.6078 36.7109C19.7589 36.8724 19.8344 37.1458 19.8344 37.5312V40H12.2953C11.9099 40 11.6339 39.9271 11.4672 39.7812C11.3057 39.6302 11.225 39.4349 11.225 39.1953C11.225 38.9609 11.3083 38.7708 11.475 38.625C11.6417 38.474 11.9151 38.3984 12.2953 38.3984H12.5453V32.1328H12.2953C11.9099 32.1328 11.6339 32.0599 11.4672 31.9141C11.3057 31.763 11.225 31.5677 11.225 31.3281C11.225 31.0885 11.3057 30.8958 11.4672 30.75C11.6339 30.599 11.9099 30.5234 12.2953 30.5234L19.4828 30.5312V32.9688C19.4828 33.349 19.4099 33.6224 19.2641 33.7891C19.1182 33.9505 18.9255 34.0312 18.6859 34.0312C18.4464 34.0312 18.251 33.9505 18.1 33.7891C17.9542 33.6276 17.8813 33.3542 17.8813 32.9688V32.1328H14.1469V34.4453H15.5531C15.5531 34.0286 15.5922 33.7604 15.6703 33.6406C15.8318 33.3854 16.0609 33.2578 16.3578 33.2578C16.5922 33.2578 16.7823 33.3411 16.9281 33.5078C17.0792 33.6693 17.1547 33.9427 17.1547 34.3281V36.1719C17.1547 36.5208 17.113 36.7552 17.0297 36.875C16.863 37.1198 16.6391 37.2422 16.3578 37.2422C16.0609 37.2422 15.8318 37.1146 15.6703 36.8594C15.5922 36.7396 15.5531 36.4688 15.5531 36.0469H14.1469ZM24.1969 33.5547V38.3984H24.775C25.1604 38.3984 25.4339 38.474 25.5953 38.625C25.762 38.7708 25.8453 38.9635 25.8453 39.2031C25.8453 39.4375 25.762 39.6302 25.5953 39.7812C25.4339 39.9271 25.1604 40 24.775 40H22.6734C22.288 40 22.012 39.9271 21.8453 39.7812C21.6839 39.6302 21.6031 39.4349 21.6031 39.1953C21.6031 38.9661 21.6839 38.776 21.8453 38.625C22.0068 38.474 22.2568 38.3984 22.5953 38.3984V32.1328H22.3453C21.9599 32.1328 21.6839 32.0599 21.5172 31.9141C21.3557 31.763 21.275 31.5677 21.275 31.3281C21.275 31.0885 21.3557 30.8958 21.5172 30.75C21.6839 30.599 21.9599 30.5234 22.3453 30.5234L24.1969 30.5312L28.2906 36.9531V32.1328H27.7125C27.3271 32.1328 27.051 32.0599 26.8844 31.9141C26.7229 31.763 26.6422 31.5677 26.6422 31.3281C26.6422 31.0885 26.7229 30.8958 26.8844 30.75C27.051 30.599 27.3271 30.5234 27.7125 30.5234L29.8141 30.5312C30.1995 30.5312 30.4729 30.6042 30.6344 30.75C30.801 30.8958 30.8844 31.0885 30.8844 31.3281C30.8844 31.5625 30.8036 31.7552 30.6422 31.9062C30.4807 32.0573 30.2333 32.1328 29.9 32.1328V40H28.3141L24.1969 33.5547Z" fill="black"/>
<path d="M10.9133 11.5882V11.6103L10.9197 11.6315C10.9583 11.7598 10.9994 11.8755 11.0439 11.9617C11.0659 12.0043 11.0928 12.0476 11.1262 12.0823C11.1463 12.1031 11.1754 12.1276 11.2132 12.143C11.3119 12.236 11.4298 12.2811 11.5603 12.3033C11.6963 12.3265 11.8589 12.3265 12.0398 12.3265L12.0506 12.3265H13.9725L14.7124 17.1568C14.7124 17.1569 14.7124 17.1569 14.7125 17.157C14.8627 18.1547 14.7813 18.787 14.577 19.1638C14.3824 19.5225 13.9869 19.7576 13.3418 19.7576C12.8969 19.7576 12.4852 19.6741 12.2224 19.456C11.9292 19.2127 11.6474 18.8972 11.5081 18.512L11.5086 18.5119L11.5038 18.5013L11.3899 18.2492L11.2884 18.0247C11.2843 17.9359 11.265 17.8509 11.249 17.7801L11.2476 17.7737C11.2279 17.6865 11.2133 17.619 11.2133 17.5546V17.4706C11.2133 17.3662 11.1899 17.2664 11.1705 17.1915C11.1667 17.1766 11.1632 17.1632 11.1599 17.1509C11.1543 17.1296 11.1494 17.1114 11.1452 17.0935C11.1421 17.0803 11.14 17.07 11.1387 17.062C11.1375 17.0542 11.1373 17.0507 11.1373 17.0504L11.1373 17.0504C11.1373 17.0046 11.1264 16.9642 11.1073 16.929C11.0914 16.8996 11.0712 16.8774 11.0622 16.8676C11.0618 16.8671 11.0613 16.8666 11.0609 16.8661C11.0565 16.7869 11.0208 16.7204 10.9881 16.6721C10.9537 16.6214 10.9097 16.5727 10.874 16.5333L10.8708 16.5297C10.8123 16.465 10.747 16.4276 10.6685 16.4103C10.6046 16.3961 10.5329 16.3962 10.4658 16.3962C10.4624 16.3962 10.459 16.3962 10.4557 16.3962C10.3226 16.3962 10.2203 16.421 10.1362 16.4675C10.0572 16.5112 10.0048 16.5692 9.96823 16.6098C9.96703 16.6111 9.96583 16.6124 9.96466 16.6137C9.92166 16.6613 9.89937 16.7206 9.88691 16.7758C9.87412 16.8324 9.86898 16.8969 9.86898 16.9664C9.86898 17.1045 9.88943 17.2812 9.92758 17.4931L10.1538 19.3287C10.1551 19.6619 10.2273 19.8665 10.3288 19.99C10.4282 20.1902 10.6113 20.2913 10.7499 20.3678C10.7542 20.3702 10.7586 20.3726 10.7628 20.375L10.7728 20.3805L10.7835 20.3844C10.9319 20.4391 11.0773 20.5017 11.2268 20.5661C11.3036 20.5991 11.3815 20.6327 11.4615 20.6659C11.6916 20.7613 11.9314 20.8504 12.1753 20.8954L12.182 20.8966C12.6332 20.9798 13.1002 21.066 13.5696 21.066C14.6439 21.066 15.4715 20.8132 15.8952 20.1615C16.3099 19.6069 16.4534 18.6329 16.2238 17.3613L15.4165 12.3265H16.2278H16.2352C16.419 12.3265 16.5765 12.3265 16.6973 12.3153C16.759 12.3096 16.8182 12.3005 16.8705 12.2842C16.9222 12.2681 16.9788 12.2415 17.0227 12.193C17.0933 12.1149 17.1165 12.0122 17.1269 11.9202C17.1373 11.8277 17.1373 11.7156 17.1373 11.5954V11.5882V11.5559L17.124 11.5265L17.1231 11.5244C17.0858 11.4418 17.0465 11.3548 17.0067 11.2778C16.9676 11.2021 16.9224 11.1246 16.8708 11.0675L16.854 11.0489L16.8321 11.0368C16.827 11.034 16.8219 11.0312 16.8167 11.0283C16.6768 10.9507 16.4951 10.85 16.3038 10.85H15.924H11.8228H11.519C11.3194 10.85 11.1286 10.9561 11.028 11.0675C10.9585 11.1443 10.9346 11.2454 10.924 11.3274C10.9133 11.4106 10.9133 11.5028 10.9133 11.5831L10.9133 11.5882Z" fill="black" stroke="black" stroke-width="0.3"/>
<path d="M19.0379 10.934H18.9713L18.9267 10.9835C18.8561 11.0616 18.8328 11.1643 18.8224 11.2563C18.812 11.3488 18.812 11.4609 18.812 11.5811L18.812 11.5882C18.812 11.7973 18.9068 12.0232 19.1172 12.1397C19.2881 12.2342 19.5408 12.3265 19.8734 12.3265H20.7542L19.3704 19.3374H19.3417H19.3353C19.1886 19.3374 19.0495 19.3374 18.9375 19.3487C18.8802 19.3544 18.8235 19.3637 18.7725 19.38C18.7225 19.3961 18.6664 19.4227 18.6229 19.4709C18.5627 19.5374 18.5327 19.6077 18.5194 19.6961C18.5082 19.7704 18.5082 19.8643 18.5082 19.9794L18.5082 19.9916C18.5082 20.2709 18.5938 20.5056 18.8134 20.6271C18.9844 20.7216 19.237 20.8139 19.5696 20.8139H21.5443C21.7446 20.8139 21.9103 20.7918 22.04 20.7559C22.1645 20.7215 22.273 20.6696 22.3391 20.5964C22.4097 20.5183 22.4329 20.4155 22.4433 20.3236C22.4538 20.2311 22.4538 20.1189 22.4538 19.9987V19.9916C22.4538 19.7826 22.359 19.5566 22.1485 19.4402C21.9776 19.3456 21.725 19.2534 21.3924 19.2534H20.7324L20.989 17.6206H24.5695L25.4678 19.2534H25.0379C24.8727 19.2534 24.7251 19.2761 24.6054 19.3123C24.4912 19.3467 24.3842 19.3988 24.3191 19.4709C24.2496 19.5477 24.2257 19.6488 24.2151 19.7308C24.2044 19.814 24.2044 19.9061 24.2044 19.9864V19.9916C24.2044 20.2709 24.2901 20.5056 24.5096 20.6271C24.6842 20.7236 24.9372 20.8139 25.3417 20.8139H27.3924C27.7234 20.8139 27.9221 20.7216 28.0353 20.5964C28.1059 20.5183 28.1291 20.4155 28.1395 20.3236C28.15 20.2311 28.15 20.1189 28.15 19.9987V19.9916V19.9593L28.1367 19.9298L28.1357 19.9277C28.0984 19.8452 28.0591 19.7582 28.0193 19.6812C27.9802 19.6055 27.935 19.528 27.8834 19.4709C27.8089 19.3884 27.7073 19.361 27.6101 19.349C27.5154 19.3374 27.3938 19.3374 27.2502 19.3374H27.2405H27.1794L23.0462 11.4383C22.96 11.2501 22.7973 11.0702 22.7229 10.9879L22.7189 10.9835L22.7021 10.9649L22.6802 10.9528C22.494 10.8498 22.305 10.8499 22.0293 10.85C22.0196 10.85 22.0098 10.85 22 10.85H19.8734C19.6362 10.85 19.4388 10.8719 19.2914 10.8936C19.2296 10.9027 19.1763 10.9119 19.1339 10.9192C19.126 10.9205 19.1184 10.9218 19.1113 10.923C19.0881 10.927 19.0702 10.9299 19.0562 10.9319C19.045 10.9334 19.0396 10.9339 19.0381 10.934C19.0375 10.934 19.0375 10.934 19.0379 10.934ZM21.4188 16.3962L22.0719 12.6388L24.0311 16.3962H21.4188Z" fill="black" stroke="black" stroke-width="0.3"/>
</svg>
