<svg width="36" height="36" viewBox="0 0 36 36" fill="none" xmlns="http://www.w3.org/2000/svg">
<rect width="32" height="32" transform="translate(2 2)" fill="white"/>
<rect x="2" y="2.66669" width="24.7095" height="24.7018" rx="4" stroke="#333333" stroke-width="3"/>
<path fill-rule="evenodd" clip-rule="evenodd" d="M4 2C2.89543 2 2 2.89543 2 4V26.1838C2 26.3414 2.01863 26.4985 2.05551 26.6517L3.45515 32.4679C3.67141 33.3666 4.47532 34 5.39964 34H32C33.1046 34 34 33.1046 34 32V30.9138C33.3295 31.8927 31.8237 32.1567 30.8822 31.1525L27.3022 27.3339C26.9241 26.9306 26.396 26.7018 25.8431 26.7018H4.00011C2.89555 26.7018 2.00011 25.8063 2.00011 24.7018V4C2.00011 2.89543 2.89554 2 4.00011 2H4Z" fill="#333333"/>
<path d="M2.05551 26.6517L3.02776 26.4178L3.02776 26.4178L2.05551 26.6517ZM3.45515 32.4679L4.42739 32.234L3.45515 32.4679ZM34 30.9138H35V27.6845L33.175 30.3487L34 30.9138ZM30.8822 31.1525L30.1527 31.8364L30.8822 31.1525ZM27.3022 27.3339L28.0317 26.6499L28.0317 26.6499L27.3022 27.3339ZM3 4C3 3.44771 3.44771 3 4 3V1C2.34315 1 1 2.34314 1 4H3ZM3 26.1838V4H1V26.1838H3ZM3.02776 26.4178C3.00932 26.3411 3 26.2626 3 26.1838H1C1 26.4202 1.02795 26.6558 1.08327 26.8857L3.02776 26.4178ZM4.42739 32.234L3.02776 26.4178L1.08327 26.8857L2.4829 32.7019L4.42739 32.234ZM5.39964 33C4.93748 33 4.53552 32.6833 4.42739 32.234L2.4829 32.7019C2.80729 34.0499 4.01316 35 5.39964 35V33ZM32 33H5.39964V35H32V33ZM33 32C33 32.5523 32.5523 33 32 33V35C33.6569 35 35 33.6569 35 32H33ZM33 30.9138V32H35V30.9138H33ZM33.175 30.3487C32.8266 30.8572 32.0701 30.9575 31.6117 30.4685L30.1527 31.8364C31.5773 33.356 33.8323 32.9281 34.825 31.479L33.175 30.3487ZM31.6117 30.4685L28.0317 26.6499L26.5727 28.0178L30.1527 31.8364L31.6117 30.4685ZM28.0317 26.6499C27.4646 26.045 26.6724 25.7018 25.8431 25.7018V27.7018C26.1196 27.7018 26.3836 27.8162 26.5727 28.0178L28.0317 26.6499ZM25.8431 25.7018H4.00011V27.7018H25.8431V25.7018ZM4.00011 25.7018C3.44783 25.7018 3.00011 25.254 3.00011 24.7018H1.00011C1.00011 26.3586 2.34326 27.7018 4.00011 27.7018V25.7018ZM3.00011 24.7018V4H1.00011V24.7018H3.00011ZM3.00011 4C3.00011 3.44771 3.44783 3 4.00011 3V1C2.34326 1 1.00011 2.34314 1.00011 4H3.00011ZM4 3H4.00011V1H4V3Z" fill="#333333"/>
<path d="M2 6C2 3.79086 3.79086 2 6 2H25.914C26.3026 2 26.6891 2.05662 27.0614 2.16808L31.1473 3.39148C32.8403 3.89838 34 5.45618 34 7.2234V30C34 32.2091 32.2091 34 30 34H6.97545C5.12681 34 3.51898 32.7332 3.08647 30.9359L2.11102 26.8824C2.03727 26.5759 2 26.2618 2 25.9465V6Z" stroke="#333333" stroke-width="4"/>
<ellipse cx="28.9528" cy="4.80701" rx="0.560799" ry="0.561403" fill="#333333"/>
<ellipse cx="28.9528" cy="7.05261" rx="0.560799" ry="0.561403" fill="#333333"/>
<ellipse cx="28.9528" cy="9.29828" rx="0.560799" ry="0.561403" fill="#333333"/>
<ellipse cx="28.9528" cy="11.5439" rx="0.560799" ry="0.561403" fill="#333333"/>
<ellipse cx="28.9528" cy="13.7895" rx="0.560799" ry="0.561403" fill="#333333"/>
<ellipse cx="28.9528" cy="16.0351" rx="0.560799" ry="0.561404" fill="#333333"/>
<ellipse cx="28.9528" cy="18.2807" rx="0.560799" ry="0.561402" fill="#333333"/>
<ellipse cx="28.9528" cy="20.5263" rx="0.560799" ry="0.561405" fill="#333333"/>
<ellipse cx="28.9528" cy="22.7719" rx="0.560799" ry="0.561403" fill="#333333"/>
<ellipse cx="28.9528" cy="25.0175" rx="0.560799" ry="0.561403" fill="#333333"/>
<ellipse cx="28.9528" cy="27.2631" rx="0.560799" ry="0.561405" fill="#333333"/>
<ellipse cx="28.9528" cy="29.5087" rx="0.560799" ry="0.561404" fill="#333333"/>
<ellipse cx="31.1961" cy="4.80701" rx="0.560804" ry="0.561403" fill="#333333"/>
<ellipse cx="31.1961" cy="7.05261" rx="0.560804" ry="0.561403" fill="#333333"/>
<ellipse cx="31.1961" cy="9.29828" rx="0.560804" ry="0.561403" fill="#333333"/>
<ellipse cx="31.1961" cy="11.5439" rx="0.560804" ry="0.561403" fill="#333333"/>
<ellipse cx="31.1961" cy="13.7895" rx="0.560804" ry="0.561403" fill="#333333"/>
<ellipse cx="31.1961" cy="16.0351" rx="0.560804" ry="0.561404" fill="#333333"/>
<ellipse cx="31.1961" cy="18.2807" rx="0.560804" ry="0.561402" fill="#333333"/>
<ellipse cx="31.1961" cy="20.5263" rx="0.560804" ry="0.561405" fill="#333333"/>
<ellipse cx="31.1961" cy="22.7719" rx="0.560804" ry="0.561403" fill="#333333"/>
<ellipse cx="31.1961" cy="25.0175" rx="0.560804" ry="0.561403" fill="#333333"/>
<ellipse cx="31.1961" cy="27.2631" rx="0.560804" ry="0.561405" fill="#333333"/>
<ellipse cx="31.1961" cy="29.5087" rx="0.560804" ry="0.561404" fill="#333333"/>
<ellipse cx="33.4392" cy="4.80701" rx="0.560806" ry="0.561403" fill="#333333"/>
<ellipse cx="33.4392" cy="7.05261" rx="0.560806" ry="0.561403" fill="#333333"/>
<ellipse cx="33.4392" cy="9.29828" rx="0.560806" ry="0.561403" fill="#333333"/>
<ellipse cx="33.4392" cy="11.5439" rx="0.560806" ry="0.561403" fill="#333333"/>
<ellipse cx="33.4392" cy="13.7895" rx="0.560806" ry="0.561403" fill="#333333"/>
<ellipse cx="33.4392" cy="16.0351" rx="0.560806" ry="0.561404" fill="#333333"/>
<ellipse cx="33.4392" cy="18.2807" rx="0.560806" ry="0.561402" fill="#333333"/>
<ellipse cx="33.4392" cy="20.5263" rx="0.560806" ry="0.561405" fill="#333333"/>
<ellipse cx="33.4392" cy="22.7719" rx="0.560806" ry="0.561403" fill="#333333"/>
<ellipse cx="33.4392" cy="25.0175" rx="0.560806" ry="0.561403" fill="#333333"/>
<ellipse cx="33.4392" cy="27.2631" rx="0.560806" ry="0.561405" fill="#333333"/>
<ellipse cx="33.4392" cy="29.5087" rx="0.560806" ry="0.561404" fill="#333333"/>
<path d="M8 15.3333H20" stroke="#333333" stroke-width="2" stroke-linecap="round" stroke-linejoin="round"/>
<path d="M8 11.3333H20" stroke="black" stroke-opacity="0.82" stroke-width="2" stroke-linecap="round" stroke-linejoin="round"/>
<path d="M8 19.3333H20" stroke="black" stroke-opacity="0.82" stroke-width="2" stroke-linecap="round" stroke-linejoin="round"/>
</svg>
