<svg width="82" height="82" viewBox="0 0 82 82" fill="none" xmlns="http://www.w3.org/2000/svg">
<path fill-rule="evenodd" clip-rule="evenodd" d="M10.25 12.25C10.25 11.1454 11.1454 10.25 12.25 10.25H69.75C70.8546 10.25 71.75 11.1454 71.75 12.25V69.75C71.75 70.8546 70.8546 71.75 69.75 71.75H12.25C11.1454 71.75 10.25 70.8546 10.25 69.75V12.25Z" stroke="#BDBDBD" stroke-width="4" stroke-linecap="round" stroke-linejoin="round"/>
<path fill-rule="evenodd" clip-rule="evenodd" d="M29.0417 34.1667C31.8721 34.1667 34.1667 31.8721 34.1667 29.0417C34.1667 26.2112 31.8721 23.9167 29.0417 23.9167C26.2112 23.9167 23.9167 26.2112 23.9167 29.0417C23.9167 31.8721 26.2112 34.1667 29.0417 34.1667Z" stroke="#BDBDBD" stroke-width="4" stroke-linecap="round" stroke-linejoin="round"/>
<path d="M71.75 51.25L54.6667 34.1667L17.0833 71.75" stroke="#BDBDBD" stroke-width="4" stroke-linecap="round" stroke-linejoin="round"/>
</svg>
