<svg width="37" height="48" viewBox="0 0 37 48" fill="none" xmlns="http://www.w3.org/2000/svg">
<path d="M1.62127 39.5149C1.30569 40.7772 2.26041 42 3.56155 42H29.4384C30.3562 42 31.1561 41.3754 31.3787 40.4851L35.9403 22.2389C35.9799 22.0802 36 21.9173 36 21.7538V3C36 1.89543 35.1046 1 34 1H8C6.89543 1 6 1.89543 6 3V21.7538C6 21.9173 5.97995 22.0802 5.94029 22.2389L1.62127 39.5149Z" fill="white" stroke="#333333" stroke-width="2"/>
<path d="M18.8031 9.13281V13.9766C18.8031 14.5859 18.7016 15.0703 18.4984 15.4297C18.1859 15.987 17.7328 16.4271 17.1391 16.75C16.5505 17.0729 15.9307 17.2344 15.2797 17.2344C14.4411 17.2344 13.2979 16.8802 11.85 16.1719V13.5391C11.85 13.1536 11.9229 12.8802 12.0688 12.7188C12.2198 12.5521 12.4151 12.4688 12.6547 12.4688C12.8891 12.4688 13.0792 12.5521 13.225 12.7188C13.376 12.8802 13.4516 13.1536 13.4516 13.5391V15.1094C14.1859 15.4583 14.8135 15.6328 15.3344 15.6328C15.6104 15.6328 15.8969 15.5703 16.1938 15.4453C16.4906 15.3151 16.7146 15.1615 16.8656 14.9844C17.0167 14.8073 17.1156 14.6328 17.1625 14.4609C17.1885 14.3672 17.2016 14.1432 17.2016 13.7891V9.13281H15.2563C14.8708 9.13281 14.5948 9.0599 14.4281 8.91406C14.2667 8.76302 14.1859 8.56771 14.1859 8.32812C14.1859 8.08854 14.2667 7.89583 14.4281 7.75C14.5948 7.59896 14.8708 7.52344 15.2563 7.52344L19.7406 7.53125C20.126 7.53125 20.3995 7.60417 20.5609 7.75C20.7276 7.89583 20.8109 8.08854 20.8109 8.32812C20.8109 8.56771 20.7276 8.76302 20.5609 8.91406C20.3995 9.0599 20.126 9.13281 19.7406 9.13281H18.8031ZM28.1578 14.4219H24.2672L23.8766 15.3984H24.2672C24.6526 15.3984 24.926 15.474 25.0875 15.625C25.2542 15.7708 25.3375 15.9635 25.3375 16.2031C25.3375 16.4375 25.2542 16.6302 25.0875 16.7812C24.926 16.9271 24.6526 17 24.2672 17H22.1109C21.7255 17 21.4521 16.9271 21.2906 16.7812C21.124 16.6302 21.0406 16.4349 21.0406 16.1953C21.0406 15.9557 21.1266 15.7604 21.2984 15.6094C21.4703 15.4583 21.7542 15.388 22.15 15.3984L24.6656 9.13281H23.6188C23.2333 9.13281 22.9573 9.0599 22.7906 8.91406C22.6292 8.76302 22.5484 8.56771 22.5484 8.32812C22.5484 8.08854 22.6292 7.89583 22.7906 7.75C22.9573 7.59896 23.2333 7.52344 23.6188 7.52344L27.0797 7.53125L30.2672 15.3984C30.6422 15.3984 30.8896 15.4401 31.0094 15.5234C31.249 15.6953 31.3688 15.9219 31.3688 16.2031C31.3688 16.4375 31.288 16.6302 31.1266 16.7812C30.9651 16.9271 30.6917 17 30.3063 17H28.15C27.7646 17 27.4885 16.9271 27.3219 16.7812C27.1604 16.6302 27.0797 16.4349 27.0797 16.1953C27.0797 15.9609 27.1604 15.7708 27.3219 15.625C27.4885 15.474 27.7646 15.3984 28.15 15.3984H28.5406L28.1578 14.4219ZM27.4938 12.8203L26.2047 9.64844L24.9078 12.8203H27.4938Z" fill="black"/>
<mask id="path-3-outside-1_388:12115" maskUnits="userSpaceOnUse" x="6.46582" y="26" width="23" height="12" fill="black">
<rect fill="white" x="6.46582" y="26" width="23" height="12"/>
<path fill-rule="evenodd" clip-rule="evenodd" d="M20.935 35.6795H20.4949L21.8154 28.5487L24.9846 36.4718C25.0727 36.7359 25.1607 36.912 25.2487 36.912C25.3368 37 25.5128 37 25.7769 37C26.041 37 26.2171 37 26.3051 36.912V36.912C26.3932 36.8239 26.4812 36.7359 26.4812 36.5598L27.9778 27.9325H28.0658C28.418 27.9325 28.594 27.8444 28.7701 27.7564C28.9462 27.6684 29.0342 27.5803 29.0342 27.3162C29.0342 27.1402 29.0342 26.9641 28.9462 26.8761C28.8581 26.788 28.6821 26.7 28.506 26.7H28.0658H26.041C25.8063 26.7 25.6106 26.7391 25.4802 26.7652C25.415 26.7783 25.3661 26.788 25.3368 26.788C25.1607 26.8761 25.0727 27.0521 25.0727 27.3162C24.9846 27.4923 25.0727 27.6684 25.1607 27.7564C25.2487 27.8444 25.4248 27.9325 25.7769 27.9325H26.3932H26.7453L25.5128 34.7111L22.5197 27.2282C22.4316 26.9641 22.3436 26.8761 22.2556 26.788C22.1675 26.7 21.9915 26.7 21.7274 26.7H20.935H20.4068C20.0547 26.7 19.7906 26.788 19.6145 26.8761C19.5265 26.9641 19.3504 27.1402 19.3504 27.3162C19.3504 27.4923 19.3504 27.6684 19.5265 27.7564C19.7026 27.8444 20.0547 27.9325 20.4949 27.9325H20.6709L19.1744 35.8556H18.9983C18.6462 35.8556 18.4701 35.8556 18.294 35.9436C18.118 36.0316 18.0299 36.1197 18.0299 36.3838C18.0299 36.5598 18.0299 36.7359 18.118 36.8239C18.206 36.912 18.3821 37 18.5581 37H18.9983H21.1111C21.5513 37 21.8154 36.912 21.9915 36.8239C22.1675 36.7359 22.2556 36.5598 22.2556 36.2957C22.3436 36.1197 22.2556 35.9436 22.1675 35.8556C22.0795 35.7675 21.9034 35.6795 21.5513 35.6795H20.935ZM7.99403 36.912H8.4342H15.565C15.741 36.912 15.9171 36.8239 16.0051 36.7359C16.1812 36.6479 16.2692 36.4718 16.2692 36.2957L16.6214 34.0949C16.7094 33.7427 16.7094 33.4786 16.6214 33.3906C16.5333 33.3026 16.3573 33.2145 16.1812 33.2145C15.9171 33.2145 15.741 33.3026 15.653 33.3906C15.565 33.5667 15.4769 33.8308 15.3889 34.2709L15.0368 35.6795H10.459L11.1633 31.894H13.4521L13.3641 32.1581C13.3641 32.3325 13.3503 32.4792 13.3391 32.5983C13.322 32.7799 13.3109 32.8973 13.3641 32.9504C13.4521 33.1265 13.6282 33.2145 13.8043 33.2145C13.9803 33.2145 14.1564 33.1265 14.2445 33.0385C14.3325 32.8624 14.4205 32.5983 14.5086 32.1581L14.7727 30.5735C14.8607 30.2214 14.8607 29.8692 14.7727 29.7812C14.7727 29.6932 14.5966 29.6051 14.4205 29.6051C14.2445 29.6051 14.0684 29.6932 13.9803 29.7812C13.8923 29.8692 13.8043 30.0453 13.7162 30.3974L13.6282 30.8376H11.3393L11.8675 27.9325H16.4453L16.2692 29.165C16.1812 29.6051 16.1812 29.9573 16.2692 30.0453C16.2692 30.1333 16.4453 30.2214 16.7094 30.2214C16.8855 30.2214 17.0615 30.1333 17.2376 30.0453C17.363 29.9826 17.3991 29.8306 17.4413 29.6529C17.4583 29.5811 17.4764 29.5051 17.5017 29.4291L17.8539 27.4043C17.8539 27.1402 17.8539 26.9641 17.7658 26.8761C17.6778 26.788 17.5017 26.7 17.3256 26.7H10.1949H9.84274C9.57864 26.7 9.40257 26.788 9.31454 26.8761C9.13847 26.9641 9.05044 27.1402 9.05044 27.3162C9.05044 27.5252 9.10556 27.624 9.17218 27.7433C9.18976 27.7748 9.20813 27.8077 9.2265 27.8444C9.31454 28.0205 9.57864 28.0205 10.0188 28.0205H10.547L9.13847 35.7675H8.61026H8.61026C8.17009 35.7675 7.90599 35.7675 7.72992 35.8556C7.55385 35.9436 7.46582 36.0316 7.46582 36.2957C7.46582 36.4718 7.46582 36.6479 7.55385 36.7359C7.64189 36.8239 7.81796 36.912 7.99403 36.912Z"/>
</mask>
<path fill-rule="evenodd" clip-rule="evenodd" d="M20.935 35.6795H20.4949L21.8154 28.5487L24.9846 36.4718C25.0727 36.7359 25.1607 36.912 25.2487 36.912C25.3368 37 25.5128 37 25.7769 37C26.041 37 26.2171 37 26.3051 36.912V36.912C26.3932 36.8239 26.4812 36.7359 26.4812 36.5598L27.9778 27.9325H28.0658C28.418 27.9325 28.594 27.8444 28.7701 27.7564C28.9462 27.6684 29.0342 27.5803 29.0342 27.3162C29.0342 27.1402 29.0342 26.9641 28.9462 26.8761C28.8581 26.788 28.6821 26.7 28.506 26.7H28.0658H26.041C25.8063 26.7 25.6106 26.7391 25.4802 26.7652C25.415 26.7783 25.3661 26.788 25.3368 26.788C25.1607 26.8761 25.0727 27.0521 25.0727 27.3162C24.9846 27.4923 25.0727 27.6684 25.1607 27.7564C25.2487 27.8444 25.4248 27.9325 25.7769 27.9325H26.3932H26.7453L25.5128 34.7111L22.5197 27.2282C22.4316 26.9641 22.3436 26.8761 22.2556 26.788C22.1675 26.7 21.9915 26.7 21.7274 26.7H20.935H20.4068C20.0547 26.7 19.7906 26.788 19.6145 26.8761C19.5265 26.9641 19.3504 27.1402 19.3504 27.3162C19.3504 27.4923 19.3504 27.6684 19.5265 27.7564C19.7026 27.8444 20.0547 27.9325 20.4949 27.9325H20.6709L19.1744 35.8556H18.9983C18.6462 35.8556 18.4701 35.8556 18.294 35.9436C18.118 36.0316 18.0299 36.1197 18.0299 36.3838C18.0299 36.5598 18.0299 36.7359 18.118 36.8239C18.206 36.912 18.3821 37 18.5581 37H18.9983H21.1111C21.5513 37 21.8154 36.912 21.9915 36.8239C22.1675 36.7359 22.2556 36.5598 22.2556 36.2957C22.3436 36.1197 22.2556 35.9436 22.1675 35.8556C22.0795 35.7675 21.9034 35.6795 21.5513 35.6795H20.935ZM7.99403 36.912H8.4342H15.565C15.741 36.912 15.9171 36.8239 16.0051 36.7359C16.1812 36.6479 16.2692 36.4718 16.2692 36.2957L16.6214 34.0949C16.7094 33.7427 16.7094 33.4786 16.6214 33.3906C16.5333 33.3026 16.3573 33.2145 16.1812 33.2145C15.9171 33.2145 15.741 33.3026 15.653 33.3906C15.565 33.5667 15.4769 33.8308 15.3889 34.2709L15.0368 35.6795H10.459L11.1633 31.894H13.4521L13.3641 32.1581C13.3641 32.3325 13.3503 32.4792 13.3391 32.5983C13.322 32.7799 13.3109 32.8973 13.3641 32.9504C13.4521 33.1265 13.6282 33.2145 13.8043 33.2145C13.9803 33.2145 14.1564 33.1265 14.2445 33.0385C14.3325 32.8624 14.4205 32.5983 14.5086 32.1581L14.7727 30.5735C14.8607 30.2214 14.8607 29.8692 14.7727 29.7812C14.7727 29.6932 14.5966 29.6051 14.4205 29.6051C14.2445 29.6051 14.0684 29.6932 13.9803 29.7812C13.8923 29.8692 13.8043 30.0453 13.7162 30.3974L13.6282 30.8376H11.3393L11.8675 27.9325H16.4453L16.2692 29.165C16.1812 29.6051 16.1812 29.9573 16.2692 30.0453C16.2692 30.1333 16.4453 30.2214 16.7094 30.2214C16.8855 30.2214 17.0615 30.1333 17.2376 30.0453C17.363 29.9826 17.3991 29.8306 17.4413 29.6529C17.4583 29.5811 17.4764 29.5051 17.5017 29.4291L17.8539 27.4043C17.8539 27.1402 17.8539 26.9641 17.7658 26.8761C17.6778 26.788 17.5017 26.7 17.3256 26.7H10.1949H9.84274C9.57864 26.7 9.40257 26.788 9.31454 26.8761C9.13847 26.9641 9.05044 27.1402 9.05044 27.3162C9.05044 27.5252 9.10556 27.624 9.17218 27.7433C9.18976 27.7748 9.20813 27.8077 9.2265 27.8444C9.31454 28.0205 9.57864 28.0205 10.0188 28.0205H10.547L9.13847 35.7675H8.61026H8.61026C8.17009 35.7675 7.90599 35.7675 7.72992 35.8556C7.55385 35.9436 7.46582 36.0316 7.46582 36.2957C7.46582 36.4718 7.46582 36.6479 7.55385 36.7359C7.64189 36.8239 7.81796 36.912 7.99403 36.912Z" fill="black"/>
<path d="M20.4949 35.6795V35.9795H20.1342L20.1999 35.6249L20.4949 35.6795ZM21.8154 28.5487L21.5204 28.4941L21.7091 27.4752L22.0939 28.4373L21.8154 28.5487ZM24.9846 36.4718L25.2632 36.3604L25.2664 36.3686L25.2692 36.3769L24.9846 36.4718ZM25.2487 36.912V36.612H25.373L25.4609 36.6998L25.2487 36.912ZM26.3051 36.912H26.6051V37.0362L26.5173 37.1241L26.3051 36.912ZM26.3051 36.912H26.0051V36.7877L26.093 36.6998L26.3051 36.912ZM26.4812 36.5598H26.1812V36.534L26.1856 36.5086L26.4812 36.5598ZM27.9778 27.9325L27.6822 27.8812L27.7253 27.6325H27.9778V27.9325ZM28.7701 27.7564L28.6359 27.4881L28.6359 27.4881L28.7701 27.7564ZM28.9462 26.8761L28.734 27.0882L28.734 27.0882L28.9462 26.8761ZM25.4802 26.7652L25.4214 26.471L25.4214 26.471L25.4802 26.7652ZM25.3368 26.788L25.2026 26.5197L25.2659 26.488H25.3368V26.788ZM25.0727 27.3162H25.3727V27.3871L25.341 27.4504L25.0727 27.3162ZM25.1607 27.7564L25.3728 27.5443L25.3728 27.5443L25.1607 27.7564ZM26.7453 27.9325V27.6325H27.1048L27.0405 27.9861L26.7453 27.9325ZM25.5128 34.7111L25.808 34.7648L25.6215 35.7905L25.2343 34.8225L25.5128 34.7111ZM22.5197 27.2282L22.2411 27.3396L22.2378 27.3314L22.2351 27.3231L22.5197 27.2282ZM22.2556 26.788L22.0434 27.0002L22.0434 27.0002L22.2556 26.788ZM19.6145 26.8761L19.4024 26.6639L19.4368 26.6295L19.4804 26.6077L19.6145 26.8761ZM19.5265 27.7564L19.6607 27.4881L19.6607 27.4881L19.5265 27.7564ZM20.6709 27.9325V27.6325H21.0329L20.9657 27.9882L20.6709 27.9325ZM19.1744 35.8556L19.4692 35.9112L19.423 36.1556H19.1744V35.8556ZM18.118 36.8239L18.3301 36.6118L18.3301 36.6118L18.118 36.8239ZM21.9915 36.8239L22.1256 37.0923L22.1256 37.0923L21.9915 36.8239ZM22.2556 36.2957H21.9556V36.2249L21.9872 36.1616L22.2556 36.2957ZM22.1675 35.8556L21.9554 36.0677L21.9554 36.0677L22.1675 35.8556ZM16.0051 36.7359L15.793 36.5238L15.8274 36.4893L15.871 36.4676L16.0051 36.7359ZM16.2692 36.2957H15.9692V36.2719L15.973 36.2483L16.2692 36.2957ZM16.6214 34.0949L16.3251 34.0475L16.3272 34.0347L16.3303 34.0221L16.6214 34.0949ZM16.6214 33.3906L16.4092 33.6027L16.4092 33.6027L16.6214 33.3906ZM15.653 33.3906L15.3847 33.2564L15.4064 33.2129L15.4409 33.1785L15.653 33.3906ZM15.3889 34.2709L15.6831 34.3298L15.6817 34.3368L15.6799 34.3437L15.3889 34.2709ZM15.0368 35.6795L15.3278 35.7522L15.271 35.9795H15.0368V35.6795ZM10.459 35.6795V35.9795H10.098L10.164 35.6246L10.459 35.6795ZM11.1633 31.894L10.8683 31.8391L10.9139 31.594H11.1633V31.894ZM13.4521 31.894V31.594H13.8684L13.7367 31.9889L13.4521 31.894ZM13.3641 32.1581H13.0641V32.1094L13.0795 32.0633L13.3641 32.1581ZM13.3391 32.5983L13.6378 32.6264L13.6378 32.6264L13.3391 32.5983ZM13.3641 32.9504L13.5762 32.7383L13.6107 32.7727L13.6324 32.8163L13.3641 32.9504ZM14.2445 33.0385L14.5128 33.1726L14.491 33.2162L14.4566 33.2506L14.2445 33.0385ZM14.5086 32.1581L14.8046 32.2075L14.8027 32.217L14.5086 32.1581ZM14.7727 30.5735L14.4767 30.5242L14.4787 30.5124L14.4816 30.5007L14.7727 30.5735ZM14.7727 29.7812L14.5605 29.9933L14.4727 29.9055V29.7812H14.7727ZM13.7162 30.3974L13.4221 30.3386L13.4235 30.3316L13.4252 30.3247L13.7162 30.3974ZM13.6282 30.8376L13.9224 30.8964L13.8742 31.1376H13.6282V30.8376ZM11.3393 30.8376V31.1376H10.9799L11.0442 30.7839L11.3393 30.8376ZM11.8675 27.9325L11.5724 27.8788L11.6172 27.6325H11.8675V27.9325ZM16.4453 27.9325V27.6325H16.7912L16.7423 27.9749L16.4453 27.9325ZM16.2692 29.165L16.5662 29.2074L16.565 29.2156L16.5634 29.2238L16.2692 29.165ZM16.2692 30.0453L16.4814 29.8332L16.5692 29.921V30.0453H16.2692ZM17.4413 29.6529L17.1494 29.5836L17.1494 29.5836L17.4413 29.6529ZM17.5017 29.4291L17.7973 29.4805L17.7934 29.5026L17.7863 29.5239L17.5017 29.4291ZM17.8539 27.4043H18.1539V27.4302L18.1494 27.4557L17.8539 27.4043ZM9.31454 26.8761L9.52667 27.0882L9.49225 27.1226L9.4487 27.1444L9.31454 26.8761ZM9.17218 27.7433L8.91024 27.8895L8.91024 27.8895L9.17218 27.7433ZM9.2265 27.8444L8.95818 27.9786L8.95817 27.9786L9.2265 27.8444ZM10.547 28.0205V27.7205H10.9065L10.8422 28.0742L10.547 28.0205ZM9.13847 35.7675L9.43363 35.8212L9.38884 36.0675H9.13847V35.7675ZM7.72992 35.8556L7.86409 36.1239L7.86409 36.1239L7.72992 35.8556ZM20.4949 35.3795H20.935V35.9795H20.4949V35.3795ZM22.1104 28.6033L20.7899 35.7341L20.1999 35.6249L21.5204 28.4941L22.1104 28.6033ZM24.7061 36.5832L21.5368 28.6601L22.0939 28.4373L25.2632 36.3604L24.7061 36.5832ZM25.2487 37.212C25.1215 37.212 25.0296 37.148 24.9775 37.0992C24.9248 37.0497 24.8854 36.9909 24.8562 36.9398C24.7971 36.8364 24.7457 36.7037 24.7 36.5667L25.2692 36.3769C25.3116 36.504 25.3482 36.5914 25.3771 36.6421C25.3919 36.668 25.3966 36.6697 25.3879 36.6615C25.3798 36.6539 25.3319 36.612 25.2487 36.612V37.212ZM25.7769 37.3C25.6518 37.3 25.5203 37.3005 25.4096 37.2867C25.3013 37.2731 25.1525 37.24 25.0366 37.1241L25.4609 36.6998C25.433 36.672 25.4163 36.6828 25.484 36.6913C25.5493 36.6995 25.638 36.7 25.7769 36.7V37.3ZM26.5173 37.1241C26.4014 37.24 26.2526 37.2731 26.1443 37.2867C26.0335 37.3005 25.9021 37.3 25.7769 37.3V36.7C25.9159 36.7 26.0045 36.6995 26.0698 36.6913C26.1376 36.6828 26.1208 36.672 26.093 36.6998L26.5173 37.1241ZM26.6051 36.912V36.912H26.0051V36.912H26.6051ZM26.7812 36.5598C26.7812 36.8678 26.6084 37.0329 26.5173 37.1241L26.093 36.6998C26.141 36.6519 26.158 36.6329 26.1689 36.6146C26.1746 36.6052 26.1812 36.5923 26.1812 36.5598H26.7812ZM28.2734 27.9838L26.7768 36.6111L26.1856 36.5086L27.6822 27.8812L28.2734 27.9838ZM28.0658 28.2325H27.9778V27.6325H28.0658V28.2325ZM28.9043 28.0247C28.7112 28.1213 28.4859 28.2325 28.0658 28.2325V27.6325C28.35 27.6325 28.4768 27.5676 28.6359 27.4881L28.9043 28.0247ZM29.3342 27.3162C29.3342 27.4785 29.3077 27.6339 29.2178 27.7688C29.1293 27.9015 29.0051 27.9743 28.9043 28.0247L28.6359 27.4881C28.6723 27.4699 28.693 27.4571 28.7056 27.4476C28.7115 27.4433 28.7147 27.4402 28.7163 27.4386C28.7178 27.437 28.7184 27.4362 28.7186 27.4359C28.7187 27.4357 28.7195 27.4346 28.7206 27.4319C28.7217 27.4292 28.7236 27.424 28.7257 27.4153C28.7299 27.3973 28.7342 27.3665 28.7342 27.3162H29.3342ZM29.1583 26.6639C29.2715 26.7772 29.3061 26.9224 29.3202 27.0207C29.3348 27.123 29.3342 27.2338 29.3342 27.3162H28.7342C28.7342 27.2227 28.7336 27.1574 28.7262 27.1056C28.7182 27.0499 28.7088 27.063 28.734 27.0882L29.1583 26.6639ZM28.506 26.4C28.7668 26.4 29.0178 26.5234 29.1583 26.6639L28.734 27.0882C28.7217 27.0759 28.6896 27.0516 28.6409 27.0308C28.5935 27.0104 28.5458 27 28.506 27V26.4ZM28.0658 26.4H28.506V27H28.0658V26.4ZM26.041 26.4H28.0658V27H26.041V26.4ZM25.4214 26.471C25.5531 26.4447 25.7741 26.4 26.041 26.4V27C25.8385 27 25.6682 27.0336 25.5391 27.0594L25.4214 26.471ZM25.3368 26.488C25.3286 26.488 25.3249 26.4886 25.3281 26.4883C25.3307 26.488 25.336 26.4872 25.3449 26.4857C25.3637 26.4826 25.3874 26.4778 25.4214 26.471L25.5391 27.0594C25.4913 27.0689 25.4039 27.088 25.3368 27.088V26.488ZM24.7727 27.3162C24.7727 26.9838 24.8899 26.6761 25.2026 26.5197L25.4709 27.0564C25.4315 27.0761 25.3727 27.1205 25.3727 27.3162H24.7727ZM24.9486 27.9685C24.8134 27.8334 24.6348 27.5211 24.8043 27.1821L25.341 27.4504C25.3373 27.4577 25.3365 27.4626 25.3363 27.4662C25.336 27.4706 25.3364 27.4774 25.3391 27.4869C25.3419 27.4968 25.3468 27.508 25.3537 27.5193C25.3607 27.5307 25.3679 27.5394 25.3728 27.5443L24.9486 27.9685ZM25.7769 28.2325C25.3785 28.2325 25.1127 28.1327 24.9486 27.9685L25.3728 27.5443C25.3848 27.5562 25.471 27.6325 25.7769 27.6325V28.2325ZM26.3932 28.2325H25.7769V27.6325H26.3932V28.2325ZM26.7453 28.2325H26.3932V27.6325H26.7453V28.2325ZM25.2177 34.6574L26.4501 27.8788L27.0405 27.9861L25.808 34.7648L25.2177 34.6574ZM22.7982 27.1168L25.7914 34.5997L25.2343 34.8225L22.2411 27.3396L22.7982 27.1168ZM22.4677 26.5759C22.512 26.6202 22.5751 26.6826 22.6372 26.7757C22.6992 26.8687 22.7538 26.9821 22.8043 27.1333L22.2351 27.3231C22.1974 27.2102 22.164 27.1476 22.138 27.1085C22.112 27.0696 22.0871 27.0439 22.0434 27.0002L22.4677 26.5759ZM21.7274 26.4C21.8525 26.4 21.9839 26.3995 22.0947 26.4133C22.203 26.4269 22.3518 26.46 22.4677 26.5759L22.0434 27.0002C22.0713 27.028 22.088 27.0172 22.0203 27.0087C21.955 27.0005 21.8663 27 21.7274 27V26.4ZM20.935 26.4H21.7274V27H20.935V26.4ZM20.4068 26.4H20.935V27H20.4068V26.4ZM19.4804 26.6077C19.6931 26.5014 20.0029 26.4 20.4068 26.4V27C20.1065 27 19.8881 27.0747 19.7487 27.1444L19.4804 26.6077ZM19.0504 27.3162C19.0504 27.1342 19.1381 26.983 19.2054 26.8888C19.2767 26.7889 19.3596 26.7067 19.4024 26.6639L19.8267 27.0882C19.7814 27.1334 19.7323 27.1833 19.6936 27.2375C19.6508 27.2974 19.6504 27.3223 19.6504 27.3162H19.0504ZM19.3923 28.0247C19.2182 27.9377 19.1255 27.7972 19.084 27.6518C19.0482 27.5267 19.0504 27.3939 19.0504 27.3162H19.6504C19.6504 27.3621 19.6505 27.3963 19.6526 27.4276C19.6545 27.4582 19.6579 27.4764 19.6609 27.4869C19.6635 27.4961 19.6646 27.4951 19.661 27.4904C19.6566 27.4848 19.6539 27.4847 19.6607 27.4881L19.3923 28.0247ZM20.4949 28.2325C20.0233 28.2325 19.6218 28.1395 19.3923 28.0247L19.6607 27.4881C19.7833 27.5494 20.0861 27.6325 20.4949 27.6325V28.2325ZM20.6709 28.2325H20.4949V27.6325H20.6709V28.2325ZM18.8796 35.7999L20.3762 27.8768L20.9657 27.9882L19.4692 35.9112L18.8796 35.7999ZM18.9983 35.5556H19.1744V36.1556H18.9983V35.5556ZM18.1599 35.6753C18.4124 35.549 18.6689 35.5556 18.9983 35.5556V36.1556C18.6234 36.1556 18.5277 36.1621 18.4282 36.2119L18.1599 35.6753ZM17.7299 36.3838C17.7299 36.2215 17.7564 36.0661 17.8463 35.9312C17.9348 35.7985 18.059 35.7257 18.1599 35.6753L18.4282 36.2119C18.3918 36.2301 18.3711 36.2429 18.3585 36.2524C18.3527 36.2567 18.3494 36.2598 18.3478 36.2614C18.3463 36.263 18.3458 36.2638 18.3456 36.2641C18.3454 36.2643 18.3447 36.2654 18.3436 36.2681C18.3424 36.2708 18.3405 36.276 18.3385 36.2847C18.3342 36.3027 18.3299 36.3335 18.3299 36.3838H17.7299ZM17.9058 37.0361C17.7926 36.9228 17.758 36.7776 17.7439 36.6793C17.7293 36.577 17.7299 36.4662 17.7299 36.3838H18.3299C18.3299 36.4773 18.3305 36.5426 18.3379 36.5944C18.3459 36.6501 18.3553 36.637 18.3301 36.6118L17.9058 37.0361ZM18.5581 37.3C18.2973 37.3 18.0463 37.1766 17.9058 37.0361L18.3301 36.6118C18.3424 36.6241 18.3745 36.6484 18.4232 36.6692C18.4706 36.6896 18.5184 36.7 18.5581 36.7V37.3ZM18.9983 37.3H18.5581V36.7H18.9983V37.3ZM21.1111 37.3H18.9983V36.7H21.1111V37.3ZM22.1256 37.0923C21.9061 37.202 21.5958 37.3 21.1111 37.3V36.7C21.5068 36.7 21.7247 36.6219 21.8573 36.5556L22.1256 37.0923ZM22.5556 36.2957C22.5556 36.6282 22.4383 36.9359 22.1256 37.0923L21.8573 36.5556C21.8967 36.5359 21.9556 36.4915 21.9556 36.2957H22.5556ZM22.3797 35.6434C22.5148 35.7786 22.6934 36.0909 22.5239 36.4299L21.9872 36.1616C21.9909 36.1543 21.9917 36.1494 21.9919 36.1457C21.9922 36.1414 21.9918 36.1346 21.9891 36.125C21.9863 36.1152 21.9814 36.104 21.9745 36.0927C21.9676 36.0812 21.9603 36.0726 21.9554 36.0677L22.3797 35.6434ZM21.5513 35.3795C21.9497 35.3795 22.2155 35.4793 22.3797 35.6434L21.9554 36.0677C21.9435 36.0558 21.8572 35.9795 21.5513 35.9795V35.3795ZM20.935 35.3795H21.5513V35.9795H20.935V35.3795ZM8.4342 37.212H7.99403V36.612H8.4342V37.212ZM15.565 37.212H8.4342V36.612H15.565V37.212ZM16.2173 36.948C16.0768 37.0885 15.8258 37.212 15.565 37.212V36.612C15.6047 36.612 15.6525 36.6015 15.6999 36.5812C15.7486 36.5603 15.7807 36.5361 15.793 36.5238L16.2173 36.948ZM16.5692 36.2957C16.5692 36.5688 16.4311 36.8583 16.1393 37.0042L15.871 36.4676C15.9313 36.4374 15.9692 36.3748 15.9692 36.2957H16.5692ZM16.9176 34.1423L16.5655 36.3431L15.973 36.2483L16.3251 34.0475L16.9176 34.1423ZM16.8335 33.1785C16.907 33.252 16.9428 33.3412 16.9614 33.4133C16.9806 33.4879 16.9874 33.5669 16.9874 33.6437C16.9874 33.7973 16.96 33.9771 16.9124 34.1676L16.3303 34.0221C16.3707 33.8605 16.3874 33.7322 16.3874 33.6437C16.3874 33.5994 16.3832 33.574 16.3804 33.5632C16.377 33.55 16.3798 33.5733 16.4092 33.6027L16.8335 33.1785ZM16.1812 32.9145C16.442 32.9145 16.693 33.038 16.8335 33.1785L16.4092 33.6027C16.397 33.5904 16.3648 33.5662 16.3161 33.5453C16.2687 33.525 16.221 33.5145 16.1812 33.5145V32.9145ZM15.4409 33.1785C15.5951 33.0242 15.8528 32.9145 16.1812 32.9145V33.5145C15.9814 33.5145 15.8869 33.5809 15.8651 33.6027L15.4409 33.1785ZM15.0947 34.2121C15.1851 33.76 15.2796 33.4665 15.3847 33.2564L15.9213 33.5248C15.8503 33.6668 15.7687 33.9016 15.6831 34.3298L15.0947 34.2121ZM14.7457 35.6067L15.0979 34.1982L15.6799 34.3437L15.3278 35.7522L14.7457 35.6067ZM10.459 35.3795H15.0368V35.9795H10.459V35.3795ZM11.4582 31.9489L10.7539 35.7344L10.164 35.6246L10.8683 31.8391L11.4582 31.9489ZM13.4521 32.194H11.1633V31.594H13.4521V32.194ZM13.0795 32.0633L13.1675 31.7991L13.7367 31.9889L13.6487 32.253L13.0795 32.0633ZM13.0404 32.5702C13.0516 32.4512 13.0641 32.317 13.0641 32.1581H13.6641C13.6641 32.348 13.649 32.5071 13.6378 32.6264L13.0404 32.5702ZM13.152 33.1626C13.0392 33.0498 13.0275 32.9041 13.0254 32.8314C13.023 32.7499 13.0325 32.6537 13.0404 32.5702L13.6378 32.6264C13.6334 32.6728 13.6299 32.7103 13.6276 32.7433C13.6253 32.7766 13.6247 32.7987 13.6251 32.8136C13.6256 32.8295 13.627 32.8272 13.6235 32.8151C13.6194 32.801 13.6073 32.7694 13.5762 32.7383L13.152 33.1626ZM13.8043 33.5145C13.5312 33.5145 13.2417 33.3764 13.0958 33.0846L13.6324 32.8163C13.6626 32.8766 13.7252 32.9145 13.8043 32.9145V33.5145ZM14.4566 33.2506C14.3161 33.3911 14.0651 33.5145 13.8043 33.5145V32.9145C13.8441 32.9145 13.8918 32.9041 13.9392 32.8838C13.9879 32.8629 14.02 32.8386 14.0323 32.8263L14.4566 33.2506ZM14.8027 32.217C14.7123 32.6691 14.6178 32.9625 14.5128 33.1726L13.9761 32.9043C14.0471 32.7623 14.1287 32.5275 14.2144 32.0993L14.8027 32.217ZM15.0686 30.6228L14.8045 32.2074L14.2126 32.1088L14.4767 30.5242L15.0686 30.6228ZM14.9848 29.5691C15.0688 29.6531 15.1007 29.7612 15.1154 29.8292C15.1323 29.9075 15.1387 29.9935 15.1387 30.0783C15.1387 30.249 15.1129 30.4496 15.0637 30.6463L14.4816 30.5007C14.5205 30.3453 14.5387 30.1938 14.5387 30.0783C14.5387 30.0201 14.534 29.9795 14.529 29.956C14.5216 29.9222 14.5205 29.9533 14.5605 29.9933L14.9848 29.5691ZM14.4205 29.3051C14.5541 29.3051 14.6881 29.3375 14.7968 29.3918C14.8509 29.4189 14.911 29.4575 14.9617 29.5119C15.0108 29.5645 15.0727 29.6562 15.0727 29.7812H14.4727C14.4727 29.8622 14.5125 29.9099 14.5231 29.9212C14.5353 29.9343 14.5403 29.9344 14.5285 29.9285C14.505 29.9168 14.4631 29.9051 14.4205 29.9051V29.3051ZM13.7682 29.5691C13.9087 29.4286 14.1597 29.3051 14.4205 29.3051V29.9051C14.3807 29.9051 14.333 29.9156 14.2856 29.9359C14.2369 29.9568 14.2048 29.981 14.1925 29.9933L13.7682 29.5691ZM13.4252 30.3247C13.515 29.9656 13.6183 29.719 13.7682 29.5691L14.1925 29.9933C14.1663 30.0195 14.0936 30.125 14.0073 30.4702L13.4252 30.3247ZM13.334 30.7788L13.4221 30.3386L14.0104 30.4563L13.9224 30.8964L13.334 30.7788ZM11.3393 30.5376H13.6282V31.1376H11.3393V30.5376ZM12.1627 27.9861L11.6345 30.8913L11.0442 30.7839L11.5724 27.8788L12.1627 27.9861ZM16.4453 28.2325H11.8675V27.6325H16.4453V28.2325ZM15.9723 29.1225L16.1483 27.8901L16.7423 27.9749L16.5662 29.2074L15.9723 29.1225ZM16.0571 30.2574C15.9725 30.1728 15.9408 30.0639 15.9262 29.9943C15.9094 29.9147 15.9032 29.8263 15.9032 29.7372C15.9032 29.5578 15.9285 29.3392 15.9751 29.1061L16.5634 29.2238C16.522 29.4309 16.5032 29.6085 16.5032 29.7372C16.5032 29.8021 16.508 29.8458 16.5133 29.8707C16.5206 29.9056 16.522 29.8738 16.4814 29.8332L16.0571 30.2574ZM16.7094 30.5214C16.5475 30.5214 16.3952 30.4949 16.2721 30.4421C16.2112 30.416 16.1447 30.378 16.0887 30.3221C16.0331 30.2665 15.9692 30.1726 15.9692 30.0453H16.5692C16.5692 29.962 16.5273 29.9121 16.513 29.8978C16.4983 29.8832 16.4923 29.8837 16.5085 29.8906C16.5394 29.9039 16.6072 29.9214 16.7094 29.9214V30.5214ZM17.3718 30.3136C17.2131 30.393 16.9701 30.5214 16.7094 30.5214V29.9214C16.8009 29.9214 16.91 29.8737 17.1035 29.777L17.3718 30.3136ZM17.7332 29.7222C17.7139 29.8034 17.6884 29.915 17.6452 30.0131C17.5988 30.1185 17.5189 30.2401 17.3718 30.3136L17.1035 29.777C17.0817 29.7878 17.0826 29.802 17.0961 29.7713C17.1032 29.7552 17.1112 29.7324 17.1204 29.6994C17.1298 29.666 17.1386 29.6293 17.1494 29.5836L17.7332 29.7222ZM17.7863 29.5239C17.7658 29.5853 17.7506 29.6486 17.7332 29.7222L17.1494 29.5836C17.166 29.5135 17.1869 29.4248 17.2171 29.3342L17.7863 29.5239ZM18.1494 27.4557L17.7973 29.4805L17.2062 29.3777L17.5583 27.3529L18.1494 27.4557ZM17.978 26.6639C18.0938 26.7798 18.127 26.9286 18.1405 27.0369C18.1544 27.1477 18.1539 27.2791 18.1539 27.4043H17.5539C17.5539 27.2653 17.5533 27.1767 17.5452 27.1114C17.5367 27.0436 17.5259 27.0604 17.5537 27.0882L17.978 26.6639ZM17.3256 26.4C17.5865 26.4 17.8374 26.5234 17.978 26.6639L17.5537 27.0882C17.5414 27.0759 17.5093 27.0516 17.4606 27.0308C17.4132 27.0104 17.3654 27 17.3256 27V26.4ZM10.1949 26.4H17.3256V27H10.1949V26.4ZM9.84274 26.4H10.1949V27H9.84274V26.4ZM9.10241 26.6639C9.25666 26.5097 9.51436 26.4 9.84274 26.4V27C9.64292 27 9.54848 27.0664 9.52667 27.0882L9.10241 26.6639ZM8.75044 27.3162C8.75044 27.0432 8.8886 26.7536 9.18037 26.6077L9.4487 27.1444C9.38834 27.1746 9.35044 27.2372 9.35044 27.3162H8.75044ZM8.91024 27.8895C8.87848 27.8326 8.83425 27.755 8.80198 27.659C8.76823 27.5587 8.75044 27.449 8.75044 27.3162H9.35044C9.35044 27.3925 9.3602 27.4366 9.37067 27.4677C9.38261 27.5032 9.39926 27.5346 9.43413 27.5971L8.91024 27.8895ZM8.95817 27.9786C8.94328 27.9488 8.92811 27.9216 8.91024 27.8895L9.43413 27.5971C9.4514 27.628 9.47298 27.6666 9.49483 27.7103L8.95817 27.9786ZM10.0188 28.3205C9.80919 28.3205 9.60365 28.3215 9.44129 28.2944C9.27587 28.2669 9.06688 28.196 8.95818 27.9786L9.49483 27.7103C9.47416 27.6689 9.44124 27.6861 9.53993 27.7026C9.64166 27.7195 9.78827 27.7205 10.0188 27.7205V28.3205ZM10.547 28.3205H10.0188V27.7205H10.547V28.3205ZM8.84331 35.7139L10.2519 27.9668L10.8422 28.0742L9.43363 35.8212L8.84331 35.7139ZM8.61026 35.4675H9.13847V36.0675H8.61026V35.4675ZM8.61026 35.4675H8.61026V36.0675H8.61026V35.4675ZM7.59576 35.5872C7.7355 35.5174 7.89132 35.4915 8.04804 35.4794C8.20518 35.4673 8.39446 35.4675 8.61026 35.4675V36.0675C8.38589 36.0675 8.22303 36.0677 8.09406 36.0776C7.96468 36.0876 7.90041 36.1057 7.86409 36.1239L7.59576 35.5872ZM7.16582 36.2957C7.16582 36.1335 7.1923 35.9781 7.28223 35.8432C7.37074 35.7104 7.49493 35.6376 7.59576 35.5872L7.86409 36.1239C7.82771 36.1421 7.80701 36.1549 7.79438 36.1643C7.78855 36.1687 7.78534 36.1717 7.78372 36.1734C7.78221 36.1749 7.78166 36.1757 7.78146 36.176C7.78127 36.1763 7.78055 36.1774 7.77945 36.18C7.7783 36.1828 7.77639 36.188 7.77435 36.1966C7.77011 36.2147 7.76582 36.2454 7.76582 36.2957H7.16582ZM7.34172 36.948C7.22849 36.8348 7.19389 36.6896 7.17984 36.5913C7.16523 36.489 7.16582 36.3782 7.16582 36.2957H7.76582C7.76582 36.3893 7.76641 36.4546 7.77381 36.5064C7.78177 36.5621 7.79119 36.549 7.76599 36.5238L7.34172 36.948ZM7.99403 37.212C7.73319 37.212 7.48223 37.0885 7.34172 36.948L7.76599 36.5238C7.77827 36.5361 7.81041 36.5603 7.8591 36.5812C7.90651 36.6015 7.95425 36.612 7.99403 36.612V37.212Z" fill="black" mask="url(#path-3-outside-1_388:12115)"/>
<path d="M36 22L31 42L36 47V22Z" fill="white" stroke="#333333" stroke-width="2" stroke-linejoin="round"/>
<path d="M3 42H31L36 47H8.82843C8.29799 47 7.78929 46.7893 7.41421 46.4142L3 42Z" fill="white" stroke="#333333" stroke-width="2" stroke-linejoin="round"/>
</svg>
