<svg xmlns="http://www.w3.org/2000/svg" viewBox="0 0 24 24"><defs><style>.cls-1{fill:#333;}</style></defs><g id="レイヤー_2" data-name="レイヤー 2"><path class="cls-1" d="M7.23,14.13a.57.57,0,0,0,0,.8.58.58,0,0,0,.39.15.59.59,0,0,0,.42-.18l2.26-2.5a.52.52,0,0,0,.13-.47.55.55,0,0,0-.14-.36L8.05,9.3a.57.57,0,0,0-.8,0,.55.55,0,0,0,0,.8l1.3,1.3H3.08a.57.57,0,1,0,0,1.13h5.6Z"/><path class="cls-1" d="M17.43,4.75l0-.06a.76.76,0,0,0-.08-.11l-.06,0-.1-.07-.08,0,0,0-4.66-1a.54.54,0,0,0-.47.11.55.55,0,0,0-.21.44v.43H7.09A.57.57,0,0,0,6.53,5V7.37a.57.57,0,1,0,1.13,0V5.53h4V18.47h-4V17a.57.57,0,0,0-1.13,0V19a.57.57,0,0,0,.56.57h4.6V20a.55.55,0,0,0,.21.44.58.58,0,0,0,.35.13l.12,0,4.66-1,0,0,.08,0,.1-.07.06,0a.76.76,0,0,0,.08-.11l0-.06a.52.52,0,0,0,0-.21V5A.52.52,0,0,0,17.43,4.75Zm-4.36,8.07c-.3,0-.55-.37-.55-.82s.25-.82.55-.82.55.37.55.82S13.38,12.82,13.07,12.82Z"/></g></svg>