<svg width="34" height="32" viewBox="0 0 34 32" fill="none" xmlns="http://www.w3.org/2000/svg">
<path fill-rule="evenodd" clip-rule="evenodd" d="M16.4149 2.0007C20.9568 1.98088 25.7256 2.36474 28.8326 5.65998C32.2198 9.25247 33.7784 14.4001 32.6211 19.1888C31.4777 23.9197 27.6558 27.5398 23.1102 29.3381C18.9358 30.9895 14.4078 29.9535 10.372 27.9906C6.37412 26.0461 2.79289 23.1372 1.59598 18.8738C0.330325 14.3656 1.03716 9.29288 4.13313 5.76775C7.09844 2.39138 11.9076 2.02036 16.4149 2.0007Z" fill="#FF9F2E" fill-opacity="0.32" stroke="#FF9F2E" stroke-width="2"/>
<path d="M20.4524 8.8959L17.1742 12.1742L17.6161 14.3839L19.8258 14.8258L23.1041 11.5476L23.1044 11.5474C23.5102 12.5053 23.6072 13.5658 23.382 14.5813C23.1568 15.5969 22.6206 16.517 21.848 17.2136C21.0754 17.9101 20.1049 18.3485 19.0715 18.4676C18.0381 18.5867 16.9933 18.3807 16.0824 17.8782L16.0825 17.878L11.7008 22.9508C11.3491 23.3021 10.8723 23.4994 10.3752 23.4992C9.8781 23.4991 9.40141 23.3016 9.04991 22.9501C8.69841 22.5986 8.50087 22.1219 8.50073 21.6248C8.50059 21.1277 8.69785 20.6509 9.04915 20.2992L14.1219 15.9175L14.1218 15.9176C13.6193 15.0067 13.4133 13.9619 13.5324 12.9285C13.6515 11.8951 14.0899 10.9246 14.7864 10.152C15.483 9.37935 16.4031 8.84314 17.4186 8.61795C18.4342 8.39277 19.4947 8.48981 20.4526 8.89558L20.4524 8.8959Z" fill="white" stroke="black" stroke-width="1.5" stroke-linecap="round" stroke-linejoin="round"/>
</svg>
