<svg width="34" height="34" viewBox="0 0 34 34" fill="none" xmlns="http://www.w3.org/2000/svg">
<path d="M1 5C1 2.79086 2.79086 1 5 1H29.1727C30.1899 1 31.1653 1.40494 31.8834 2.12538C32.5985 2.84278 33 3.81439 33 4.8273V29C33 31.2091 31.2091 33 29 33H5.97545C4.12681 33 2.51898 31.7332 2.08647 29.9359L1.11102 25.8824C1.03727 25.5759 1 25.2618 1 24.9465V5Z" fill="white"/>
<rect x="1" y="1.6665" width="24.7095" height="24.7018" rx="4" stroke="#333333" stroke-width="2"/>
<path fill-rule="evenodd" clip-rule="evenodd" d="M3 1C1.89543 1 1 1.89543 1 3V25.1838C1 25.3414 1.01863 25.4985 1.05551 25.6517L2.45515 31.4679C2.67141 32.3666 3.47532 33 4.39964 33H31C32.1046 33 33 32.1046 33 31V29.9138C32.3295 30.8927 30.8237 31.1567 29.8822 30.1525L26.3022 26.3339C25.9241 25.9306 25.396 25.7018 24.8431 25.7018H3.00011C1.89555 25.7018 1.00011 24.8063 1.00011 23.7018V3C1.00011 1.89543 1.89554 1 3.00011 1H3Z" fill="#333333"/>
<path d="M1.05551 25.6517L1.54163 25.5347H1.54163L1.05551 25.6517ZM2.45515 31.4679L2.94127 31.3509H2.94127L2.45515 31.4679ZM33 29.9138H33.5V28.2992L32.5875 29.6313L33 29.9138ZM29.8822 30.1525L29.5174 30.4944L29.8822 30.1525ZM26.3022 26.3339L26.667 25.9919L26.667 25.9919L26.3022 26.3339ZM1.5 3C1.5 2.17157 2.17157 1.5 3 1.5V0.5C1.61929 0.5 0.5 1.61929 0.5 3H1.5ZM1.5 25.1838V3H0.5V25.1838H1.5ZM1.54163 25.5347C1.51397 25.4198 1.5 25.302 1.5 25.1838H0.5C0.5 25.3808 0.523291 25.5772 0.569388 25.7687L1.54163 25.5347ZM2.94127 31.3509L1.54163 25.5347L0.569388 25.7687L1.96903 31.5849L2.94127 31.3509ZM4.39964 32.5C3.7064 32.5 3.10347 32.0249 2.94127 31.3509L1.96903 31.5849C2.23935 32.7082 3.24424 33.5 4.39964 33.5V32.5ZM31 32.5H4.39964V33.5H31V32.5ZM32.5 31C32.5 31.8284 31.8284 32.5 31 32.5V33.5C32.3807 33.5 33.5 32.3807 33.5 31H32.5ZM32.5 29.9138V31H33.5V29.9138H32.5ZM32.5875 29.6313C32.0781 30.375 30.9469 30.5571 30.247 29.8105L29.5174 30.4944C30.7005 31.7563 32.5809 31.4104 33.4125 30.1964L32.5875 29.6313ZM30.247 29.8105L26.667 25.9919L25.9374 26.6758L29.5174 30.4944L30.247 29.8105ZM26.667 25.9919C26.1944 25.4878 25.5342 25.2018 24.8431 25.2018V26.2018C25.2578 26.2018 25.6539 26.3734 25.9374 26.6758L26.667 25.9919ZM24.8431 25.2018H3.00011V26.2018H24.8431V25.2018ZM3.00011 25.2018C2.17169 25.2018 1.50011 24.5302 1.50011 23.7018H0.500114C0.500114 25.0825 1.6194 26.2018 3.00011 26.2018V25.2018ZM1.50011 23.7018V3H0.500114V23.7018H1.50011ZM1.50011 3C1.50011 2.17157 2.17169 1.5 3.00011 1.5V0.5C1.6194 0.5 0.500114 1.61929 0.500114 3H1.50011ZM3 1.5H3.00011V0.5H3V1.5Z" fill="#333333"/>
<path d="M1 5C1 2.79086 2.79086 1 5 1H24.914C25.3026 1 25.6891 1.05662 26.0614 1.16808L30.1473 2.39148C31.8403 2.89838 33 4.45618 33 6.2234V29C33 31.2091 31.2091 33 29 33H5.97545C4.12681 33 2.51898 31.7332 2.08647 29.9359L1.11102 25.8824C1.03727 25.5759 1 25.2618 1 24.9465V5Z" stroke="#333333" stroke-width="2"/>
<ellipse cx="27.9528" cy="3.80701" rx="0.560799" ry="0.561403" fill="#333333"/>
<ellipse cx="27.9528" cy="6.05261" rx="0.560799" ry="0.561403" fill="#333333"/>
<ellipse cx="27.9528" cy="8.29822" rx="0.560799" ry="0.561403" fill="#333333"/>
<ellipse cx="27.9528" cy="10.5438" rx="0.560799" ry="0.561403" fill="#333333"/>
<ellipse cx="27.9528" cy="12.7894" rx="0.560799" ry="0.561403" fill="#333333"/>
<ellipse cx="27.9528" cy="15.035" rx="0.560799" ry="0.561404" fill="#333333"/>
<ellipse cx="27.9528" cy="17.2806" rx="0.560799" ry="0.561402" fill="#333333"/>
<ellipse cx="27.9528" cy="19.5262" rx="0.560799" ry="0.561405" fill="#333333"/>
<ellipse cx="27.9528" cy="21.7719" rx="0.560799" ry="0.561403" fill="#333333"/>
<ellipse cx="27.9528" cy="24.0175" rx="0.560799" ry="0.561403" fill="#333333"/>
<ellipse cx="27.9528" cy="26.2631" rx="0.560799" ry="0.561405" fill="#333333"/>
<ellipse cx="27.9528" cy="28.5087" rx="0.560799" ry="0.561404" fill="#333333"/>
<ellipse cx="30.1961" cy="3.80701" rx="0.560804" ry="0.561403" fill="#333333"/>
<ellipse cx="30.1961" cy="6.05261" rx="0.560804" ry="0.561403" fill="#333333"/>
<ellipse cx="30.1961" cy="8.29822" rx="0.560804" ry="0.561403" fill="#333333"/>
<ellipse cx="30.1961" cy="10.5438" rx="0.560804" ry="0.561403" fill="#333333"/>
<ellipse cx="30.1961" cy="12.7894" rx="0.560804" ry="0.561403" fill="#333333"/>
<ellipse cx="30.1961" cy="15.035" rx="0.560804" ry="0.561404" fill="#333333"/>
<ellipse cx="30.1961" cy="17.2806" rx="0.560804" ry="0.561402" fill="#333333"/>
<ellipse cx="30.1961" cy="19.5262" rx="0.560804" ry="0.561405" fill="#333333"/>
<ellipse cx="30.1961" cy="21.7719" rx="0.560804" ry="0.561403" fill="#333333"/>
<ellipse cx="30.1961" cy="24.0175" rx="0.560804" ry="0.561403" fill="#333333"/>
<ellipse cx="30.1961" cy="26.2631" rx="0.560804" ry="0.561405" fill="#333333"/>
<ellipse cx="30.1961" cy="28.5087" rx="0.560804" ry="0.561404" fill="#333333"/>
<ellipse cx="32.4391" cy="3.80701" rx="0.560806" ry="0.561403" fill="#333333"/>
<ellipse cx="32.4391" cy="6.05261" rx="0.560806" ry="0.561403" fill="#333333"/>
<ellipse cx="32.4391" cy="8.29822" rx="0.560806" ry="0.561403" fill="#333333"/>
<ellipse cx="32.4391" cy="10.5438" rx="0.560806" ry="0.561403" fill="#333333"/>
<ellipse cx="32.4391" cy="12.7894" rx="0.560806" ry="0.561403" fill="#333333"/>
<ellipse cx="32.4391" cy="15.035" rx="0.560806" ry="0.561404" fill="#333333"/>
<ellipse cx="32.4391" cy="17.2806" rx="0.560806" ry="0.561402" fill="#333333"/>
<ellipse cx="32.4391" cy="19.5262" rx="0.560806" ry="0.561405" fill="#333333"/>
<ellipse cx="32.4391" cy="21.7719" rx="0.560806" ry="0.561403" fill="#333333"/>
<ellipse cx="32.4391" cy="24.0175" rx="0.560806" ry="0.561403" fill="#333333"/>
<ellipse cx="32.4391" cy="26.2631" rx="0.560806" ry="0.561405" fill="#333333"/>
<ellipse cx="32.4391" cy="28.5087" rx="0.560806" ry="0.561404" fill="#333333"/>
<path d="M9 18.3335L17 10.3335" stroke="#333333" stroke-width="2" stroke-linecap="round" stroke-linejoin="round"/>
<path d="M11 10.3335H17V16.3335" stroke="black" stroke-opacity="0.82" stroke-width="2" stroke-linecap="round" stroke-linejoin="round"/>
</svg>
