<svg width="150" height="150" viewBox="0 0 150 150" fill="none" xmlns="http://www.w3.org/2000/svg">
<path fill-rule="evenodd" clip-rule="evenodd" d="M81.1827 7.30926C99.0473 5.75405 118.035 9.93634 130.573 22.7729C143.011 35.5078 146.28 54.4928 144.585 72.2238C143.044 88.3267 132.828 101.079 121.94 113.031C110.292 125.817 98.3977 140.273 81.1827 141.821C62.8866 143.465 45.8639 133.578 32.3857 121.081C18.296 108.017 4.57047 91.3879 6.1199 72.2238C7.61214 53.767 25.698 42.7884 39.6943 30.6843C52.1786 19.8878 64.7481 8.73997 81.1827 7.30926Z" fill="#80C067" fill-opacity="0.32" stroke="#80C067" stroke-width="4"/>
<path d="M35 39C35 36.7909 36.7909 35 39 35H107.743C108.807 35 109.826 35.4232 110.576 36.1762L113.833 39.4433C114.58 40.193 115 41.2085 115 42.2671V111C115 113.209 113.209 115 111 115H42.7112C40.8626 115 39.2547 113.733 38.8222 111.936L35.111 96.514C35.0373 96.2075 35 95.8934 35 95.5781V39Z" fill="white"/>
<rect x="35" y="36.6666" width="61.7738" height="61.7544" rx="6" stroke="#333333" stroke-width="4"/>
<path fill-rule="evenodd" clip-rule="evenodd" d="M39 35C36.7909 35 35 36.7909 35 39V95.5781C35 95.8934 35.0373 96.2075 35.111 96.514L38.8222 111.936C39.2547 113.733 40.8626 115 42.7112 115H111C113.209 115 115 113.209 115 111V109.479C113.588 111.245 110.742 111.653 108.935 109.726L97.9591 98.0186C97.2029 97.212 96.1465 96.7544 95.0409 96.7544H39.0001C36.791 96.7544 35.0001 94.9635 35.0001 92.7544V39C35.0001 36.7909 36.791 35 39.0001 35H39Z" fill="#333333"/>
<path d="M35.111 96.514L36.0833 96.28H36.0833L35.111 96.514ZM38.8222 111.936L39.7945 111.702L38.8222 111.936ZM115 109.479H116V106.627L114.219 108.854L115 109.479ZM108.935 109.726L108.205 110.41L108.935 109.726ZM97.9591 98.0186L98.6886 97.3347L98.6886 97.3347L97.9591 98.0186ZM36 39C36 37.3431 37.3431 36 39 36V34C36.2386 34 34 36.2386 34 39H36ZM36 95.5781V39H34V95.5781H36ZM36.0833 96.28C36.0279 96.0501 36 95.8145 36 95.5781H34C34 95.9722 34.0466 96.3648 34.1388 96.7479L36.0833 96.28ZM39.7945 111.702L36.0833 96.28L34.1388 96.7479L37.85 112.17L39.7945 111.702ZM42.7112 114C41.3247 114 40.1189 113.05 39.7945 111.702L37.85 112.17C38.3906 114.416 40.4004 116 42.7112 116V114ZM111 114H42.7112V116H111V114ZM114 111C114 112.657 112.657 114 111 114V116C113.761 116 116 113.761 116 111H114ZM114 109.479V111H116V109.479H114ZM114.219 108.854C113.143 110.2 111.008 110.475 109.664 109.042L108.205 110.41C110.476 112.832 114.033 112.29 115.781 110.103L114.219 108.854ZM109.664 109.042L98.6886 97.3347L97.2295 98.7026L108.205 110.41L109.664 109.042ZM98.6886 97.3347C97.7433 96.3264 96.423 95.7544 95.0409 95.7544V97.7544C95.8701 97.7544 96.6624 98.0976 97.2295 98.7026L98.6886 97.3347ZM95.0409 95.7544H39.0001V97.7544H95.0409V95.7544ZM39.0001 95.7544C37.3433 95.7544 36.0001 94.4112 36.0001 92.7544H34.0001C34.0001 95.5158 36.2387 97.7544 39.0001 97.7544V95.7544ZM36.0001 92.7544V39H34.0001V92.7544H36.0001ZM36.0001 39C36.0001 37.3431 37.3433 36 39.0001 36V34C36.2387 34 34.0001 36.2386 34.0001 39H36.0001ZM39 36H39.0001V34H39V36Z" fill="#333333"/>
<path d="M35 43C35 38.5817 38.5817 35 43 35H95.078C95.8552 35 96.6282 35.1132 97.3727 35.3362L109.295 38.9058C112.681 39.9196 115 43.0352 115 46.5696V107C115 111.418 111.418 115 107 115H45.8628C42.1655 115 38.9499 112.466 38.0848 108.872L35.222 96.9753C35.0745 96.3623 35 95.7341 35 95.1036V43Z" stroke="#333333" stroke-width="4"/>
<ellipse cx="102.382" cy="42.0175" rx="1.402" ry="1.40351" fill="#333333"/>
<ellipse cx="102.382" cy="47.6315" rx="1.402" ry="1.40351" fill="#333333"/>
<ellipse cx="102.382" cy="53.2457" rx="1.402" ry="1.40351" fill="#333333"/>
<ellipse cx="102.382" cy="58.8597" rx="1.402" ry="1.40351" fill="#333333"/>
<ellipse cx="102.382" cy="64.4737" rx="1.402" ry="1.40351" fill="#333333"/>
<ellipse cx="102.382" cy="70.0876" rx="1.402" ry="1.40351" fill="#333333"/>
<ellipse cx="102.382" cy="75.7017" rx="1.402" ry="1.40351" fill="#333333"/>
<ellipse cx="102.382" cy="81.3157" rx="1.402" ry="1.40351" fill="#333333"/>
<ellipse cx="102.382" cy="86.9297" rx="1.402" ry="1.40351" fill="#333333"/>
<ellipse cx="102.382" cy="92.5439" rx="1.402" ry="1.40351" fill="#333333"/>
<ellipse cx="102.382" cy="98.1579" rx="1.402" ry="1.40352" fill="#333333"/>
<ellipse cx="102.382" cy="103.772" rx="1.402" ry="1.40351" fill="#333333"/>
<ellipse cx="107.99" cy="42.0175" rx="1.40201" ry="1.40351" fill="#333333"/>
<ellipse cx="107.99" cy="47.6315" rx="1.40201" ry="1.40351" fill="#333333"/>
<ellipse cx="107.99" cy="53.2457" rx="1.40201" ry="1.40351" fill="#333333"/>
<ellipse cx="107.99" cy="58.8597" rx="1.40201" ry="1.40351" fill="#333333"/>
<ellipse cx="107.99" cy="64.4737" rx="1.40201" ry="1.40351" fill="#333333"/>
<ellipse cx="107.99" cy="70.0876" rx="1.40201" ry="1.40351" fill="#333333"/>
<ellipse cx="107.99" cy="75.7017" rx="1.40201" ry="1.40351" fill="#333333"/>
<ellipse cx="107.99" cy="81.3157" rx="1.40201" ry="1.40351" fill="#333333"/>
<ellipse cx="107.99" cy="86.9297" rx="1.40201" ry="1.40351" fill="#333333"/>
<ellipse cx="107.99" cy="92.5439" rx="1.40201" ry="1.40351" fill="#333333"/>
<ellipse cx="107.99" cy="98.1579" rx="1.40201" ry="1.40352" fill="#333333"/>
<ellipse cx="107.99" cy="103.772" rx="1.40201" ry="1.40351" fill="#333333"/>
<ellipse cx="113.598" cy="42.0175" rx="1.40202" ry="1.40351" fill="#333333"/>
<ellipse cx="113.598" cy="47.6315" rx="1.40202" ry="1.40351" fill="#333333"/>
<ellipse cx="113.598" cy="53.2457" rx="1.40202" ry="1.40351" fill="#333333"/>
<ellipse cx="113.598" cy="58.8597" rx="1.40202" ry="1.40351" fill="#333333"/>
<ellipse cx="113.598" cy="64.4737" rx="1.40202" ry="1.40351" fill="#333333"/>
<ellipse cx="113.598" cy="70.0876" rx="1.40202" ry="1.40351" fill="#333333"/>
<ellipse cx="113.598" cy="75.7017" rx="1.40202" ry="1.40351" fill="#333333"/>
<ellipse cx="113.598" cy="81.3157" rx="1.40202" ry="1.40351" fill="#333333"/>
<ellipse cx="113.598" cy="86.9297" rx="1.40202" ry="1.40351" fill="#333333"/>
<ellipse cx="113.598" cy="92.5439" rx="1.40202" ry="1.40351" fill="#333333"/>
<ellipse cx="113.598" cy="98.1579" rx="1.40202" ry="1.40352" fill="#333333"/>
<ellipse cx="113.598" cy="103.772" rx="1.40202" ry="1.40351" fill="#333333"/>
<path d="M65 50C54.8751 50 46.6666 58.2084 46.6666 68.3333C46.6666 78.4582 54.8751 86.6667 65 86.6667C75.1248 86.6667 83.3333 78.4582 83.3333 68.3333C83.3333 58.2084 75.1248 50 65 50ZM65 83C56.9003 83 50.3333 76.433 50.3333 68.3333C50.3333 60.2337 56.9003 53.6667 65 53.6667C73.0996 53.6667 79.6666 60.2337 79.6666 68.3333C79.6666 76.433 73.0996 83 65 83Z" fill="black" fill-opacity="0.82"/>
<path d="M70.3335 69.1671C71.0694 69.1671 71.6667 68.5605 71.6667 67.813C71.6667 67.0655 71.0694 66.4589 70.3335 66.4589H67.4923L71.4427 60.4398C71.8507 59.8169 71.6854 58.9774 71.0734 58.5616C70.4614 58.1459 69.6335 58.3152 69.2242 58.9367L65.0004 65.3715L60.7767 58.9367C60.3687 58.3138 59.5407 58.1459 58.9274 58.5616C58.3141 58.9774 58.1488 59.8169 58.5581 60.4398L62.5099 66.4589H59.6674C58.9314 66.4589 58.3341 67.0655 58.3341 67.813C58.3341 68.5605 58.9314 69.1671 59.6674 69.1671H63.6672V71.8753H59.6674C58.9314 71.8753 58.3341 72.482 58.3341 73.2295C58.3341 73.9769 58.9314 74.5836 59.6674 74.5836H63.6672V78.6459C63.6672 79.3934 64.2645 80 65.0004 80C65.7364 80 66.3337 79.3934 66.3337 78.6459V74.5836H70.3335C71.0694 74.5836 71.6667 73.9769 71.6667 73.2295C71.6667 72.482 71.0694 71.8753 70.3335 71.8753H66.3337V69.1671H70.3335Z" fill="black" fill-opacity="0.82"/>
</svg>
