<svg width="153" height="150" viewBox="0 0 153 150" fill="none" xmlns="http://www.w3.org/2000/svg">
<path fill-rule="evenodd" clip-rule="evenodd" d="M72.599 3.10495C90.6408 1.84207 106.813 12.16 120.409 24.1507C135.19 37.1867 150.218 52.4651 150.967 72.2195C151.735 92.4573 138.915 110.269 124.2 124.1C110.033 137.414 91.9737 145.056 72.599 145.873C52.2832 146.731 30.4733 143.475 16.4772 128.645C2.71547 114.063 0.14535 92.1022 3.08732 72.2195C5.64153 54.9573 18.6708 42.6798 31.013 30.4082C43.2504 18.2406 55.4297 4.30677 72.599 3.10495Z" fill="#FF9F2E" fill-opacity="0.32" stroke="#FF9F2E" stroke-width="4"/>
<path d="M36 39C36 36.7909 37.7909 35 40 35H108.743C109.807 35 110.826 35.4232 111.576 36.1762L114.833 39.4433C115.58 40.193 116 41.2085 116 42.2671V111C116 113.209 114.209 115 112 115H43.7112C41.8626 115 40.2547 113.733 39.8222 111.936L36.111 96.514C36.0373 96.2075 36 95.8934 36 95.5781V39Z" fill="white"/>
<rect x="36" y="36.6666" width="61.7738" height="61.7544" rx="6" stroke="#333333" stroke-width="4"/>
<path fill-rule="evenodd" clip-rule="evenodd" d="M40 35C37.7909 35 36 36.7909 36 39V95.5781C36 95.8934 36.0373 96.2075 36.111 96.514L39.8222 111.936C40.2547 113.733 41.8626 115 43.7112 115H112C114.209 115 116 113.209 116 111V109.479C114.588 111.245 111.742 111.653 109.935 109.726L98.9591 98.0186C98.2029 97.212 97.1465 96.7544 96.0409 96.7544H40.0001C37.791 96.7544 36.0001 94.9635 36.0001 92.7544V39C36.0001 36.7909 37.791 35 40.0001 35H40Z" fill="#333333"/>
<path d="M36.111 96.514L37.0833 96.28H37.0833L36.111 96.514ZM39.8222 111.936L40.7945 111.702L39.8222 111.936ZM116 109.479H117V106.627L115.219 108.854L116 109.479ZM109.935 109.726L109.205 110.41L109.935 109.726ZM98.9591 98.0186L99.6886 97.3347L99.6886 97.3347L98.9591 98.0186ZM37 39C37 37.3431 38.3431 36 40 36V34C37.2386 34 35 36.2386 35 39H37ZM37 95.5781V39H35V95.5781H37ZM37.0833 96.28C37.0279 96.0501 37 95.8145 37 95.5781H35C35 95.9722 35.0466 96.3648 35.1388 96.7479L37.0833 96.28ZM40.7945 111.702L37.0833 96.28L35.1388 96.7479L38.85 112.17L40.7945 111.702ZM43.7112 114C42.3247 114 41.1189 113.05 40.7945 111.702L38.85 112.17C39.3906 114.416 41.4004 116 43.7112 116V114ZM112 114H43.7112V116H112V114ZM115 111C115 112.657 113.657 114 112 114V116C114.761 116 117 113.761 117 111H115ZM115 109.479V111H117V109.479H115ZM115.219 108.854C114.143 110.2 112.008 110.475 110.664 109.042L109.205 110.41C111.476 112.832 115.033 112.29 116.781 110.103L115.219 108.854ZM110.664 109.042L99.6886 97.3347L98.2295 98.7026L109.205 110.41L110.664 109.042ZM99.6886 97.3347C98.7433 96.3264 97.423 95.7544 96.0409 95.7544V97.7544C96.8701 97.7544 97.6624 98.0976 98.2295 98.7026L99.6886 97.3347ZM96.0409 95.7544H40.0001V97.7544H96.0409V95.7544ZM40.0001 95.7544C38.3433 95.7544 37.0001 94.4112 37.0001 92.7544H35.0001C35.0001 95.5158 37.2387 97.7544 40.0001 97.7544V95.7544ZM37.0001 92.7544V39H35.0001V92.7544H37.0001ZM37.0001 39C37.0001 37.3431 38.3433 36 40.0001 36V34C37.2387 34 35.0001 36.2386 35.0001 39H37.0001ZM40 36H40.0001V34H40V36Z" fill="#333333"/>
<path d="M36 43C36 38.5817 39.5817 35 44 35H96.078C96.8552 35 97.6282 35.1132 98.3727 35.3362L110.295 38.9058C113.681 39.9196 116 43.0352 116 46.5696V107C116 111.418 112.418 115 108 115H46.8628C43.1655 115 39.9499 112.466 39.0848 108.872L36.222 96.9753C36.0745 96.3623 36 95.7341 36 95.1036V43Z" stroke="#333333" stroke-width="4"/>
<ellipse cx="103.382" cy="42.0175" rx="1.402" ry="1.40351" fill="#333333"/>
<ellipse cx="103.382" cy="47.6315" rx="1.402" ry="1.40351" fill="#333333"/>
<ellipse cx="103.382" cy="53.2457" rx="1.402" ry="1.40351" fill="#333333"/>
<ellipse cx="103.382" cy="58.8597" rx="1.402" ry="1.40351" fill="#333333"/>
<ellipse cx="103.382" cy="64.4737" rx="1.402" ry="1.40351" fill="#333333"/>
<ellipse cx="103.382" cy="70.0876" rx="1.402" ry="1.40351" fill="#333333"/>
<ellipse cx="103.382" cy="75.7017" rx="1.402" ry="1.40351" fill="#333333"/>
<ellipse cx="103.382" cy="81.3157" rx="1.402" ry="1.40351" fill="#333333"/>
<ellipse cx="103.382" cy="86.9297" rx="1.402" ry="1.40351" fill="#333333"/>
<ellipse cx="103.382" cy="92.5439" rx="1.402" ry="1.40351" fill="#333333"/>
<ellipse cx="103.382" cy="98.1579" rx="1.402" ry="1.40352" fill="#333333"/>
<ellipse cx="103.382" cy="103.772" rx="1.402" ry="1.40351" fill="#333333"/>
<ellipse cx="108.99" cy="42.0175" rx="1.40201" ry="1.40351" fill="#333333"/>
<ellipse cx="108.99" cy="47.6315" rx="1.40201" ry="1.40351" fill="#333333"/>
<ellipse cx="108.99" cy="53.2457" rx="1.40201" ry="1.40351" fill="#333333"/>
<ellipse cx="108.99" cy="58.8597" rx="1.40201" ry="1.40351" fill="#333333"/>
<ellipse cx="108.99" cy="64.4737" rx="1.40201" ry="1.40351" fill="#333333"/>
<ellipse cx="108.99" cy="70.0876" rx="1.40201" ry="1.40351" fill="#333333"/>
<ellipse cx="108.99" cy="75.7017" rx="1.40201" ry="1.40351" fill="#333333"/>
<ellipse cx="108.99" cy="81.3157" rx="1.40201" ry="1.40351" fill="#333333"/>
<ellipse cx="108.99" cy="86.9297" rx="1.40201" ry="1.40351" fill="#333333"/>
<ellipse cx="108.99" cy="92.5439" rx="1.40201" ry="1.40351" fill="#333333"/>
<ellipse cx="108.99" cy="98.1579" rx="1.40201" ry="1.40352" fill="#333333"/>
<ellipse cx="108.99" cy="103.772" rx="1.40201" ry="1.40351" fill="#333333"/>
<ellipse cx="114.598" cy="42.0175" rx="1.40202" ry="1.40351" fill="#333333"/>
<ellipse cx="114.598" cy="47.6315" rx="1.40202" ry="1.40351" fill="#333333"/>
<ellipse cx="114.598" cy="53.2457" rx="1.40202" ry="1.40351" fill="#333333"/>
<ellipse cx="114.598" cy="58.8597" rx="1.40202" ry="1.40351" fill="#333333"/>
<ellipse cx="114.598" cy="64.4737" rx="1.40202" ry="1.40351" fill="#333333"/>
<ellipse cx="114.598" cy="70.0876" rx="1.40202" ry="1.40351" fill="#333333"/>
<ellipse cx="114.598" cy="75.7017" rx="1.40202" ry="1.40351" fill="#333333"/>
<ellipse cx="114.598" cy="81.3157" rx="1.40202" ry="1.40351" fill="#333333"/>
<ellipse cx="114.598" cy="86.9297" rx="1.40202" ry="1.40351" fill="#333333"/>
<ellipse cx="114.598" cy="92.5439" rx="1.40202" ry="1.40351" fill="#333333"/>
<ellipse cx="114.598" cy="98.1579" rx="1.40202" ry="1.40352" fill="#333333"/>
<ellipse cx="114.598" cy="103.772" rx="1.40202" ry="1.40351" fill="#333333"/>
<path fill-rule="evenodd" clip-rule="evenodd" d="M66 85.0001C75.2048 85.0001 82.6667 77.5382 82.6667 68.3334C82.6667 59.1287 75.2048 51.6667 66 51.6667C56.7953 51.6667 49.3334 59.1287 49.3334 68.3334C49.3334 77.5382 56.7953 85.0001 66 85.0001Z" stroke="black" stroke-opacity="0.82" stroke-width="3" stroke-linecap="round" stroke-linejoin="round"/>
<path d="M49.3334 68.3334H82.6667" stroke="#333333" stroke-width="3" stroke-linecap="round" stroke-linejoin="round"/>
<path fill-rule="evenodd" clip-rule="evenodd" d="M66 51.6667C70.1688 56.2307 72.538 62.1535 72.6667 68.3334C72.538 74.5134 70.1688 80.4362 66 85.0001C61.8312 80.4362 59.4621 74.5134 59.3334 68.3334C59.4621 62.1535 61.8312 56.2307 66 51.6667V51.6667Z" stroke="black" stroke-opacity="0.82" stroke-width="3" stroke-linecap="round" stroke-linejoin="round"/>
</svg>
