<svg width="154" height="150" viewBox="0 0 154 150" fill="none" xmlns="http://www.w3.org/2000/svg">
<path fill-rule="evenodd" clip-rule="evenodd" d="M85.5447 5.48572C104.57 3.32495 125.023 8.23732 138.274 22.9607C151.343 37.4827 152.433 59.0864 151.894 79.2094C151.375 98.5999 148.573 119.023 135.344 132.333C122.383 145.373 103.359 146.228 85.5447 145.964C68.0625 145.704 51.1024 142.061 37.1125 130.875C20.5361 117.62 0.734514 101.263 2.06346 79.2094C3.37593 57.4292 27.2033 47.7029 42.9631 33.7852C56.3545 21.9591 68.2576 7.44904 85.5447 5.48572Z" fill="#F2464A" fill-opacity="0.32" stroke="#F2464A" stroke-width="4"/>
<path d="M37 39C37 36.7909 38.7909 35 41 35H109.743C110.807 35 111.826 35.4232 112.576 36.1762L115.833 39.4433C116.58 40.193 117 41.2085 117 42.2671V111C117 113.209 115.209 115 113 115H44.7112C42.8626 115 41.2547 113.733 40.8222 111.936L37.111 96.514C37.0373 96.2075 37 95.8934 37 95.5781V39Z" fill="white"/>
<rect x="37" y="36.6666" width="61.7738" height="61.7544" rx="6" stroke="#333333" stroke-width="4"/>
<path fill-rule="evenodd" clip-rule="evenodd" d="M41 35C38.7909 35 37 36.7909 37 39V95.5781C37 95.8934 37.0373 96.2075 37.111 96.514L40.8222 111.936C41.2547 113.733 42.8626 115 44.7112 115H113C115.209 115 117 113.209 117 111V109.479C115.588 111.245 112.742 111.653 110.935 109.726L99.9591 98.0186C99.2029 97.212 98.1465 96.7544 97.0409 96.7544H41.0001C38.791 96.7544 37.0001 94.9635 37.0001 92.7544V39C37.0001 36.7909 38.791 35 41.0001 35H41Z" fill="#333333"/>
<path d="M37.111 96.514L38.0833 96.28H38.0833L37.111 96.514ZM40.8222 111.936L41.7945 111.702L40.8222 111.936ZM117 109.479H118V106.627L116.219 108.854L117 109.479ZM110.935 109.726L110.205 110.41L110.935 109.726ZM99.9591 98.0186L100.689 97.3347L100.689 97.3347L99.9591 98.0186ZM38 39C38 37.3431 39.3431 36 41 36V34C38.2386 34 36 36.2386 36 39H38ZM38 95.5781V39H36V95.5781H38ZM38.0833 96.28C38.0279 96.0501 38 95.8145 38 95.5781H36C36 95.9722 36.0466 96.3648 36.1388 96.7479L38.0833 96.28ZM41.7945 111.702L38.0833 96.28L36.1388 96.7479L39.85 112.17L41.7945 111.702ZM44.7112 114C43.3247 114 42.1189 113.05 41.7945 111.702L39.85 112.17C40.3906 114.416 42.4004 116 44.7112 116V114ZM113 114H44.7112V116H113V114ZM116 111C116 112.657 114.657 114 113 114V116C115.761 116 118 113.761 118 111H116ZM116 109.479V111H118V109.479H116ZM116.219 108.854C115.143 110.2 113.008 110.475 111.664 109.042L110.205 110.41C112.476 112.832 116.033 112.29 117.781 110.103L116.219 108.854ZM111.664 109.042L100.689 97.3347L99.2295 98.7026L110.205 110.41L111.664 109.042ZM100.689 97.3347C99.7433 96.3264 98.423 95.7544 97.0409 95.7544V97.7544C97.8701 97.7544 98.6624 98.0976 99.2295 98.7026L100.689 97.3347ZM97.0409 95.7544H41.0001V97.7544H97.0409V95.7544ZM41.0001 95.7544C39.3433 95.7544 38.0001 94.4112 38.0001 92.7544H36.0001C36.0001 95.5158 38.2387 97.7544 41.0001 97.7544V95.7544ZM38.0001 92.7544V39H36.0001V92.7544H38.0001ZM38.0001 39C38.0001 37.3431 39.3433 36 41.0001 36V34C38.2387 34 36.0001 36.2386 36.0001 39H38.0001ZM41 36H41.0001V34H41V36Z" fill="#333333"/>
<path d="M37 43C37 38.5817 40.5817 35 45 35H97.078C97.8552 35 98.6282 35.1132 99.3727 35.3362L111.295 38.9058C114.681 39.9196 117 43.0352 117 46.5696V107C117 111.418 113.418 115 109 115H47.8628C44.1655 115 40.9499 112.466 40.0848 108.872L37.222 96.9753C37.0745 96.3623 37 95.7341 37 95.1036V43Z" stroke="#333333" stroke-width="4"/>
<ellipse cx="104.382" cy="42.0175" rx="1.402" ry="1.40351" fill="#333333"/>
<ellipse cx="104.382" cy="47.6315" rx="1.402" ry="1.40351" fill="#333333"/>
<ellipse cx="104.382" cy="53.2457" rx="1.402" ry="1.40351" fill="#333333"/>
<ellipse cx="104.382" cy="58.8597" rx="1.402" ry="1.40351" fill="#333333"/>
<ellipse cx="104.382" cy="64.4737" rx="1.402" ry="1.40351" fill="#333333"/>
<ellipse cx="104.382" cy="70.0876" rx="1.402" ry="1.40351" fill="#333333"/>
<ellipse cx="104.382" cy="75.7017" rx="1.402" ry="1.40351" fill="#333333"/>
<ellipse cx="104.382" cy="81.3157" rx="1.402" ry="1.40351" fill="#333333"/>
<ellipse cx="104.382" cy="86.9297" rx="1.402" ry="1.40351" fill="#333333"/>
<ellipse cx="104.382" cy="92.5439" rx="1.402" ry="1.40351" fill="#333333"/>
<ellipse cx="104.382" cy="98.1579" rx="1.402" ry="1.40352" fill="#333333"/>
<ellipse cx="104.382" cy="103.772" rx="1.402" ry="1.40351" fill="#333333"/>
<ellipse cx="109.99" cy="42.0175" rx="1.40201" ry="1.40351" fill="#333333"/>
<ellipse cx="109.99" cy="47.6315" rx="1.40201" ry="1.40351" fill="#333333"/>
<ellipse cx="109.99" cy="53.2457" rx="1.40201" ry="1.40351" fill="#333333"/>
<ellipse cx="109.99" cy="58.8597" rx="1.40201" ry="1.40351" fill="#333333"/>
<ellipse cx="109.99" cy="64.4737" rx="1.40201" ry="1.40351" fill="#333333"/>
<ellipse cx="109.99" cy="70.0876" rx="1.40201" ry="1.40351" fill="#333333"/>
<ellipse cx="109.99" cy="75.7017" rx="1.40201" ry="1.40351" fill="#333333"/>
<ellipse cx="109.99" cy="81.3157" rx="1.40201" ry="1.40351" fill="#333333"/>
<ellipse cx="109.99" cy="86.9297" rx="1.40201" ry="1.40351" fill="#333333"/>
<ellipse cx="109.99" cy="92.5439" rx="1.40201" ry="1.40351" fill="#333333"/>
<ellipse cx="109.99" cy="98.1579" rx="1.40201" ry="1.40352" fill="#333333"/>
<ellipse cx="109.99" cy="103.772" rx="1.40201" ry="1.40351" fill="#333333"/>
<ellipse cx="115.598" cy="42.0175" rx="1.40202" ry="1.40351" fill="#333333"/>
<ellipse cx="115.598" cy="47.6315" rx="1.40202" ry="1.40351" fill="#333333"/>
<ellipse cx="115.598" cy="53.2457" rx="1.40202" ry="1.40351" fill="#333333"/>
<ellipse cx="115.598" cy="58.8597" rx="1.40202" ry="1.40351" fill="#333333"/>
<ellipse cx="115.598" cy="64.4737" rx="1.40202" ry="1.40351" fill="#333333"/>
<ellipse cx="115.598" cy="70.0876" rx="1.40202" ry="1.40351" fill="#333333"/>
<ellipse cx="115.598" cy="75.7017" rx="1.40202" ry="1.40351" fill="#333333"/>
<ellipse cx="115.598" cy="81.3157" rx="1.40202" ry="1.40351" fill="#333333"/>
<ellipse cx="115.598" cy="86.9297" rx="1.40202" ry="1.40351" fill="#333333"/>
<ellipse cx="115.598" cy="92.5439" rx="1.40202" ry="1.40351" fill="#333333"/>
<ellipse cx="115.598" cy="98.1579" rx="1.40202" ry="1.40352" fill="#333333"/>
<ellipse cx="115.598" cy="103.772" rx="1.40202" ry="1.40351" fill="#333333"/>
<path fill-rule="evenodd" clip-rule="evenodd" d="M81.7335 56.0168C80.0142 54.2968 77.682 53.3304 75.2501 53.3304C72.8182 53.3304 70.486 54.2968 68.7668 56.0168L67.0001 57.7835L65.2335 56.0168C61.6528 52.4362 55.8474 52.4362 52.2668 56.0168C48.6861 59.5975 48.6861 65.4028 52.2668 68.9835L54.0335 70.7502L67.0001 83.7168L79.9668 70.7502L81.7335 68.9835C83.4535 67.2643 84.4198 64.932 84.4198 62.5002C84.4198 60.0683 83.4535 57.736 81.7335 56.0168Z" stroke="#333333" stroke-width="4" stroke-linecap="round" stroke-linejoin="round"/>
</svg>
