<svg width="154" height="150" viewBox="0 0 154 150" fill="none" xmlns="http://www.w3.org/2000/svg">
<path fill-rule="evenodd" clip-rule="evenodd" d="M74.2574 9.00326C95.5476 8.91037 117.901 10.7097 132.465 26.1562C148.343 42.996 155.649 67.1252 150.224 89.5724C144.864 111.749 126.949 128.718 105.642 137.147C86.0742 144.888 64.849 140.032 45.9313 130.831C27.1912 121.716 10.4041 108.081 4.79366 88.0962C-1.1391 66.9637 2.1742 43.1854 16.6865 26.6613C30.5865 10.8346 53.1294 9.09545 74.2574 9.00326Z" fill="#88D9F4" fill-opacity="0.32" stroke="#88D9F4" stroke-width="4"/>
<path d="M37 39C37 36.7909 38.7909 35 41 35H109.743C110.807 35 111.826 35.4232 112.576 36.1762L115.833 39.4433C116.58 40.193 117 41.2085 117 42.2671V111C117 113.209 115.209 115 113 115H44.7112C42.8626 115 41.2547 113.733 40.8222 111.936L37.111 96.514C37.0373 96.2075 37 95.8934 37 95.5781V39Z" fill="white"/>
<rect x="37" y="36.6666" width="61.7738" height="61.7544" rx="6" stroke="#333333" stroke-width="4"/>
<path fill-rule="evenodd" clip-rule="evenodd" d="M41 35C38.7909 35 37 36.7909 37 39V95.5781C37 95.8934 37.0373 96.2075 37.111 96.514L40.8222 111.936C41.2547 113.733 42.8626 115 44.7112 115H113C115.209 115 117 113.209 117 111V109.479C115.588 111.245 112.742 111.653 110.935 109.726L99.9591 98.0186C99.2029 97.212 98.1465 96.7544 97.0409 96.7544H41.0001C38.791 96.7544 37.0001 94.9635 37.0001 92.7544V39C37.0001 36.7909 38.791 35 41.0001 35H41Z" fill="#333333"/>
<path d="M37.111 96.514L38.0833 96.28H38.0833L37.111 96.514ZM40.8222 111.936L41.7945 111.702L40.8222 111.936ZM117 109.479H118V106.627L116.219 108.854L117 109.479ZM110.935 109.726L110.205 110.41L110.935 109.726ZM99.9591 98.0186L100.689 97.3347L100.689 97.3347L99.9591 98.0186ZM38 39C38 37.3431 39.3431 36 41 36V34C38.2386 34 36 36.2386 36 39H38ZM38 95.5781V39H36V95.5781H38ZM38.0833 96.28C38.0279 96.0501 38 95.8145 38 95.5781H36C36 95.9722 36.0466 96.3648 36.1388 96.7479L38.0833 96.28ZM41.7945 111.702L38.0833 96.28L36.1388 96.7479L39.85 112.17L41.7945 111.702ZM44.7112 114C43.3247 114 42.1189 113.05 41.7945 111.702L39.85 112.17C40.3906 114.416 42.4004 116 44.7112 116V114ZM113 114H44.7112V116H113V114ZM116 111C116 112.657 114.657 114 113 114V116C115.761 116 118 113.761 118 111H116ZM116 109.479V111H118V109.479H116ZM116.219 108.854C115.143 110.2 113.008 110.475 111.664 109.042L110.205 110.41C112.476 112.832 116.033 112.29 117.781 110.103L116.219 108.854ZM111.664 109.042L100.689 97.3347L99.2295 98.7026L110.205 110.41L111.664 109.042ZM100.689 97.3347C99.7433 96.3264 98.423 95.7544 97.0409 95.7544V97.7544C97.8701 97.7544 98.6624 98.0976 99.2295 98.7026L100.689 97.3347ZM97.0409 95.7544H41.0001V97.7544H97.0409V95.7544ZM41.0001 95.7544C39.3433 95.7544 38.0001 94.4112 38.0001 92.7544H36.0001C36.0001 95.5158 38.2387 97.7544 41.0001 97.7544V95.7544ZM38.0001 92.7544V39H36.0001V92.7544H38.0001ZM38.0001 39C38.0001 37.3431 39.3433 36 41.0001 36V34C38.2387 34 36.0001 36.2386 36.0001 39H38.0001ZM41 36H41.0001V34H41V36Z" fill="#333333"/>
<path d="M37 43C37 38.5817 40.5817 35 45 35H97.078C97.8552 35 98.6282 35.1132 99.3727 35.3362L111.295 38.9058C114.681 39.9196 117 43.0352 117 46.5696V107C117 111.418 113.418 115 109 115H47.8628C44.1655 115 40.9499 112.466 40.0848 108.872L37.222 96.9753C37.0745 96.3623 37 95.7341 37 95.1036V43Z" stroke="#333333" stroke-width="4"/>
<ellipse cx="104.382" cy="42.0175" rx="1.402" ry="1.40351" fill="#333333"/>
<ellipse cx="104.382" cy="47.6315" rx="1.402" ry="1.40351" fill="#333333"/>
<ellipse cx="104.382" cy="53.2457" rx="1.402" ry="1.40351" fill="#333333"/>
<ellipse cx="104.382" cy="58.8597" rx="1.402" ry="1.40351" fill="#333333"/>
<ellipse cx="104.382" cy="64.4737" rx="1.402" ry="1.40351" fill="#333333"/>
<ellipse cx="104.382" cy="70.0876" rx="1.402" ry="1.40351" fill="#333333"/>
<ellipse cx="104.382" cy="75.7017" rx="1.402" ry="1.40351" fill="#333333"/>
<ellipse cx="104.382" cy="81.3157" rx="1.402" ry="1.40351" fill="#333333"/>
<ellipse cx="104.382" cy="86.9297" rx="1.402" ry="1.40351" fill="#333333"/>
<ellipse cx="104.382" cy="92.5439" rx="1.402" ry="1.40351" fill="#333333"/>
<ellipse cx="104.382" cy="98.1579" rx="1.402" ry="1.40352" fill="#333333"/>
<ellipse cx="104.382" cy="103.772" rx="1.402" ry="1.40351" fill="#333333"/>
<ellipse cx="109.99" cy="42.0175" rx="1.40201" ry="1.40351" fill="#333333"/>
<ellipse cx="109.99" cy="47.6315" rx="1.40201" ry="1.40351" fill="#333333"/>
<ellipse cx="109.99" cy="53.2457" rx="1.40201" ry="1.40351" fill="#333333"/>
<ellipse cx="109.99" cy="58.8597" rx="1.40201" ry="1.40351" fill="#333333"/>
<ellipse cx="109.99" cy="64.4737" rx="1.40201" ry="1.40351" fill="#333333"/>
<ellipse cx="109.99" cy="70.0876" rx="1.40201" ry="1.40351" fill="#333333"/>
<ellipse cx="109.99" cy="75.7017" rx="1.40201" ry="1.40351" fill="#333333"/>
<ellipse cx="109.99" cy="81.3157" rx="1.40201" ry="1.40351" fill="#333333"/>
<ellipse cx="109.99" cy="86.9297" rx="1.40201" ry="1.40351" fill="#333333"/>
<ellipse cx="109.99" cy="92.5439" rx="1.40201" ry="1.40351" fill="#333333"/>
<ellipse cx="109.99" cy="98.1579" rx="1.40201" ry="1.40352" fill="#333333"/>
<ellipse cx="109.99" cy="103.772" rx="1.40201" ry="1.40351" fill="#333333"/>
<ellipse cx="115.598" cy="42.0175" rx="1.40202" ry="1.40351" fill="#333333"/>
<ellipse cx="115.598" cy="47.6315" rx="1.40202" ry="1.40351" fill="#333333"/>
<ellipse cx="115.598" cy="53.2457" rx="1.40202" ry="1.40351" fill="#333333"/>
<ellipse cx="115.598" cy="58.8597" rx="1.40202" ry="1.40351" fill="#333333"/>
<ellipse cx="115.598" cy="64.4737" rx="1.40202" ry="1.40351" fill="#333333"/>
<ellipse cx="115.598" cy="70.0876" rx="1.40202" ry="1.40351" fill="#333333"/>
<ellipse cx="115.598" cy="75.7017" rx="1.40202" ry="1.40351" fill="#333333"/>
<ellipse cx="115.598" cy="81.3157" rx="1.40202" ry="1.40351" fill="#333333"/>
<ellipse cx="115.598" cy="86.9297" rx="1.40202" ry="1.40351" fill="#333333"/>
<ellipse cx="115.598" cy="92.5439" rx="1.40202" ry="1.40351" fill="#333333"/>
<ellipse cx="115.598" cy="98.1579" rx="1.40202" ry="1.40352" fill="#333333"/>
<ellipse cx="115.598" cy="103.772" rx="1.40202" ry="1.40351" fill="#333333"/>
<path d="M56.6991 57.341C56.5022 55.8547 55.2657 55 53.6285 55C51.7599 55 50.3334 56.2004 50.3334 58.3057C50.3334 60.4047 51.7357 61.6114 53.6285 61.6114C55.4419 61.6114 56.5368 60.5147 56.6991 59.3301L55.1863 59.3238C55.0447 60.0119 54.4506 60.4079 53.6527 60.4079C52.5785 60.4079 51.8497 59.682 51.8497 58.3057C51.8497 56.9671 52.5681 56.2035 53.663 56.2035C54.4816 56.2035 55.0723 56.634 55.1863 57.341H56.6991Z" fill="black"/>
<path d="M59.4099 58.733C59.4134 58.1109 59.8313 57.7464 60.4323 57.7464C61.0298 57.7464 61.3822 58.0951 61.3787 58.689V61.5234H62.8501V58.4502C62.8536 57.319 62.1213 56.634 61.016 56.634C60.2112 56.634 59.6724 56.9796 59.4306 57.5484H59.3685V55.088H57.9385V61.5234H59.4099V58.733Z" fill="black"/>
<path d="M66.6204 61.6176C67.9329 61.6176 68.8172 61.0363 69.0244 60.1408L67.6635 60.0591C67.515 60.4267 67.1351 60.6184 66.6446 60.6184C65.9089 60.6184 65.4426 60.1753 65.4426 59.4558V59.4526H69.0555V59.085C69.0555 57.4447 67.964 56.634 66.5617 56.634C65.0005 56.634 63.9885 57.6427 63.9885 59.1321C63.9885 60.6624 64.9867 61.6176 66.6204 61.6176ZM65.4426 58.6231C65.4737 58.0732 65.9331 57.6332 66.5859 57.6332C67.2249 57.6332 67.667 58.048 67.6704 58.6231H65.4426Z" fill="black"/>
<path d="M70.2102 61.5234H71.6817V58.7927C71.6817 58.1988 72.1583 57.7903 72.8077 57.7903C73.0114 57.7903 73.2912 57.8218 73.4294 57.8626V56.6748C73.2981 56.6466 73.1151 56.6277 72.9665 56.6277C72.3725 56.6277 71.8854 56.9419 71.692 57.539H71.6367V56.6968H70.2102V61.5234Z" fill="black"/>
<path d="M74.3847 61.5234H75.8561V58.7927C75.8561 58.1988 76.3327 57.7903 76.9821 57.7903C77.1859 57.7903 77.4656 57.8218 77.6038 57.8626V56.6748C77.4726 56.6466 77.2895 56.6277 77.141 56.6277C76.5469 56.6277 76.0599 56.9419 75.8664 57.539H75.8112V56.6968H74.3847V61.5234Z" fill="black"/>
<path d="M79.629 63.3333C80.7239 63.3333 81.3042 62.8243 81.6047 62.045L83.6667 56.7031L82.1089 56.6968L81.0002 60.2413H80.9449L79.8466 56.6968H78.2992L80.2023 61.6616L80.116 61.8659C79.9226 62.3184 79.553 62.3404 79.0349 62.1958L78.7033 63.1951C78.914 63.2768 79.2559 63.3333 79.629 63.3333Z" fill="black"/>
<path d="M52 66.6667V81.6667H55.0323V71.8669H55.1551L58.9816 81.5935H61.0464L64.873 71.9036H64.9957V81.6667H68.028V66.6667H64.1726L60.1006 76.7449H59.9274L55.8554 66.6667H52Z" fill="black"/>
<path d="M73.9416 66.6667H70.3966L74.9379 74.1667L70.31 81.6667H73.891L76.9234 76.5471H77.0389L80.0712 81.6667H83.6667L79.0532 74.1667L83.5656 66.6667H80.0351L77.0389 71.7791H76.9234L73.9416 66.6667Z" fill="black"/>
</svg>
