<svg width="34" height="32" viewBox="0 0 34 32" fill="none" xmlns="http://www.w3.org/2000/svg">
<path fill-rule="evenodd" clip-rule="evenodd" d="M16.4149 2.0007C20.9568 1.98088 25.7256 2.36474 28.8326 5.65998C32.2198 9.25247 33.7784 14.4001 32.6211 19.1888C31.4777 23.9197 27.6558 27.5398 23.1102 29.3381C18.9358 30.9895 14.4078 29.9535 10.372 27.9906C6.37412 26.0461 2.79289 23.1372 1.59598 18.8738C0.330325 14.3656 1.03716 9.29288 4.13313 5.76775C7.09844 2.39138 11.9076 2.02036 16.4149 2.0007Z" fill="#88D9F4" fill-opacity="0.32" stroke="#88D9F4" stroke-width="2"/>
<path fill-rule="evenodd" clip-rule="evenodd" d="M13.3333 23.3333C14.0697 23.3333 14.6667 22.7364 14.6667 22C14.6667 21.2636 14.0697 20.6667 13.3333 20.6667C12.597 20.6667 12 21.2636 12 22C12 22.7364 12.597 23.3333 13.3333 23.3333Z" stroke="#333333" stroke-width="1.5" stroke-linecap="round" stroke-linejoin="round"/>
<path fill-rule="evenodd" clip-rule="evenodd" d="M21.3333 23.3333C22.0697 23.3333 22.6667 22.7364 22.6667 22C22.6667 21.2636 22.0697 20.6667 21.3333 20.6667C20.597 20.6667 20 21.2636 20 22C20 22.7364 20.597 23.3333 21.3333 23.3333Z" stroke="#333333" stroke-width="1.5" stroke-linecap="round" stroke-linejoin="round"/>
<path fill-rule="evenodd" clip-rule="evenodd" d="M11.78 12H23.3333L22.2133 17.5933C22.0875 18.2268 21.5257 18.679 20.88 18.6667H13.8333C13.1596 18.6724 12.5875 18.1747 12.5 17.5067L11.4866 9.82667C11.3997 9.16374 10.8352 8.66768 10.1666 8.66667H8.66663" fill="white"/>
<path d="M11.78 12H23.3333L22.2133 17.5933C22.0875 18.2268 21.5257 18.679 20.88 18.6667H13.8333C13.1596 18.6724 12.5875 18.1747 12.5 17.5067L11.4866 9.82667C11.3997 9.16374 10.8352 8.66768 10.1666 8.66667H8.66663" stroke="#333333" stroke-width="1.5" stroke-linecap="round" stroke-linejoin="round"/>
</svg>
