<svg width="20" height="20" viewBox="0 0 20 20" fill="none" xmlns="http://www.w3.org/2000/svg">
<path fill-rule="evenodd" clip-rule="evenodd" d="M11.6666 7.49984V4.1665C11.6666 2.78579 10.5473 1.6665 9.16663 1.6665L5.83329 9.1665V18.3332H15.2333C16.0644 18.3426 16.7753 17.7382 16.9 16.9165L18.05 9.4165C18.1233 8.93305 17.9807 8.44176 17.6598 8.07277C17.339 7.70377 16.8723 7.4943 16.3833 7.49984H11.6666ZM5.83329 18.3332H3.33329C2.41282 18.3332 1.66663 17.587 1.66663 16.6665V10.8332C1.66663 9.9127 2.41282 9.1665 3.33329 9.1665H5.83329V18.3332Z" fill="white"/>
<path d="M11.6666 7.49984H10.6666C10.6666 8.05212 11.1143 8.49984 11.6666 8.49984V7.49984ZM11.6666 4.1665L12.6666 4.1665L11.6666 4.1665ZM9.16663 1.6665V0.666504C8.77144 0.666504 8.41332 0.899237 8.25281 1.26037L9.16663 1.6665ZM5.83329 9.1665L4.91948 8.76037C4.86265 8.88822 4.83329 9.02659 4.83329 9.1665H5.83329ZM5.83329 18.3332H4.83329C4.83329 18.8855 5.28101 19.3332 5.83329 19.3332V18.3332ZM15.2333 18.3332L15.2446 17.3332H15.2333V18.3332ZM16.9 16.9165L15.9115 16.7649L15.9113 16.7666L16.9 16.9165ZM18.05 9.4165L19.0384 9.56807L19.0386 9.56657L18.05 9.4165ZM16.3833 7.49984V8.4999L16.3946 8.49977L16.3833 7.49984ZM5.83329 18.3332V19.3332C6.38558 19.3332 6.83329 18.8855 6.83329 18.3332H5.83329ZM5.83329 9.1665H6.83329C6.83329 8.61422 6.38558 8.1665 5.83329 8.1665V9.1665ZM12.6666 7.49984V4.1665H10.6666V7.49984H12.6666ZM12.6666 4.1665C12.6666 2.23351 11.0996 0.666504 9.16663 0.666504V2.6665C9.99505 2.6665 10.6666 3.33808 10.6666 4.1665L12.6666 4.1665ZM8.25281 1.26037L4.91948 8.76037L6.7471 9.57264L10.0804 2.07264L8.25281 1.26037ZM4.83329 9.1665V18.3332H6.83329V9.1665H4.83329ZM5.83329 19.3332H15.2333V17.3332H5.83329V19.3332ZM15.222 19.3331C16.5517 19.3481 17.6893 18.3812 17.8887 17.0664L15.9113 16.7666C15.8614 17.0953 15.577 17.337 15.2446 17.3332L15.222 19.3331ZM17.8884 17.0681L19.0384 9.56807L17.0615 9.26494L15.9115 16.7649L17.8884 17.0681ZM19.0386 9.56657C19.156 8.79304 18.9278 8.00698 18.4144 7.41659L16.9052 8.72894C17.0336 8.87654 17.0906 9.07306 17.0613 9.26644L19.0386 9.56657ZM18.4144 7.41659C17.9011 6.82619 17.1543 6.49104 16.372 6.4999L16.3946 8.49977C16.5902 8.49756 16.7769 8.58135 16.9052 8.72894L18.4144 7.41659ZM16.3833 6.49984H11.6666V8.49984H16.3833V6.49984ZM5.83329 17.3332H3.33329V19.3332H5.83329V17.3332ZM3.33329 17.3332C2.9651 17.3332 2.66663 17.0347 2.66663 16.6665H0.666626C0.666626 18.1393 1.86053 19.3332 3.33329 19.3332V17.3332ZM2.66663 16.6665V10.8332H0.666626V16.6665H2.66663ZM2.66663 10.8332C2.66663 10.465 2.9651 10.1665 3.33329 10.1665V8.1665C1.86053 8.1665 0.666626 9.36041 0.666626 10.8332H2.66663ZM3.33329 10.1665H5.83329V8.1665H3.33329V10.1665ZM4.83329 9.1665V18.3332H6.83329V9.1665H4.83329Z" fill="black" fill-opacity="0.82"/>
</svg>
